<?xml version="1.0" encoding="UTF-8" standalone="no"?>
<svg
   width="785.60767"
   height="784.15448"
   version="1.1"
   id="svg45"
   xmlns="http://www.w3.org/2000/svg"
   xmlns:svg="http://www.w3.org/2000/svg">
  <defs
     id="defs45" />
  <g
     id="g42"
     transform="translate(-119.50022,-119.34509)">
    <path
       fill="#073e62"
       d="m 497.86,119.721 c 16.828,-1.014 34.212,0.18 50.969,1.719 85.468,7.846 161.699,42.231 225.827,98.978 q 3.543,3.192 7.008,6.47 3.465,3.277 6.849,6.636 3.385,3.36 6.688,6.801 3.302,3.44 6.521,6.96 3.218,3.519 6.351,7.115 3.132,3.596 6.177,7.267 3.045,3.67 6,7.414 2.956,3.743 5.82,7.556 2.864,3.813 5.635,7.695 2.771,3.881 5.447,7.828 2.677,3.948 5.257,7.958 2.581,4.011 5.064,8.083 2.483,4.072 4.866,8.202 2.384,4.131 4.668,8.318 2.283,4.187 4.464,8.428 2.182,4.241 4.261,8.533 2.078,4.293 4.052,8.634 1.974,4.341 3.843,8.729 1.869,4.388 3.631,8.819 1.763,4.432 3.417,8.905 1.655,4.473 3.201,8.984 1.547,4.512 2.984,9.059 1.436,4.548 2.763,9.129 1.327,4.58 2.542,9.192 1.216,4.612 2.32,9.251 1.104,4.64 2.095,9.305 0.991,4.665 1.87,9.352 0.878,4.688 1.644,9.395 0.765,4.707 1.416,9.432 0.651,4.724 1.188,9.463 0.537,4.739 0.959,9.489 0.422,4.751 0.73,9.51 0.295,4.853 0.47,9.712 0.174,4.859 0.227,9.721 0.054,4.862 -0.014,9.724 -0.068,4.862 -0.257,9.72 -0.189,4.859 -0.499,9.711 -0.31,4.852 -0.741,9.695 -0.431,4.844 -0.983,9.674 -0.551,4.831 -1.223,9.647 -0.671,4.815 -1.463,9.613 -0.791,4.797 -1.702,9.573 -0.91,4.776 -1.94,9.528 -1.029,4.752 -2.177,9.477 -1.147,4.725 -2.413,9.42 -1.264,4.695 -2.646,9.356 -1.382,4.662 -2.879,9.288 -1.497,4.626 -3.109,9.213 -1.612,4.588 -3.338,9.133 -1.726,4.546 -3.565,9.047 -1.838,4.501 -3.789,8.955 -1.95,4.454 -4.01,8.858 -2.061,4.404 -4.231,8.755 -2.169,4.352 -4.447,8.647 -2.277,4.296 -4.661,8.534 -2.384,4.238 -4.873,8.415 -2.488,4.177 -5.08,8.29 -2.592,4.114 -5.286,8.162 -2.694,4.048 -5.487,8.027 -2.794,3.98 -5.686,7.889 -2.892,3.908 -5.881,7.744 -2.988,3.835 -6.071,7.595 -3.084,3.759 -6.259,7.441 -3.176,3.682 -6.443,7.283 -2.495,2.756 -5.041,5.464 -2.546,2.709 -5.142,5.369 -2.596,2.66 -5.242,5.271 -2.647,2.61 -5.341,5.171 -2.695,2.56 -5.437,5.07 -2.743,2.509 -5.532,4.966 -2.789,2.458 -5.624,4.862 -2.835,2.404 -5.714,4.755 -2.88,2.351 -5.803,4.647 -2.923,2.296 -5.889,4.536 -2.966,2.241 -5.974,4.426 -3.008,2.184 -6.056,4.311 -3.048,2.128 -6.136,4.198 -3.087,2.069 -6.213,4.081 -3.127,2.011 -6.29,3.963 -3.163,1.952 -6.363,3.845 -3.199,1.892 -6.434,3.724 -3.234,1.831 -6.503,3.602 -3.268,1.77 -6.569,3.479 -3.302,1.709 -6.634,3.355 -3.333,1.647 -6.696,3.23 -3.363,1.583 -6.756,3.103 -3.392,1.52 -6.812,2.976 -3.42,1.455 -6.867,2.847 -3.448,1.391 -6.92,2.717 -3.473,1.326 -6.97,2.586 -3.497,1.261 -7.017,2.455 -3.52,1.194 -7.062,2.323 -3.542,1.128 -7.104,2.189 -3.563,1.061 -7.145,2.055 -3.581,0.994 -7.181,1.92 -3.6,0.926 -7.217,1.785 c -24.456,5.668 -49.243,8.476 -74.263,9.938 -17.164,0.204 -34.323,0.253 -51.436,-1.281 q -3.885,-0.341 -7.762,-0.76 -3.877,-0.419 -7.744,-0.915 -3.868,-0.496 -7.726,-1.069 -3.857,-0.573 -7.702,-1.222 -3.845,-0.65 -7.676,-1.377 -3.831,-0.726 -7.647,-1.529 -3.816,-0.803 -7.616,-1.682 -3.799,-0.878 -7.58,-1.833 -3.781,-0.954 -7.542,-1.984 -3.761,-1.03 -7.501,-2.134 -3.74,-1.105 -7.457,-2.284 -3.717,-1.179 -7.409,-2.432 -3.693,-1.253 -7.36,-2.579 -3.667,-1.326 -7.307,-2.725 -3.64,-1.4 -7.251,-2.871 -3.611,-1.472 -7.193,-3.015 -3.581,-1.544 -7.13,-3.158 -3.55,-1.615 -7.067,-3.3 -3.516,-1.685 -6.999,-3.44 -3.482,-1.755 -6.929,-3.579 -3.446,-1.824 -6.856,-3.716 -3.409,-1.892 -6.78,-3.853 -3.372,-1.96 -6.703,-3.987 -3.331,-2.027 -6.621,-4.12 -3.291,-2.093 -6.538,-4.251 -3.248,-2.158 -6.452,-4.381 -3.204,-2.223 -6.363,-4.509 -3.159,-2.286 -6.272,-4.635 -3.113,-2.349 -6.178,-4.759 -3.066,-2.411 -6.082,-4.882 -3.017,-2.471 -5.984,-5.002 -2.966,-2.53 -5.882,-5.12 -3.57,-3.142 -7.063,-6.371 -3.492,-3.229 -6.904,-6.543 -3.412,-3.313 -6.742,-6.71 -3.33,-3.396 -6.575,-6.872 -3.246,-3.477 -6.406,-7.032 -3.159,-3.556 -6.23,-7.187 -3.072,-3.632 -6.053,-7.338 -2.982,-3.705 -5.872,-7.483 -2.889,-3.778 -5.686,-7.625 -2.796,-3.848 -5.497,-7.762 -2.701,-3.915 -5.306,-7.895 -2.604,-3.98 -5.111,-8.022 -2.506,-4.043 -4.912,-8.145 -2.406,-4.103 -4.711,-8.263 -2.306,-4.161 -4.508,-8.376 -2.202,-4.216 -4.301,-8.484 -2.098,-4.268 -4.092,-8.587 -1.993,-4.318 -3.88,-8.684 -1.886,-4.366 -3.666,-8.777 -1.779,-4.411 -3.45,-8.864 -1.67,-4.453 -3.231,-8.946 -1.561,-4.493 -3.012,-9.023 -1.45,-4.529 -2.789,-9.093 -1.339,-4.564 -2.566,-9.16 -1.227,-4.595 -2.34,-9.219 -1.114,-4.624 -2.114,-9.274 -1,-4.65 -1.886,-9.323 -0.886,-4.673 -1.657,-9.366 -0.771,-4.694 -1.427,-9.404 -0.656,-4.711 -1.196,-9.437 -0.54,-4.725 -0.965,-9.462 -0.424,-4.738 -0.732,-9.484 -0.322,-4.872 -0.523,-9.75 -0.202,-4.879 -0.282,-9.761 -0.081,-4.882 -0.04,-9.764 0.04,-4.882 0.201,-9.762 0.162,-4.88 0.443,-9.754 0.282,-4.875 0.685,-9.741 0.402,-4.866 0.925,-9.72 0.523,-4.855 1.166,-9.695 0.643,-4.84 1.405,-9.662 0.763,-4.823 1.644,-9.625 0.882,-4.803 1.882,-9.582 1,-4.778 2.119,-9.531 1.118,-4.753 2.353,-9.477 1.236,-4.723 2.588,-9.415 1.352,-4.692 2.82,-9.348 1.468,-4.657 3.05,-9.276 1.583,-4.619 3.279,-9.197 1.697,-4.578 3.506,-9.113 1.809,-4.535 3.73,-9.024 1.921,-4.489 3.952,-8.929 2.032,-4.44 4.173,-8.828 2.14,-4.388 4.389,-8.722 2.249,-4.334 4.604,-8.611 2.356,-4.277 4.816,-8.494 2.46,-4.217 5.024,-8.372 2.565,-4.155 5.231,-8.246 2.666,-4.09 5.432,-8.113 2.767,-4.023 5.632,-7.976 2.866,-3.954 5.828,-7.835 2.962,-3.881 6.02,-7.688 3.057,-3.807 6.208,-7.536 3.151,-3.73 6.393,-7.381 2.395,-2.689 4.839,-5.333 2.443,-2.644 4.935,-5.243 2.492,-2.599 5.031,-5.152 2.54,-2.553 5.125,-5.059 2.586,-2.505 5.217,-4.963 2.631,-2.458 5.307,-4.867 2.676,-2.41 5.395,-4.769 2.72,-2.36 5.483,-4.669 2.762,-2.31 5.566,-4.568 2.805,-2.258 5.65,-4.465 2.845,-2.206 5.731,-4.36 2.885,-2.154 5.81,-4.254 2.924,-2.1 5.887,-4.147 2.962,-2.046 5.962,-4.038 2.999,-1.992 6.035,-3.928 3.035,-1.937 6.106,-3.817 3.071,-1.88 6.175,-3.704 3.105,-1.823 6.242,-3.59 3.138,-1.766 6.307,-3.474 3.17,-1.709 6.37,-3.359 3.2,-1.65 6.431,-3.241 3.23,-1.591 6.488,-3.122 3.259,-1.532 6.545,-3.003 3.286,-1.471 6.599,-2.882 3.313,-1.411 6.651,-2.76 3.338,-1.35 6.7,-2.638 3.363,-1.289 6.748,-2.515 3.385,-1.226 6.792,-2.39 3.408,-1.164 6.836,-2.265 3.428,-1.102 6.875,-2.14 3.448,-1.038 6.914,-2.012 3.467,-0.975 6.95,-1.886 c 28.104,-7.174 56.243,-10.805 85.146,-12.539 z M 149.203,466.084 c 8.808,-9.387 18.729,-17.375 28.137,-26.112 13.471,-12.511 26.587,-25.403 40.004,-37.972 11.259,-10.547 22.88,-20.732 33.668,-31.77 -6.062,-18.26 -8.28,-34.57 0.607,-52.437 q 0.643,-1.27 1.347,-2.507 0.704,-1.237 1.468,-2.438 0.763,-1.202 1.584,-2.364 0.822,-1.163 1.699,-2.284 0.877,-1.121 1.807,-2.198 0.931,-1.077 1.913,-2.107 0.982,-1.031 2.013,-2.012 1.031,-0.981 2.109,-1.911 1.078,-0.929 2.2,-1.806 1.122,-0.876 2.285,-1.696 1.163,-0.82 2.365,-1.583 1.202,-0.762 2.439,-1.465 1.238,-0.703 2.509,-1.345 1.27,-0.642 2.57,-1.221 1.301,-0.579 2.628,-1.094 1.327,-0.515 2.677,-0.965 1.449,-0.457 2.919,-0.843 1.47,-0.386 2.957,-0.699 1.487,-0.313 2.988,-0.552 1.5,-0.24 3.011,-0.406 1.511,-0.166 3.028,-0.257 1.516,-0.092 3.036,-0.109 1.52,-0.017 3.038,0.041 1.519,0.058 3.033,0.19 1.513,0.132 3.019,0.338 1.506,0.206 2.999,0.486 1.494,0.28 2.972,0.633 1.478,0.352 2.937,0.777 1.459,0.425 2.896,0.921 1.436,0.496 2.847,1.062 1.41,0.566 2.791,1.2 1.381,0.635 2.729,1.336 2.428,1.276 4.72,2.782 2.292,1.507 4.426,3.229 2.135,1.722 4.092,3.644 1.956,1.922 3.717,4.025 c 7.252,8.517 12.279,18.768 17.79,28.44 8.506,14.925 17.002,30.185 26.344,44.601 14.735,-11.897 27.396,-26.134 40.981,-39.278 q 37.488,-35.785 74.52,-72.041 c 2.707,2.601 5.379,5.261 8.213,7.723 15.992,14.507 31.207,29.826 46.835,44.719 21.579,20.564 43.48,40.864 64.744,61.75 7.347,-13.648 15.206,-26.98 22.777,-40.5 7.238,-12.926 13.55,-28.379 23.891,-39.123 6.51,-6.765 15.212,-11.809 24.168,-14.523 15.506,-4.698 32.9,-4.077 47.319,3.676 q 1.298,0.702 2.561,1.467 1.262,0.765 2.485,1.591 1.224,0.826 2.405,1.711 1.182,0.884 2.319,1.826 1.136,0.942 2.225,1.938 1.09,0.996 2.129,2.044 1.039,1.048 2.026,2.146 0.987,1.098 1.918,2.243 0.932,1.144 1.807,2.333 0.874,1.19 1.689,2.42 0.816,1.23 1.57,2.499 0.754,1.269 1.445,2.574 0.691,1.304 1.317,2.64 0.627,1.337 1.187,2.703 0.56,1.365 1.052,2.757 0.493,1.391 0.917,2.805 c 4.65,15.467 2.106,30.56 -3.694,45.322 25.393,23.748 51.762,46.541 77.554,69.871 9.021,8.16 18.306,16.101 26.994,24.616 -3.666,-21.434 -8.425,-43.187 -15.15,-63.868 q -1.178,-3.612 -2.429,-7.199 -1.25,-3.588 -2.572,-7.15 -1.322,-3.561 -2.715,-7.096 -1.392,-3.535 -2.855,-7.041 -1.464,-3.506 -2.996,-6.982 -1.533,-3.477 -3.135,-6.922 -1.602,-3.444 -3.272,-6.857 -1.67,-3.412 -3.409,-6.79 -1.738,-3.378 -3.543,-6.721 -1.805,-3.343 -3.677,-6.649 -1.872,-3.306 -3.809,-6.574 -1.938,-3.268 -3.94,-6.497 -2.002,-3.229 -4.069,-6.417 -2.066,-3.188 -4.196,-6.334 -2.129,-3.146 -4.321,-6.249 -2.192,-3.103 -4.446,-6.162 -2.253,-3.058 -4.568,-6.071 -2.314,-3.013 -4.688,-5.979 -2.374,-2.967 -4.807,-5.885 -2.432,-2.918 -4.923,-5.787 -2.49,-2.869 -5.038,-5.687 -2.547,-2.819 -5.15,-5.586 -2.603,-2.768 -5.261,-5.482 -2.658,-2.715 -5.37,-5.376 -2.711,-2.661 -5.475,-5.267 -2.764,-2.607 -5.58,-5.157 -2.816,-2.551 -5.682,-5.045 -2.866,-2.494 -5.781,-4.93 -2.915,-2.436 -5.879,-4.813 -2.963,-2.378 -5.973,-4.695 -3.011,-2.318 -6.067,-4.575 -3.056,-2.257 -6.156,-4.453 c -43.758,-30.973 -93.124,-49.719 -145.748,-59.102 -22.434,-4 -45.518,-6.345 -68.32,-5.395 -20.25,1.166 -40.462,2.448 -60.453,6.063 q -3.694,0.682 -7.374,1.44 -3.68,0.758 -7.343,1.591 -3.663,0.834 -7.308,1.744 -3.645,0.909 -7.271,1.893 -3.625,0.985 -7.23,2.044 -3.604,1.059 -7.186,2.193 -3.582,1.133 -7.139,2.34 -3.558,1.207 -7.09,2.488 -3.531,1.28 -7.036,2.633 -3.505,1.354 -6.981,2.779 -3.476,1.425 -6.922,2.922 -3.445,1.497 -6.859,3.064 -3.415,1.568 -6.796,3.206 -3.38,1.638 -6.727,3.345 -3.346,1.708 -6.657,3.484 -3.31,1.776 -6.583,3.62 -3.273,1.845 -6.507,3.756 -3.235,1.912 -6.429,3.89 -3.194,1.977 -6.346,4.021 -3.152,2.043 -6.262,4.152 -3.11,2.108 -6.175,4.28 -3.065,2.172 -6.085,4.407 -3.02,2.235 -5.993,4.531 -2.973,2.297 -5.898,4.655 -2.925,2.358 -5.8,4.775 -2.876,2.418 -5.701,4.894 -2.824,2.477 -5.598,5.011 -2.773,2.535 -5.493,5.126 -2.72,2.591 -5.386,5.238 -2.666,2.647 -5.277,5.348 -2.611,2.702 -5.166,5.456 -2.554,2.755 -5.051,5.562 -2.29,2.572 -4.532,5.186 -2.242,2.614 -4.434,5.27 -2.193,2.655 -4.336,5.351 -2.143,2.695 -4.236,5.43 -2.093,2.735 -4.134,5.509 -2.041,2.773 -4.031,5.584 -1.99,2.811 -3.927,5.658 -1.937,2.848 -3.82,5.731 -1.884,2.883 -3.714,5.8 -1.83,2.917 -3.605,5.868 -1.775,2.951 -3.496,5.934 -1.72,2.984 -3.384,5.998 -1.665,3.015 -3.273,6.06 -1.608,3.046 -3.159,6.12 -1.551,3.075 -3.045,6.178 -1.494,3.102 -2.93,6.233 -1.436,3.13 -2.814,6.286 -1.377,3.156 -2.696,6.337 -1.318,3.182 -2.578,6.387 -1.259,3.205 -2.459,6.433 -1.199,3.228 -2.338,6.478 -1.14,3.25 -2.219,6.52 -1.078,3.271 -2.096,6.561 -1.018,3.29 -1.974,6.598 -0.957,3.308 -1.852,6.634 -0.894,3.325 -1.727,6.667 -0.833,3.341 -1.604,6.698 -0.771,3.356 -1.479,6.726 -0.708,3.37 -1.353,6.753 -0.646,3.383 -1.228,6.777 -0.583,3.394 -1.102,6.798 -0.519,3.405 -0.975,6.818 z"
       id="path1" />
    <path
       fill="#fefefe"
       d="m 133.918,497.931 c 0.21,-18.665 2.632,-37.369 6.081,-55.697 q 0.673,-3.573 1.415,-7.132 0.742,-3.559 1.551,-7.104 0.81,-3.544 1.688,-7.072 0.878,-3.529 1.824,-7.039 0.945,-3.511 1.958,-7.003 1.012,-3.492 2.092,-6.963 1.08,-3.472 2.226,-6.922 1.146,-3.451 2.358,-6.878 1.212,-3.428 2.49,-6.832 1.278,-3.404 2.621,-6.782 1.343,-3.379 2.75,-6.731 1.408,-3.352 2.88,-6.677 1.471,-3.325 3.007,-6.62 1.535,-3.296 3.133,-6.561 1.599,-3.266 3.259,-6.5 1.661,-3.234 3.384,-6.436 1.722,-3.202 3.506,-6.37 1.784,-3.168 3.628,-6.301 1.844,-3.134 3.749,-6.231 1.904,-3.097 3.867,-6.157 1.963,-3.06 3.985,-6.082 2.022,-3.022 4.101,-6.004 2.08,-2.983 4.216,-5.924 2.136,-2.942 4.329,-5.843 2.192,-2.9 4.44,-5.758 2.247,-2.857 4.55,-5.671 2.302,-2.814 4.658,-5.584 2.356,-2.769 4.764,-5.492 2.409,-2.724 4.869,-5.4 2.461,-2.677 4.972,-5.306 2.512,-2.629 5.073,-5.209 2.561,-2.58 5.172,-5.111 3.309,-3.246 6.698,-6.409 3.389,-3.163 6.856,-6.241 3.467,-3.078 7.009,-6.068 3.542,-2.991 7.157,-5.892 3.616,-2.902 7.302,-5.712 3.687,-2.811 7.442,-5.529 3.756,-2.718 7.578,-5.342 3.821,-2.624 7.707,-5.151 3.886,-2.528 7.834,-4.959 3.947,-2.43 7.954,-4.761 4.007,-2.332 8.071,-4.563 4.063,-2.231 8.181,-4.36 4.118,-2.129 8.288,-4.155 4.169,-2.026 8.388,-3.948 4.219,-1.921 8.484,-3.737 4.265,-1.817 8.574,-3.526 4.309,-1.709 8.66,-3.311 4.35,-1.602 8.739,-3.095 4.388,-1.493 8.813,-2.876 4.424,-1.383 8.882,-2.656 4.458,-1.273 8.946,-2.434 4.487,-1.162 9.003,-2.211 4.515,-1.049 9.055,-1.986 4.54,-0.937 9.102,-1.76 4.562,-0.824 9.144,-1.534 4.581,-0.709 9.178,-1.305 4.597,-0.596 9.208,-1.077 4.611,-0.48 9.232,-0.847 4.621,-0.366 9.25,-0.617 4.629,-0.251 9.263,-0.386 4.634,-0.136 9.269,-0.157 4.636,-0.02 9.271,0.075 4.6,0.025 9.198,0.164 4.599,0.138 9.192,0.39 4.594,0.251 9.18,0.616 4.585,0.365 9.161,0.842 4.575,0.478 9.138,1.068 4.562,0.591 9.108,1.293 4.547,0.703 9.074,1.517 4.528,0.814 9.034,1.74 4.507,0.925 8.989,1.962 4.482,1.036 8.937,2.182 4.455,1.147 8.881,2.403 4.425,1.256 8.819,2.62 4.393,1.365 8.751,2.837 4.359,1.472 8.679,3.052 4.321,1.579 8.602,3.264 4.28,1.686 8.518,3.476 4.237,1.79 8.43,3.684 4.192,1.894 8.336,3.891 4.145,1.997 8.239,4.095 4.093,2.099 8.135,4.297 4.04,2.199 8.026,4.496 3.986,2.298 7.913,4.693 3.928,2.395 7.796,4.886 3.867,2.491 7.672,5.076 3.805,2.586 7.545,5.265 3.74,2.678 7.413,5.448 3.673,2.77 7.277,5.629 3.603,2.86 7.136,5.807 3.532,2.948 6.99,5.981 3.458,3.034 6.841,6.152 3.383,3.118 6.687,6.318 3.305,3.2 6.53,6.481 3.097,3.141 6.121,6.353 3.024,3.212 5.973,6.492 2.949,3.281 5.822,6.629 2.873,3.347 5.668,6.76 2.795,3.413 5.51,6.89 2.716,3.476 5.35,7.015 2.635,3.538 5.187,7.136 2.553,3.598 5.021,7.254 2.469,3.655 4.853,7.367 2.384,3.712 4.682,7.478 2.297,3.765 4.508,7.583 2.21,3.818 4.332,7.685 2.121,3.868 4.153,7.783 2.032,3.916 3.973,7.877 1.942,3.961 3.791,7.966 1.85,4.005 3.606,8.051 1.757,4.047 3.42,8.133 1.663,4.086 3.231,8.209 1.568,4.123 3.041,8.281 1.473,4.158 2.85,8.349 1.377,4.191 2.656,8.413 1.28,4.222 2.462,8.472 1.182,4.25 2.266,8.526 1.084,4.276 2.069,8.576 0.985,4.3 1.87,8.621 0.886,4.322 1.672,8.663 0.785,4.341 1.471,8.698 0.686,4.358 1.271,8.73 0.584,4.373 1.068,8.758 0.484,4.384 0.867,8.779 0.383,4.395 0.665,8.797 0.281,4.402 0.461,8.81 l -79.074,-71.496 c -15.774,-14.218 -31.783,-28.144 -47.186,-42.769 -20.837,29.072 -42.376,57.789 -62.605,87.28 q 31.97,-30.107 61.528,-62.586 c 1.971,3.907 4.051,7.793 5.671,11.862 l -5.108,5.884 c 2.844,3.106 4.319,5.576 5.479,9.701 -2.636,1.504 -5.24,2.992 -7.727,4.738 3.708,2.126 6.558,4.2 9.48,7.386 q -5.008,4.078 -9.933,8.255 c 4.2,2.176 8.469,4.261 12.407,6.892 -10.519,16.145 -28.933,32.186 -41.92,47.16 19.819,-10.782 38.009,-27.462 55.578,-41.659 5.553,-5.412 11.949,-9.87 17.72,-15.049 -6.946,-9.306 -14.241,-18.092 -21.951,-26.777 -6.262,-7.055 -12.955,-13.919 -18.491,-21.565 28.124,22.498 54.846,47.294 81.501,71.503 14.463,13.137 32.835,28.136 45.277,42.83 -4.228,104.906 -46.315,198.758 -123.74,270.131 q -3.48,3.164 -7.037,6.242 -3.556,3.078 -7.188,6.067 -3.631,2.99 -7.334,5.89 -3.704,2.899 -7.478,5.707 -3.773,2.807 -7.615,5.521 -3.841,2.714 -7.748,5.333 -3.907,2.619 -7.877,5.141 -3.97,2.522 -8.001,4.946 -4.031,2.424 -8.12,4.748 -4.09,2.324 -8.235,4.547 -4.145,2.223 -8.343,4.344 -4.198,2.12 -8.448,4.137 -4.249,2.016 -8.546,3.928 -4.298,1.912 -8.641,3.718 -4.343,1.805 -8.729,3.504 -4.387,1.698 -8.813,3.288 -4.427,1.59 -8.891,3.071 -4.464,1.481 -8.964,2.852 -4.499,1.371 -9.031,2.63 -4.531,1.26 -9.093,2.409 -4.561,1.148 -9.149,2.184 -4.588,1.035 -9.2,1.958 -4.612,0.923 -9.245,1.732 -4.634,0.809 -9.286,1.505 -4.652,0.695 -9.319,1.276 -4.668,0.58 -9.348,1.046 -4.68,0.466 -9.371,0.817 -4.69,0.351 -9.388,0.586 -4.697,0.236 -9.399,0.356 -4.702,0.12 -9.406,0.124 -4.703,0.005 -9.406,-0.106 -4.702,-0.111 -9.4,-0.338 C 396.694,885.693 300.436,841.143 235.878,770.866 187.113,717.78 151.384,651.446 138.962,580.04 c -3.582,-20.59 -4.493,-41.008 -5.986,-61.78 l 70.205,-65.671 c 14.403,-13.531 28.483,-28.816 44.357,-40.581 q -0.757,11.056 -1.233,22.127 c -0.248,6.086 0.14,13.203 -1.401,19.131 -0.432,1.659 -1.131,2.612 -2.41,3.732 -0.329,0.288 -0.677,0.557 -1.029,0.819 4.81,1.62 9.538,3.314 14.244,5.22 -16.444,16.743 -34.548,31.685 -50.328,49.11 q 29.308,-19.09 56.538,-41.042 c 7.015,-5.548 14.467,-10.963 20.964,-17.118 -10.145,-14.317 -24.328,-32.036 -31.865,-47.351 14.573,12.355 26.903,27.53 40.709,40.781 9.377,9 20.159,16.246 29.825,24.899 -6.062,-9.677 -12.724,-19.01 -19.122,-28.468 -5.761,-8.516 -11.073,-17.383 -17.875,-25.133 -10.031,-11.429 -21.71,-21.302 -32.274,-32.226 q -35.037,34.879 -71.795,67.939 c -15.652,14.303 -31.784,28.305 -46.568,43.503 z m 15.285,-31.847 c 8.808,-9.387 18.729,-17.375 28.137,-26.112 13.471,-12.511 26.587,-25.403 40.004,-37.972 11.259,-10.547 22.88,-20.732 33.668,-31.77 -6.062,-18.26 -8.28,-34.57 0.607,-52.437 q 0.643,-1.27 1.347,-2.507 0.704,-1.237 1.468,-2.438 0.763,-1.202 1.584,-2.364 0.822,-1.163 1.699,-2.284 0.877,-1.121 1.807,-2.198 0.931,-1.077 1.913,-2.107 0.982,-1.031 2.013,-2.012 1.031,-0.981 2.109,-1.911 1.078,-0.929 2.2,-1.806 1.122,-0.876 2.285,-1.696 1.163,-0.82 2.365,-1.583 1.202,-0.762 2.439,-1.465 1.238,-0.703 2.509,-1.345 1.27,-0.642 2.57,-1.221 1.301,-0.579 2.628,-1.094 1.327,-0.515 2.677,-0.965 1.449,-0.457 2.919,-0.843 1.47,-0.386 2.957,-0.699 1.487,-0.313 2.988,-0.552 1.5,-0.24 3.011,-0.406 1.511,-0.166 3.028,-0.257 1.516,-0.092 3.036,-0.109 1.52,-0.017 3.038,0.041 1.519,0.058 3.033,0.19 1.513,0.132 3.019,0.338 1.506,0.206 2.999,0.486 1.494,0.28 2.972,0.633 1.478,0.352 2.937,0.777 1.459,0.425 2.896,0.921 1.436,0.496 2.847,1.062 1.41,0.566 2.791,1.2 1.381,0.635 2.729,1.336 2.428,1.276 4.72,2.782 2.292,1.507 4.426,3.229 2.135,1.722 4.092,3.644 1.956,1.922 3.717,4.025 c 7.252,8.517 12.279,18.768 17.79,28.44 8.506,14.925 17.002,30.185 26.344,44.601 14.735,-11.897 27.396,-26.134 40.981,-39.278 q 37.488,-35.785 74.52,-72.041 c 2.707,2.601 5.379,5.261 8.213,7.723 15.992,14.507 31.207,29.826 46.835,44.719 21.579,20.564 43.48,40.864 64.744,61.75 7.347,-13.648 15.206,-26.98 22.777,-40.5 7.238,-12.926 13.55,-28.379 23.891,-39.123 6.51,-6.765 15.212,-11.809 24.168,-14.523 15.506,-4.698 32.9,-4.077 47.319,3.676 q 1.298,0.702 2.561,1.467 1.262,0.765 2.485,1.591 1.224,0.826 2.405,1.711 1.182,0.884 2.319,1.826 1.136,0.942 2.225,1.938 1.09,0.996 2.129,2.044 1.039,1.048 2.026,2.146 0.987,1.098 1.918,2.243 0.932,1.144 1.807,2.333 0.874,1.19 1.689,2.42 0.816,1.23 1.57,2.499 0.754,1.269 1.445,2.574 0.691,1.304 1.317,2.64 0.627,1.337 1.187,2.703 0.56,1.365 1.052,2.757 0.493,1.391 0.917,2.805 c 4.65,15.467 2.106,30.56 -3.694,45.322 25.393,23.748 51.762,46.541 77.554,69.871 9.021,8.16 18.306,16.101 26.994,24.616 -3.666,-21.434 -8.425,-43.187 -15.15,-63.868 q -1.178,-3.612 -2.429,-7.199 -1.25,-3.588 -2.572,-7.15 -1.322,-3.561 -2.715,-7.096 -1.392,-3.535 -2.855,-7.041 -1.464,-3.506 -2.996,-6.982 -1.533,-3.477 -3.135,-6.922 -1.602,-3.444 -3.272,-6.857 -1.67,-3.412 -3.409,-6.79 -1.738,-3.378 -3.543,-6.721 -1.805,-3.343 -3.677,-6.649 -1.872,-3.306 -3.809,-6.574 -1.938,-3.268 -3.94,-6.497 -2.002,-3.229 -4.069,-6.417 -2.066,-3.188 -4.196,-6.334 -2.129,-3.146 -4.321,-6.249 -2.192,-3.103 -4.446,-6.162 -2.253,-3.058 -4.568,-6.071 -2.314,-3.013 -4.688,-5.979 -2.374,-2.967 -4.807,-5.885 -2.432,-2.918 -4.923,-5.787 -2.49,-2.869 -5.038,-5.687 -2.547,-2.819 -5.15,-5.586 -2.603,-2.768 -5.261,-5.482 -2.658,-2.715 -5.37,-5.376 -2.711,-2.661 -5.475,-5.267 -2.764,-2.607 -5.58,-5.157 -2.816,-2.551 -5.682,-5.045 -2.866,-2.494 -5.781,-4.93 -2.915,-2.436 -5.879,-4.813 -2.963,-2.378 -5.973,-4.695 -3.011,-2.318 -6.067,-4.575 -3.056,-2.257 -6.156,-4.453 c -43.758,-30.973 -93.124,-49.719 -145.748,-59.102 -22.434,-4 -45.518,-6.345 -68.32,-5.395 -20.25,1.166 -40.462,2.448 -60.453,6.063 q -3.694,0.682 -7.374,1.44 -3.68,0.758 -7.343,1.591 -3.663,0.834 -7.308,1.744 -3.645,0.909 -7.271,1.893 -3.625,0.985 -7.23,2.044 -3.604,1.059 -7.186,2.193 -3.582,1.133 -7.139,2.34 -3.558,1.207 -7.09,2.488 -3.531,1.28 -7.036,2.633 -3.505,1.354 -6.981,2.779 -3.476,1.425 -6.922,2.922 -3.445,1.497 -6.859,3.064 -3.415,1.568 -6.796,3.206 -3.38,1.638 -6.727,3.345 -3.346,1.708 -6.657,3.484 -3.31,1.776 -6.583,3.62 -3.273,1.845 -6.507,3.756 -3.235,1.912 -6.429,3.89 -3.194,1.977 -6.346,4.021 -3.152,2.043 -6.262,4.152 -3.11,2.108 -6.175,4.28 -3.065,2.172 -6.085,4.407 -3.02,2.235 -5.993,4.531 -2.973,2.297 -5.898,4.655 -2.925,2.358 -5.8,4.775 -2.876,2.418 -5.701,4.894 -2.824,2.477 -5.598,5.011 -2.773,2.535 -5.493,5.126 -2.72,2.591 -5.386,5.238 -2.666,2.647 -5.277,5.348 -2.611,2.702 -5.166,5.456 -2.554,2.755 -5.051,5.562 -2.29,2.572 -4.532,5.186 -2.242,2.614 -4.434,5.27 -2.193,2.655 -4.336,5.351 -2.143,2.695 -4.236,5.43 -2.093,2.735 -4.134,5.509 -2.041,2.773 -4.031,5.584 -1.99,2.811 -3.927,5.658 -1.937,2.848 -3.82,5.731 -1.884,2.883 -3.714,5.8 -1.83,2.917 -3.605,5.868 -1.775,2.951 -3.496,5.934 -1.72,2.984 -3.384,5.998 -1.665,3.015 -3.273,6.06 -1.608,3.046 -3.159,6.12 -1.551,3.075 -3.045,6.178 -1.494,3.102 -2.93,6.233 -1.436,3.13 -2.814,6.286 -1.377,3.156 -2.696,6.337 -1.318,3.182 -2.578,6.387 -1.259,3.205 -2.459,6.433 -1.199,3.228 -2.338,6.478 -1.14,3.25 -2.219,6.52 -1.078,3.271 -2.096,6.561 -1.018,3.29 -1.974,6.598 -0.957,3.308 -1.852,6.634 -0.894,3.325 -1.727,6.667 -0.833,3.341 -1.604,6.698 -0.771,3.356 -1.479,6.726 -0.708,3.37 -1.353,6.753 -0.646,3.383 -1.228,6.777 -0.583,3.394 -1.102,6.798 -0.519,3.405 -0.975,6.818 z"
       id="path2" />
    <path
       fill="#dcdcdc"
       d="m 787.759,469.416 c 5.553,-5.412 11.949,-9.87 17.72,-15.049 14.907,16.723 31.901,30.805 48.683,45.545 8.293,7.283 16.247,14.942 24.406,22.372 -1.165,17.041 -1.362,35.486 -5.409,52.106 -10.579,-16.83 -21.909,-33.512 -34.618,-48.806 -11.011,-13.249 -23.129,-25.563 -34.832,-38.193 -5.433,-5.863 -10.436,-12.216 -15.95,-17.975 z"
       id="path3" />
    <path
       fill="#073e62"
       d="m 508.83,289.839 q 62.003,57.91 122.655,117.232 13.991,-23.19 26.809,-47.049 c 6.348,-11.865 12.099,-24.17 19.304,-35.55 7.412,-11.708 17.197,-21.318 31.144,-24.354 q 1.123,-0.246 2.257,-0.435 1.135,-0.19 2.277,-0.322 1.142,-0.133 2.289,-0.209 1.148,-0.075 2.298,-0.093 1.149,-0.019 2.299,0.02 1.149,0.04 2.295,0.136 1.146,0.096 2.285,0.25 1.14,0.153 2.27,0.363 1.131,0.21 2.25,0.476 1.118,0.266 2.222,0.588 1.104,0.321 2.191,0.697 1.086,0.376 2.153,0.806 1.067,0.43 2.11,0.913 1.044,0.482 2.062,1.016 1.019,0.534 2.009,1.118 0.991,0.584 1.951,1.217 c 10.39,6.82 17.309,18.09 19.696,30.199 2.185,11.084 0,22.379 -5.327,32.266 -6.248,11.6 -18.359,25.493 -26.4,36.592 q -24.988,34.535 -49.042,69.727 -39.023,56.299 -76.635,113.55 c -19.777,30.118 -39.073,60.641 -59.209,90.507 10.799,18.93 23.12,36.903 35.02,55.14 l 44.53,69.089 c 9.358,14.572 19.909,29.158 27.907,44.501 -3.994,2.032 -8.39,3.446 -12.671,4.731 -37.59,-60.123 -77.479,-118.786 -114.616,-179.189 -11.353,-18.466 -21.218,-37.696 -31.914,-56.528 -8.183,-14.407 -17.118,-28.362 -25.145,-42.866 -11.103,6.754 -22.124,13.393 -33.703,19.317 q 59.466,87.792 115.888,177.57 l 33.865,52.629 c 8.624,13.154 17.72,25.944 25.111,39.859 -4.725,1.68 -9.694,2.619 -14.611,3.534 l -4.356,-6.48 c -17.562,-27.254 -34.519,-54.968 -51.635,-82.508 -9.732,-15.658 -18.685,-32.078 -30.315,-46.439 -11.574,17.715 -21.81,36.445 -32.809,54.538 -16.508,27.155 -33.636,54.022 -49.642,81.472 l -15.75,-3.877 90.299,-144.477 -18.012,-27.559 c -11.158,15.647 -20.756,32.494 -30.753,48.896 q -21.212,34.72 -43.28,68.902 c -9.334,14.709 -18.255,29.846 -28.515,43.926 -4.116,-1.533 -8.164,-3.308 -12.227,-4.979 3.877,-7.581 8.739,-14.729 13.317,-21.899 l 23.281,-36.136 q 35.174,-55.263 69.787,-110.878 l -50.05,-77.361 c -11.048,-17.381 -21.65,-35.054 -32.93,-52.287 -7.481,-11.428 -15.444,-22.551 -23.088,-33.873 l -47.865,-71.135 c -9.474,-14.012 -19.194,-28.073 -29.741,-41.297 -8.744,-10.962 -19.01,-20.92 -26.07,-33.128 -6.733,-11.639 -9.428,-25.446 -5.882,-38.583 3.093,-11.457 10.833,-21.78 21.219,-27.608 10.376,-5.823 22.932,-6.94 34.309,-3.635 9.148,2.658 16.966,7.749 23.299,14.827 7.958,8.895 12.502,20.331 18.331,30.626 q 16.507,28.556 32.318,57.504 l 70.728,-67.005 c 16.264,-15.41 33.064,-30.419 48.158,-46.995 z"
       id="path4" />
    <path
       fill="#fefefe"
       d="m 502.432,318.53 c 2.601,4.954 7.204,41.543 8.378,49.334 -6.257,4.664 -13.119,8.728 -19.671,12.978 8.097,1.62 16.301,2.813 24.42,4.345 l 1.872,8.318 c -7.338,9.88 -15.64,18.805 -23.63,28.135 -13.442,15.698 -26.808,31.378 -40.711,46.672 12.478,-7.031 23.853,-17.499 34.932,-26.496 25.923,-21.049 51.095,-42.979 76.611,-64.516 -18.814,-17.611 -34.026,-37.221 -48.546,-58.451 10.395,8.501 19.641,18.775 29.397,28.017 15.66,14.834 31.721,29.259 47.513,43.955 10.702,9.959 20.937,20.313 32.059,29.825 l -7.862,14.07 -76.387,132.693 c -9.679,16.831 -19.993,33.282 -29.536,50.188 q -37.44,-63.821 -73.135,-128.636 l -23.41,-41.768 c -5.475,-9.789 -11.197,-19.523 -15.82,-29.753 9.497,-7.913 18.226,-17.206 27.137,-25.793 l 49.355,-47.592 c 8.813,-8.536 17.275,-18.086 27.034,-25.525 z"
       id="path5" />
    <path
       fill="#dcdcdc"
       d="m 570,388.985 c 5.507,3.626 10.257,8.953 14.967,13.562 q 10.828,10.394 21.199,21.245 c -6.288,12.476 -13.952,25.079 -21.62,36.743 -9.13,-11.927 -19.409,-22.619 -29.235,-33.939 -3.209,-3.698 -8.6,-9.468 -7.959,-14.767 0.862,-7.138 16.806,-18.454 22.648,-22.844 z"
       id="path6" />
    <path
       fill="#fefefe"
       d="m 552.463,574.998 q 16.387,10.24 33.226,19.718 C 570.95,619.389 553.893,642.592 539,667.207 q -4.154,-7.536 -8.638,-14.88 l 10.105,-17.602 c 5.59,-9.633 11.161,-19.526 15.385,-29.847 -4.004,4.94 -7.28,10.5 -10.711,15.843 -5.676,8.84 -11.265,17.559 -17.72,25.857 -3.103,-4.587 -5.816,-9.404 -8.582,-14.198 q 16.112,-29.101 33.624,-57.382 z"
       id="path7" />
    <path
       fill="#fefefe"
       d="m 598.085,493.865 c 2.859,2.504 5.801,4.282 9.149,6.042 -1.322,3.061 -3.144,5.897 -4.837,8.763 3.969,2.675 7.953,5.112 12.126,7.453 l 2.411,-4.999 c -1.585,-0.973 -3.756,-2.072 -4.865,-3.606 -0.682,-0.944 -0.687,-1.057 -0.481,-2.131 0.546,-0.25 0.61,-0.321 1.295,-0.4 3.066,-0.35 6.106,2.299 8.377,4.01 q -2.536,4.202 -5.027,8.432 c 2.539,1.525 5.115,2.819 7.793,4.083 l 6.054,-8.821 7.803,4.64 c -6.499,9.979 -12.995,19.897 -19.826,29.656 -2.549,-1.137 -4.781,-2.46 -7.116,-3.972 2.759,-7.167 4.115,-4.679 8.341,-8.957 0.595,-0.602 0.39,-0.85 0.372,-1.631 -2.001,-2.853 -5.428,-4.59 -8.363,-6.341 l -8.492,13.433 -1.781,3.639 c 3.134,2.17 11.443,6.635 12.704,10.079 l -0.913,0.363 c -6.199,-0.484 -30.4,-18.131 -35.537,-22.875 4.761,2.161 13.133,9.192 18.399,7.897 5.194,-1.278 9.742,-10.176 12.556,-14.496 -3.489,-2.359 -6.808,-4.873 -10.121,-7.471 -2.56,4.737 -5.312,9.353 -8.058,13.982 -3.023,-1.794 -5.675,-3.696 -8.197,-6.145 q 0.505,-0.988 1.047,-1.957 c 1.688,-3.038 3.589,-2.73 6.529,-3.702 1.636,-0.541 2.234,-2.064 3.011,-3.477 l -4.591,-3.542 c 3.487,-5.945 6.653,-12.046 10.238,-17.949 z"
       id="path8" />
    <path
       fill="#fefefe"
       d="m 700.456,335.418 0.548,0.638 c -1.817,8.802 -31.737,53.171 -38.422,63.995 -9.846,15.943 -19.123,32.295 -29.265,48.047 l -0.484,-0.517 c 3.082,-8.288 8.138,-16.731 12.388,-24.475 9.919,-18.077 20.657,-35.75 30.977,-53.606 4.974,-8.608 11.078,-21.684 16.911,-29.125 1.736,-2.216 4.923,-3.589 7.347,-4.957 z"
       id="path9" />
    <path
       fill="#fefefe"
       d="m 295.954,338.266 c 0.218,0.116 0.447,0.213 0.653,0.348 2.08,1.357 3.698,4.278 5.007,6.354 6.609,10.474 12.558,21.474 18.644,32.258 q 15.174,26.867 30.036,53.908 c 4.445,8.092 19.054,32.728 20.796,40.306 -1.786,-2.277 -3.348,-4.725 -4.87,-7.185 -6.447,-10.421 -12.374,-21.249 -18.516,-31.857 L 318.43,382.055 303.639,356.442 c -2.572,-4.456 -5.793,-9.17 -7.712,-13.939 -0.614,-1.528 -0.34,-2.693 0.027,-4.237 z"
       id="path10" />
    <path
       fill="#fefefe"
       d="m 306.925,336.412 c 1.026,0.08 2.219,0.102 3.208,0.379 2.222,0.624 4.141,4.53 5.298,6.445 5.074,8.399 9.195,17.437 13.931,26.04 16.833,30.577 32.97,61.575 50.169,91.944 -8.755,-6.071 -62.921,-107.081 -72.606,-124.808 z"
       id="path11" />
    <path
       fill="#fefefe"
       d="m 710.905,338.447 0.366,0.405 c -0.233,5.94 -57.884,97.822 -65.708,109.935 l -0.333,-0.171 c 0.302,-4.743 47.225,-86.42 53.278,-95.567 3.616,-5.464 7.733,-10.033 12.397,-14.602 z"
       id="path12" />
    <path
       fill="#fefefe"
       d="m 720.462,343 0.289,0.362 c -0.131,7.913 -56.832,97.286 -64.736,109.763 l -0.151,-0.035 -0.319,-0.577 c 8.436,-17.757 18.738,-34.913 28.426,-52.027 l 17.819,-31.211 c 3.74,-6.45 7.336,-13.263 11.916,-19.151 2.008,-2.581 4.414,-4.851 6.756,-7.124 z"
       id="path13" />
    <path
       fill="#fefefe"
       d="m 323.671,340.817 c 0.622,0.238 0.557,0.198 1.143,0.48 3.196,1.536 4.847,3.631 6.701,6.585 4.941,7.87 8.793,16.712 13.119,24.957 l 27.348,51.965 c 6.313,11.935 15.09,23.108 19.703,35.865 -7.11,-4.958 -62.03,-106.805 -68.014,-119.852 z"
       id="path14" />
    <path
       fill="#fefefe"
       d="m 285.44,343.209 c 1.43,0.609 1.85,1.163 2.758,2.441 4.321,6.083 7.88,13.018 11.603,19.499 q 10.747,18.764 21.265,37.657 l 19.048,34.473 c 3.996,7.303 8.414,14.679 11.623,22.359 -0.196,-0.16 -0.41,-0.302 -0.59,-0.481 -4.866,-4.83 -13.691,-22.114 -17.689,-28.85 -15.744,-26.527 -33.149,-52.702 -46.273,-80.64 -1.009,-2.147 -1.509,-4.098 -1.745,-6.458 z"
       id="path15" />
    <path
       fill="#fefefe"
       d="m 734.416,340.461 0.384,0.899 c -6.696,17 -17.238,32.463 -26.635,48.049 -11.558,19.17 -22.887,38.473 -35.131,57.219 l -0.338,-0.09 c -0.114,-1.93 1.88,-5.166 2.797,-6.906 3.956,-7.507 8.791,-14.582 12.887,-22.042 11.09,-20.196 21.74,-40.652 33.89,-60.243 3.687,-5.943 7.758,-11.45 12.146,-16.886 z"
       id="path16" />
    <path
       fill="#fefefe"
       d="m 408.642,507.97 c 3.671,-0.059 7.229,0.615 10.791,1.419 -1.389,7.589 -5.436,13.96 -7.665,21.268 -2.964,-0.197 -5.742,-0.6 -8.648,-1.215 q -4.112,-0.669 -8.261,-1.056 c -0.798,-1.399 -1.981,-3.171 -2.326,-4.749 -0.282,-1.289 -0.052,-2.024 0.524,-3.165 2.9,-2.696 8.527,-2.334 12.344,-2.621 l 0.029,-0.512 0.059,-0.852 c 0.224,-3.685 0.952,-5.52 3.153,-8.517 z"
       id="path17" />
    <path
       fill="#fefefe"
       d="m 611.15,472.273 c 6.137,2.51 11.995,6.938 17.631,10.465 q 11.565,7.134 23.211,14.136 l -3.809,5.386 c -14.242,-6.71 -27.329,-15.872 -40.792,-23.988 1.142,-2.058 2.485,-4.02 3.759,-5.999 z"
       id="path18" />
    <path
       fill="#fefefe"
       d="m 572.783,537.248 c 12.727,6.485 24.96,14.785 37.249,22.118 -1.342,1.95 -2.377,4.169 -3.488,6.26 -11.151,-4.642 -26.639,-15.683 -37.133,-22.293 1.058,-2.057 2.246,-4.064 3.372,-6.085 z"
       id="path19" />
    <path
       fill="#fefefe"
       d="m 336.318,343.812 c 0.169,0.068 0.346,0.12 0.507,0.204 5.487,2.853 56.849,95.275 61.954,108.142 -5.377,-3.874 -55.214,-94.225 -62.461,-108.346 z"
       id="path20" />
    <path
       fill="#fefefe"
       d="m 426.146,498.325 c 0.874,0.111 1.612,0.201 2.429,0.573 4.316,1.966 7.917,12.059 9.884,16.406 l -10.756,5.889 c -2.315,1.061 -4.636,2.7 -6.836,4.012 -1.497,-5.356 -1.457,-10.643 -0.452,-16.086 0.789,-4.269 2.012,-8.238 5.731,-10.794 z"
       id="path21" />
    <path
       fill="#fefefe"
       d="m 413.419,472.909 c 1.851,0.869 2.369,3.119 3.059,4.891 q -19.763,11.519 -39.367,23.306 c -1.409,-1.121 -2.549,-2.674 -3.714,-4.042 13.402,-7.972 26.391,-16.558 40.022,-24.155 z"
       id="path22" />
    <path
       fill="#fefefe"
       d="m 742.286,345.401 0.492,0.85 c -0.766,11.533 -42.281,72.898 -50.189,85.617 -0.368,-0.239 -0.137,-0.045 -0.437,-0.794 5.606,-11.699 12.72,-22.269 19.241,-33.433 10.227,-17.51 20.082,-35.066 30.893,-52.24 z"
       id="path23" />
    <path
       fill="#fefefe"
       d="m 422.279,488.93 c 2.232,0.944 3.721,4.137 4.975,6.124 -7.808,1.576 -13.216,7.952 -19.757,8.873 -1.537,0.216 -3.41,0.293 -4.847,0.888 -2.503,1.037 -3.625,5.547 -4.515,7.872 -2.632,1.788 -5.017,2.477 -8.1,3.048 -0.904,-0.153 -1.932,-0.341 -2.776,-0.699 -1.176,-0.499 -1.513,-1.012 -1.948,-2.157 1.379,-3.116 32.091,-20.924 36.968,-23.949 z"
       id="path24" />
    <path
       fill="#fefefe"
       d="m 447.48,530.435 c 1.592,1.125 2.538,2.839 3.604,4.437 l -36.824,22.686 c -0.522,-0.099 -0.987,-0.421 -1.385,-0.759 -1,-0.849 -1.701,-2.036 -1.837,-3.329 4.04,-4.403 29.543,-18.819 36.442,-23.035 z"
       id="path25" />
    <path
       fill="#fefefe"
       d="m 452.458,541.382 c 0.921,0.153 1.546,0.263 2.363,0.755 0.781,0.471 0.61,0.61 0.794,1.429 -2.225,5.168 -28.825,19.218 -35.343,22.975 -0.231,-0.022 -0.466,-0.013 -0.692,-0.065 -1.325,-0.306 -2.489,-2.324 -3.261,-3.355 12.585,-6.264 23.896,-14.839 36.139,-21.739 z"
       id="path26" />
    <path
       fill="#fefefe"
       d="m 277.655,351.114 c 0.208,0.074 0.426,0.124 0.624,0.22 1.649,0.796 2.66,2.62 3.618,4.116 6.971,10.896 12.77,22.886 19.143,34.173 3.659,6.481 9.586,14.673 12.018,21.437 -4.996,-6.17 -9.234,-13.394 -13.645,-20.01 -4.6,-6.899 -23.256,-32.44 -21.758,-39.936 z"
       id="path27" />
    <path
       fill="#fefefe"
       d="m 603.079,482.874 c 4.546,0.263 37.046,20.129 41.329,24.098 l 0.018,2.295 c -0.138,0.058 -0.272,0.128 -0.415,0.174 -1.555,0.493 -3.212,-0.657 -4.536,-1.385 -4.468,-2.457 -34.567,-20.828 -35.83,-23.28 -0.303,-0.588 -0.378,-1.268 -0.566,-1.902 z"
       id="path28" />
    <path
       fill="#fefefe"
       d="m 441.334,520.461 c 1.177,1.08 2.076,2.606 2.996,3.917 -6.105,2.948 -14.944,9.438 -21.823,8.17 -0.163,-1.219 -0.214,-2.01 0.119,-3.2 0.948,-0.748 1.41,-0.867 2.61,-0.941 0.725,0.937 0.365,1.918 0.288,3.07 l 0.718,0.621 0.836,-0.29 q 0.303,-1.239 0.674,-2.459 c 1.101,-3.543 10.187,-7.166 13.582,-8.888 z"
       id="path29" />
    <path
       fill="#fefefe"
       d="m 413.761,536.484 c 1.832,-0.016 3.638,-0.227 5.181,0.876 l -0.216,1.041 c -2.441,2.537 -6.316,4.325 -9.363,6.123 -0.956,0.615 -1.456,0.845 -2.596,0.901 -1.046,-0.638 -1.357,-1.025 -1.871,-2.133 0.933,-3.265 5.994,-5.21 8.865,-6.808 z"
       id="path30" />
    <path
       fill="#fefefe"
       d="m 396.122,529.969 c 3.383,0 9.574,-0.259 12.261,1.946 l 0.064,0.923 -1.292,1.181 c -2.137,1.164 -4.351,2.139 -6.567,3.139 z"
       id="path31" />
    <path
       fill="#fefefe"
       d="m 511.479,179.723 c 3.931,3.042 7.907,18.864 9.444,24.203 8.558,-1.084 17.457,-0.986 26.091,-1.549 -5.991,6.613 -13.565,11.578 -20.927,16.523 3.271,9.004 6.226,17.968 8.792,27.201 -7.616,-4.59 -14.821,-10.029 -22.062,-15.184 l -1.018,-0.374 c -2.79,0.744 -18.782,13.398 -22.418,16.068 2.518,-9.365 5.44,-18.323 8.922,-27.375 -7.551,-4.564 -14.168,-10.377 -20.707,-16.247 8.687,-0.068 17.406,0.394 26.097,0.518 1.529,-8.079 4.954,-16.089 7.786,-23.784 z"
       id="path32" />
    <path
       fill="#073e62"
       d="m 232.065,537.783 c 4.223,5.726 7.57,14.784 9.87,21.453 l -6.082,0.944 c 2.886,5.812 10.155,13.434 11.86,18.587 0.494,1.494 0.215,2.276 -0.512,3.61 -2.695,2.006 -5.885,1.456 -9.062,1.338 3.968,5.487 14.889,14.188 15.53,20.705 -0.296,0.733 -0.356,1.321 -1.046,1.782 -3.176,2.119 -8.782,0.581 -12.266,0.018 4.653,4.465 18.01,13.126 19.28,19.176 -0.172,0.612 -0.205,1.234 -0.696,1.68 -3.446,3.133 -12.882,1.763 -17.16,1.247 3.311,2.457 6.798,4.327 10.392,6.329 3.202,1.783 9.908,5.139 10.43,9.186 0.186,1.447 -0.481,2.723 -1.523,3.68 -5.071,4.659 -16.769,3.192 -23.227,3.044 l 0.132,17.294 q 29.602,5.335 59.505,8.578 l -0.091,-7.421 c -2.96,-0.082 -5.953,-0.109 -8.904,-0.356 -4.114,-0.344 -9.468,-1.242 -12.233,-4.51 -0.316,-0.923 -0.437,-1.422 -0.243,-2.409 1.175,-5.985 13.075,-10.99 17.91,-13.743 -4.655,0.406 -10.254,1.048 -14.487,-1.284 -0.424,-0.605 -0.882,-0.95 -0.838,-1.733 0.24,-4.336 11.526,-12.313 15.108,-15.473 -2.021,0.096 -5.122,0.602 -6.926,-0.453 -1.065,-0.623 -1.813,-1.467 -1.997,-2.727 -0.732,-5.014 9.596,-14.982 12.676,-18.684 -2.477,-0.063 -5.177,0.113 -7.552,-0.642 l -0.361,-0.7 c 1.516,-6.239 6.944,-12.786 10.409,-18.136 l -5.987,-1.447 c 2.814,-6.207 5.773,-12.392 9.173,-18.301 q 5.112,9.243 9.211,18.978 c -2.217,0.137 -4.43,0.436 -6.637,0.684 3.048,5.605 8.233,10.724 10.357,16.719 0.352,0.994 0.51,1.175 0.039,2.154 -2.388,0.972 -5.257,0.819 -7.812,0.945 3.744,4.118 12.22,12.133 13.256,17.33 0.298,1.493 -0.052,2.125 -0.791,3.393 -2.831,1.84 -5.591,1.173 -8.758,0.835 3.461,2.9 14.083,10.508 15.36,14.32 0.397,1.187 0,1.618 -0.58,2.582 -3.921,2.576 -9.473,1.693 -13.966,1.61 3.956,3.828 15.408,9.563 17.123,14.417 0.438,1.238 0.331,1.534 -0.163,2.647 -4.946,4.234 -15.48,4 -21.703,4.133 l -0.097,7.725 c 15.924,1.896 31.824,3.573 47.854,4.189 l 0.161,-8.114 c -4.178,0.178 -10.812,0.967 -14.443,-1.208 -1.204,-0.721 -1.404,-1.345 -1.759,-2.642 1.532,-4.552 9.983,-7.369 13.597,-10.579 0.158,-0.141 0.313,-0.285 0.469,-0.428 -2.465,-0.018 -6.575,0.355 -8.8,-0.764 -1.219,-0.614 -1.324,-0.88 -1.743,-2.076 0.96,-5.402 8.014,-8.013 10.935,-12.28 -0.72,-0.686 -3.267,-0.607 -4.35,-0.696 -1.158,-0.82 -1.306,-0.953 -1.86,-2.252 0.519,-4.825 5.59,-7.783 7.55,-12.05 l -0.287,-0.662 c -1.325,-0.473 -2.607,-0.789 -3.583,-1.862 -0.046,-4.6 4.832,-7.963 6.669,-11.919 1.019,-2.193 -0.411,-2.774 -1.012,-4.693 -0.995,-3.178 1.593,-6.591 3.089,-9.205 1.009,1.872 2.703,4.314 3.136,6.376 0.381,1.81 -0.791,3.125 -1.854,4.401 -0.125,0.149 -0.252,0.296 -0.378,0.444 1.979,5.335 6.073,9.937 8.325,15.352 l -6.306,1.049 c 2.232,2.892 7.937,7.769 8.602,11.198 0.289,1.488 0.029,1.826 -0.661,3.088 -1.73,1.325 -3.931,1.335 -6.032,1.608 3.273,2.755 8.921,6.498 10.872,10.209 0.613,1.166 0.547,1.773 0.233,3.008 -1.202,1.288 -2.858,1.301 -4.512,1.563 l -6.584,-0.469 c 4.256,3.095 11.788,5.974 13.84,11.13 -0.137,0.763 -0.051,1.292 -0.668,1.837 -3.128,2.767 -10.191,2.518 -14.12,2.587 l -0.226,8.369 c 10.092,1.421 20.369,1.716 30.541,2.21 q 32.13,1.823 64.296,0.85 c -5.485,9.799 -11.929,19.137 -17.955,28.617 l -32.242,50.844 q -16.724,26.577 -33.827,52.912 c -5.757,8.928 -10.999,18.141 -17.391,26.645 q -1.424,-0.605 -2.832,-1.246 C 277.082,806.657 203.095,731.264 173.187,650.815 c 17.492,6.024 35.261,10.583 53.337,14.494 0.222,-4.898 0.198,-9.814 0.246,-14.717 -3.757,0.037 -7.527,0.114 -11.283,0.037 -3.627,-0.075 -10.199,-1.068 -12.578,-4.205 -0.774,-1.021 -1.157,-1.929 -0.895,-3.236 1.016,-5.055 11.858,-8.816 16.022,-11.164 1.808,-1.02 3.473,-2.355 5.118,-3.616 -4.635,0.422 -11.633,1.226 -15.889,-0.904 -1.157,-0.58 -1.477,-1.091 -1.923,-2.261 0.797,-5.201 15.084,-15.183 19.54,-18.882 -2.948,0.399 -6.015,0.793 -8.978,0.34 -2.032,-0.311 -3.076,-0.799 -4.274,-2.479 -0.423,-4.98 10.987,-14.893 14.258,-19.591 -1.708,-0.1 -4.232,-0.065 -5.719,-0.977 -1.212,-0.743 -1.916,-1.647 -2.156,-3.053 -0.92,-5.39 8.125,-16.293 11.173,-20.866 -2.063,-0.196 -4.48,-0.206 -6.024,-1.667 1.588,-6.752 5.925,-14.002 8.903,-20.285 z"
       id="path33" />
    <path
       fill="#073e62"
       d="m 792.051,535.297 c 4.527,5.205 7.556,17.546 9.906,24.351 l -7.626,-0.157 c 3.989,8.309 9.298,16.054 14.26,23.808 -2.718,1.133 -5.558,2.067 -8.327,3.075 1.253,2.335 2.578,4.648 4.37,6.619 2.261,2.487 5.823,4.869 7.46,7.775 0.679,1.204 0.563,1.759 0.229,3.05 -2.652,2.832 -6.523,3.109 -10.156,3.882 4.504,6.31 11.439,8.493 14.622,12.854 0.785,1.076 0.81,1.639 0.677,2.924 -2.532,3.926 -9.935,5.232 -14.173,6.239 5.107,5.248 15.7,7.604 19.045,13.8 -0.048,1.35 -0.055,1.817 -0.951,2.932 -3.675,4.573 -17.994,4.954 -23.394,5.271 l -0.078,12.129 c 17.937,-4.072 35.731,-8.677 53.642,-12.794 -33.704,83.758 -102.994,154.395 -184.958,191.827 l -59.485,-91.32 c -14.399,-22.48 -27.917,-45.386 -43.479,-67.112 31.952,2.256 64.083,0.287 95.94,-2.533 l -0.191,-8.981 c -6.615,-0.726 -11.477,-1.511 -16.592,-6.231 2.378,-1.01 4.585,-2.336 6.826,-3.614 2.407,-1.724 4.57,-3.492 6.704,-5.544 -3.218,-1.482 -6.748,-2.474 -10.111,-3.599 3.601,-3.415 7.135,-6.662 10.396,-10.428 -1.814,-0.842 -3.033,-1.343 -3.973,-3.159 -0.053,-4.59 4.9,-8.965 7.632,-12.351 l -6.19,-1.599 c 1.811,-2.208 4.372,-4.617 5.49,-7.249 0.079,-0.185 0.145,-0.375 0.221,-0.561 1.994,-4.852 1.69,-10.014 3.882,-15.435 1.074,1.851 2.677,4.399 3.009,6.511 0.379,2.416 -0.991,4.344 0.05,6.775 1.26,2.939 5.579,6.634 5.474,9.787 -1.274,0.665 -1.968,0.958 -2.719,2.244 -0.284,4.486 4.81,9.366 7.497,12.566 -2.306,0.577 -4.646,1.042 -6.968,1.549 2.739,3.113 7.016,5.807 8.771,9.571 10e-4,0.82 0.166,1.335 -0.324,2.044 -1.554,2.248 -5.27,2.688 -7.767,3.316 3.243,2.874 7.73,5.033 10.509,8.301 0.923,1.084 0.994,1.594 0.877,2.974 -2.679,3.052 -9.281,3.409 -13.098,3.777 l 0.018,8.652 c 16.476,-0.798 32.718,-2.855 49.059,-4.986 0.239,-2.336 0.344,-4.692 0.495,-7.035 -9.433,-0.398 -17.744,-1.222 -25.312,-7.378 6.025,-4.975 13.037,-8.468 19.009,-13.481 -5.363,-1.246 -9.574,-2.606 -13.864,-6.274 5.473,-4.257 10.521,-8.49 15.005,-13.801 q -2.143,-0.203 -4.278,-0.48 c -1.856,-0.248 -3.064,-0.495 -4.273,-2.07 -0.009,-4.043 6.165,-8.446 8.401,-12.034 1.241,-1.992 1.898,-4.141 2.551,-6.37 -1.756,-0.219 -4.625,-0.026 -5.969,-1.157 0.066,-3.203 8.625,-16.039 10.618,-20.402 -2.08,-0.178 -4.336,-0.118 -6.18,-1.174 -0.142,-1.529 0.749,-2.538 1.484,-3.853 3.469,-6.203 5.794,-11.085 7.731,-17.97 2.111,8.452 5.339,14.856 10.379,21.921 -2.346,0.675 -4.806,1.068 -7.199,1.55 3.273,6.878 7.991,12.908 11.23,19.803 -2.554,0.847 -4.94,1.19 -7.599,1.488 4.189,6.172 8.462,12.309 12.336,18.685 -3.543,1.292 -6.982,1.86 -10.695,2.432 3.824,3.728 10.003,7.228 12.735,11.76 0.85,1.409 0.8,2.348 0.371,3.88 -3.007,3.384 -8.856,3.463 -13.096,4.028 6.503,5.269 14.311,7.916 19.892,14.397 -3.006,1.86 -5.931,3.466 -9.398,4.335 -3.389,0.849 -9.511,0.545 -12.313,2.289 -1.007,0.627 -1.632,1.554 -1.935,2.686 0.24,0.55 0.283,0.97 0.832,1.292 5.342,3.141 47.911,-5.803 56.513,-7.577 l -0.007,-13.652 c -6.544,-0.584 -16.23,-0.808 -21.725,-4.846 -1.25,-0.918 -1.604,-1.759 -1.805,-3.251 3.058,-4.773 13.668,-8.75 18.949,-14.713 -2.111,-0.351 -4.236,-0.788 -6.322,-1.263 -2.507,-0.57 -4.719,-1.309 -6.129,-3.583 -0.583,-5.011 6.945,-8.968 10.064,-12.048 1.524,-1.504 2.724,-3.396 3.925,-5.161 -2.342,-0.425 -5.143,-0.7 -7.315,-1.673 -1.422,-0.636 -2.377,-1.456 -2.908,-2.941 0.227,-3.805 5.751,-7.598 8.109,-10.558 1.598,-2.007 2.815,-4.284 4.036,-6.532 -3.028,-0.745 -6.005,-1.672 -8.991,-2.566 5.64,-7.13 9.802,-14.776 13.709,-22.938 l -6.828,-0.288 c 3.536,-8.022 6.418,-16.321 9.761,-24.427 z"
       id="path34" />
    <path
       fill="#073e62"
       d="m 510.686,754.294 c 7.099,7.136 15.716,24.211 21.43,33.346 q 26.157,41.029 51.45,82.596 c -23.322,3.773 -46.247,6.603 -69.903,6.831 -24.618,-0.242 -48.382,-2.294 -72.666,-6.317 3.511,-8.976 9.993,-16.545 14.882,-24.791 q 13.542,-23.154 27.739,-45.913 c 9.351,-15.112 18.859,-29.97 27.068,-45.752 z"
       id="path35" />
    <path
       fill="#fefefe"
       d="m 510.815,803.23 c 1.355,0.234 2.658,0.347 3.712,1.308 1.541,1.405 1.043,4.87 1.019,6.775 1.182,-0.925 2.388,-1.866 3.661,-2.662 1.155,-0.723 2.597,-1.315 3.972,-1.016 0.277,0.408 0.297,0.298 0.211,0.875 -0.598,4.049 -5.249,6.677 -8.323,8.707 0.346,5.523 0.227,11.098 0.245,16.632 q 7.078,-3.917 14.01,-8.086 c 0.285,-2.251 0.523,-4.545 0.981,-6.767 0.451,-2.194 1.086,-3.73 3.039,-4.993 l 0.913,0.36 c 1.358,2.484 1.099,5.244 0.776,7.932 1.353,-0.543 2.779,-1.199 4.189,-1.569 1.2,-0.315 2.271,-0.377 3.388,0.232 l 0.201,0.969 c -1.381,2.748 -3.666,3.881 -6.196,5.39 0.416,0.171 0.834,0.34 1.243,0.528 2.418,1.109 6.11,2.773 7.107,5.41 -0.264,0.175 -0.511,0.378 -0.791,0.526 -3.199,1.685 -10.051,-2.053 -12.905,-3.462 -4.215,3.344 -8.824,5.769 -13.577,8.232 5.154,2.686 10.179,5.613 15.229,8.487 3.037,-1.754 6.231,-3.731 9.881,-3.436 1.206,0.097 1.24,0.003 2.046,0.972 -0.047,0.165 -0.072,0.339 -0.142,0.496 -1.018,2.298 -4.976,3.651 -7.137,4.671 1.774,1.047 4.572,2.34 5.654,4.138 0.602,1 0.514,1.424 0.206,2.432 -3.646,1.703 -4.784,-2.091 -7.979,-1.408 -0.058,1.859 -0.111,3.752 -0.39,5.593 -0.247,1.632 -0.696,2.429 -2.019,3.385 -0.244,-0.192 -0.517,-0.353 -0.733,-0.576 -2.271,-2.345 -2.169,-8.966 -2.415,-12.109 l -14.774,-8.313 q 0.05,9.194 0.208,18.387 c 2.599,1.333 6.369,3.27 8.037,5.712 0.618,0.904 0.521,1.071 0.294,2.069 l -1.301,0.676 c -2.074,-0.066 -4.335,-1.586 -6.173,-2.516 l -0.567,0.2 -0.308,3.628 c -0.212,1.407 -0.398,2.371 -1.064,3.657 l -0.981,0.221 c -0.494,-0.252 -0.606,-0.268 -1.048,-0.729 -2.094,-2.183 -1.964,-5.348 -1.92,-8.119 -1.631,1.136 -3.859,3 -5.975,2.821 -0.743,-0.063 -0.544,-0.159 -1.043,-0.887 0.132,-0.709 0.125,-0.831 0.424,-1.576 1.103,-2.745 4.261,-4.195 6.747,-5.34 0.047,-5.873 -0.295,-11.77 -0.506,-17.639 l -14.143,8.568 q -0.124,1.496 -0.311,2.986 c -0.345,2.675 -1.083,7.21 -3.262,8.89 l -0.674,-0.255 c -2.012,-2.753 -1.676,-5.534 -1.612,-8.78 -0.894,0.423 -1.789,0.855 -2.701,1.239 -1.482,0.623 -2.503,0.958 -4.064,0.321 l -0.361,-0.942 c 0.945,-2.854 3.148,-3.864 5.551,-5.307 -1.376,-0.813 -2.849,-1.607 -4.136,-2.555 -1.086,-0.801 -1.947,-1.57 -2.177,-2.952 l 0.743,-0.636 c 3.968,-0.212 6.762,1.221 10.318,2.777 q 7.688,-3.986 15.304,-8.106 l -14.31,-8.268 c -1.991,1.16 -4.041,2.468 -6.171,3.347 -1.479,0.611 -3.62,1.326 -5.154,0.664 l -0.24,-0.968 c 1.012,-3.005 2.523,-3.946 5.178,-5.621 -1.367,-1.133 -2.91,-2.354 -4.094,-3.681 -0.911,-1.02 -1.625,-2.031 -1.585,-3.444 l 0.928,-0.55 c 2.384,0.066 4.344,1.253 6.448,2.273 0.108,-1.854 0.123,-3.99 0.707,-5.768 0.354,-1.077 0.602,-1.484 1.666,-1.952 0.154,0.075 0.32,0.128 0.462,0.223 2.727,1.835 3.112,6.994 3.441,9.993 q 7.297,4.496 14.808,8.624 l -10e-4,-15.764 c -2.942,-2.194 -6.859,-5.135 -8.103,-8.705 -0.332,-0.953 -0.299,-0.543 0.166,-1.532 2.639,-0.428 5.832,2.346 7.901,3.773 0.033,-2.703 0.218,-5.41 0.352,-8.11 z"
       id="path36" />
    <path
       fill="#073e62"
       d="m 529.865,709.926 c 5.335,5.84 9.273,12.727 13.516,19.36 l 15.35,23.572 q 22.541,34.474 44.549,69.291 l 16.289,25.576 c 1.747,2.741 3.898,5.23 5.612,7.988 0.724,1.164 1.464,1.994 1.128,3.346 l -1.447,0.554 -10.698,3.317 c -17.395,-31.072 -33.972,-62.592 -51.532,-93.593 l -19.484,-33.888 c -4.643,-8.091 -10.072,-16.757 -13.283,-25.523 z"
       id="path37" />
    <path
       fill="#073e62"
       d="m 484.866,721.456 c -0.912,6.897 -34.893,66.926 -40.391,77.049 -11.744,21.623 -22.942,43.469 -35.213,64.808 -3.094,-1.009 -6.136,-2.17 -9.188,-3.298 -1.234,-0.5 -1.767,-0.552 -2.536,-1.668 0.309,-1.815 6.524,-9.981 8.025,-12.394 q 24.677,-39.996 49.817,-79.704 c 9.553,-15.054 18.702,-30.588 29.486,-44.793 z"
       id="path38" />
    <path
       fill="#65c7d3"
       d="m 285.12,466.29 c 8.676,4.201 33.577,28.823 42.246,36.818 l -12.596,10.811 c -1.062,-0.046 -1.887,-0.704 -2.689,-1.327 -4.7,-3.652 -9.013,-7.949 -13.501,-11.877 l -25.793,-22.163 q 6.08,-6.218 12.333,-12.262 z"
       id="path39" />
    <path
       fill="#fefefe"
       d="m 296.962,485.576 c 6.492,3.093 14.895,11.034 19.598,16.516 0.252,1.524 -0.446,1.969 -1.293,3.216 l -1.235,0.102 c -4.018,-1.848 -15.872,-11.715 -17.491,-15.762 -0.635,-1.586 -0.051,-2.55 0.421,-4.072 z"
       id="path40" />
    <path
       fill="#fefefe"
       d="m 285.148,474.495 c 3.004,2.395 6.191,4.559 9.334,6.766 l -3.606,4.159 c -3.259,-2.463 -6.559,-4.768 -9.996,-6.975 1.373,-1.365 2.84,-2.644 4.268,-3.95 z"
       id="path41" />
    <path
       fill="#073e62"
       d="m 464.361,600.886 c 8.179,7.038 42.971,68.015 49.048,80.839 -3.162,-1.626 -6.645,-8.617 -8.659,-11.662 -14.699,-22.232 -28.952,-45.066 -40.389,-69.177 z"
       id="path42" />
  </g>
  <g
     id="g45"
     transform="translate(-119.50022,-119.34509)">
    <path
       fill="#65c7d3"
       d="m 505.875,146.752 c 22.802,-0.95 45.886,1.395 68.32,5.395 52.624,9.383 101.99,28.129 145.748,59.102 q 3.1,2.196 6.156,4.453 3.056,2.257 6.067,4.575 3.01,2.317 5.973,4.695 2.964,2.377 5.879,4.813 2.915,2.436 5.781,4.93 2.866,2.494 5.682,5.045 2.816,2.55 5.58,5.157 2.764,2.606 5.475,5.267 2.712,2.661 5.37,5.376 2.658,2.714 5.261,5.482 2.603,2.767 5.15,5.586 2.548,2.818 5.038,5.687 2.491,2.869 4.923,5.787 2.433,2.918 4.807,5.885 2.374,2.966 4.688,5.979 2.315,3.013 4.568,6.071 2.254,3.059 4.446,6.162 2.192,3.103 4.321,6.249 2.13,3.146 4.196,6.334 2.067,3.188 4.069,6.417 2.002,3.229 3.94,6.497 1.937,3.268 3.809,6.574 1.871,3.306 3.677,6.649 1.805,3.343 3.543,6.721 1.738,3.378 3.409,6.79 1.67,3.413 3.272,6.857 1.602,3.445 3.135,6.922 1.532,3.476 2.995,6.982 1.464,3.506 2.856,7.041 1.393,3.535 2.715,7.096 1.322,3.562 2.572,7.15 1.251,3.587 2.429,7.199 c 6.725,20.681 11.484,42.434 15.15,63.868 -8.688,-8.515 -17.973,-16.456 -26.994,-24.616 -25.792,-23.33 -52.161,-46.123 -77.554,-69.871 5.8,-14.762 8.344,-29.855 3.694,-45.322 q -0.424,-1.414 -0.917,-2.805 -0.492,-1.392 -1.052,-2.757 -0.56,-1.366 -1.187,-2.703 -0.626,-1.336 -1.317,-2.64 -0.691,-1.305 -1.445,-2.574 -0.754,-1.269 -1.57,-2.499 -0.815,-1.23 -1.689,-2.419 -0.875,-1.19 -1.807,-2.334 -0.931,-1.145 -1.918,-2.243 -0.987,-1.098 -2.026,-2.146 -1.039,-1.048 -2.128,-2.044 -1.09,-0.996 -2.226,-1.938 -1.137,-0.942 -2.319,-1.826 -1.181,-0.885 -2.405,-1.711 -1.223,-0.826 -2.485,-1.591 -1.263,-0.765 -2.561,-1.467 c -14.419,-7.753 -31.813,-8.374 -47.319,-3.676 -8.956,2.714 -17.658,7.758 -24.168,14.523 -10.341,10.744 -16.653,26.197 -23.891,39.123 -7.571,13.52 -15.43,26.852 -22.777,40.5 -21.264,-20.886 -43.165,-41.186 -64.744,-61.75 -15.628,-14.893 -30.843,-30.212 -46.835,-44.719 -2.834,-2.462 -5.506,-5.122 -8.213,-7.723 q -37.032,36.256 -74.52,72.041 c -13.585,13.144 -26.246,27.381 -40.981,39.278 -9.342,-14.416 -17.838,-29.676 -26.344,-44.601 -5.511,-9.672 -10.538,-19.923 -17.79,-28.44 q -1.761,-2.103 -3.717,-4.025 -1.957,-1.922 -4.092,-3.644 -2.134,-1.722 -4.426,-3.229 -2.292,-1.506 -4.72,-2.782 -1.348,-0.701 -2.729,-1.336 -1.381,-0.634 -2.791,-1.2 -1.411,-0.566 -2.847,-1.062 -1.437,-0.496 -2.896,-0.921 -1.459,-0.425 -2.937,-0.777 -1.478,-0.353 -2.972,-0.633 -1.493,-0.28 -2.999,-0.486 -1.506,-0.206 -3.019,-0.338 -1.514,-0.132 -3.033,-0.19 -1.518,-0.058 -3.038,-0.041 -1.52,0.017 -3.036,0.109 -1.517,0.091 -3.028,0.257 -1.511,0.166 -3.011,0.406 -1.501,0.239 -2.988,0.552 -1.487,0.313 -2.957,0.699 -1.47,0.386 -2.919,0.843 -1.35,0.45 -2.677,0.965 -1.327,0.515 -2.628,1.094 -1.3,0.579 -2.57,1.221 -1.271,0.642 -2.509,1.345 -1.237,0.703 -2.439,1.465 -1.202,0.763 -2.365,1.583 -1.163,0.82 -2.285,1.696 -1.122,0.877 -2.2,1.806 -1.078,0.93 -2.109,1.911 -1.031,0.981 -2.013,2.012 -0.982,1.03 -1.913,2.107 -0.93,1.077 -1.807,2.198 -0.877,1.121 -1.699,2.284 -0.821,1.162 -1.584,2.364 -0.764,1.201 -1.468,2.438 -0.704,1.237 -1.347,2.507 c -8.887,17.867 -6.669,34.177 -0.607,52.437 -10.788,11.038 -22.409,21.223 -33.668,31.77 -13.417,12.569 -26.533,25.461 -40.004,37.972 -9.408,8.737 -19.329,16.725 -28.137,26.112 q 0.456,-3.413 0.975,-6.818 0.519,-3.404 1.102,-6.798 0.582,-3.394 1.228,-6.777 0.645,-3.383 1.353,-6.753 0.708,-3.37 1.479,-6.727 0.771,-3.356 1.604,-6.697 0.833,-3.342 1.727,-6.667 0.895,-3.326 1.852,-6.634 0.956,-3.308 1.974,-6.598 1.018,-3.29 2.096,-6.561 1.079,-3.27 2.219,-6.52 1.139,-3.25 2.338,-6.478 1.2,-3.228 2.459,-6.433 1.26,-3.205 2.578,-6.387 1.319,-3.181 2.696,-6.337 1.378,-3.156 2.814,-6.286 1.436,-3.131 2.93,-6.233 1.494,-3.103 3.045,-6.178 1.551,-3.074 3.159,-6.12 1.608,-3.045 3.273,-6.06 1.664,-3.014 3.384,-5.998 1.721,-2.983 3.496,-5.934 1.775,-2.951 3.605,-5.868 1.83,-2.917 3.714,-5.8 1.883,-2.883 3.82,-5.731 1.937,-2.847 3.927,-5.658 1.99,-2.811 4.031,-5.584 2.041,-2.774 4.134,-5.509 2.093,-2.735 4.236,-5.43 2.143,-2.696 4.336,-5.351 2.192,-2.656 4.434,-5.27 2.242,-2.614 4.532,-5.186 2.497,-2.807 5.051,-5.562 2.555,-2.754 5.166,-5.456 2.611,-2.701 5.277,-5.348 2.666,-2.647 5.386,-5.238 2.72,-2.591 5.493,-5.126 2.774,-2.534 5.598,-5.011 2.825,-2.476 5.701,-4.894 2.875,-2.417 5.8,-4.775 2.925,-2.358 5.898,-4.655 2.973,-2.297 5.993,-4.531 3.02,-2.235 6.085,-4.407 3.065,-2.172 6.175,-4.28 3.11,-2.109 6.262,-4.152 3.152,-2.044 6.346,-4.021 3.194,-1.978 6.429,-3.89 3.234,-1.911 6.507,-3.756 3.273,-1.844 6.583,-3.62 3.311,-1.776 6.657,-3.484 3.347,-1.707 6.728,-3.345 3.38,-1.638 6.795,-3.206 3.414,-1.567 6.859,-3.064 3.446,-1.497 6.922,-2.922 3.476,-1.425 6.981,-2.779 3.505,-1.353 7.036,-2.633 3.532,-1.281 7.09,-2.488 3.557,-1.207 7.139,-2.34 3.582,-1.134 7.186,-2.193 3.605,-1.059 7.23,-2.044 3.626,-0.984 7.271,-1.893 3.645,-0.91 7.308,-1.744 3.663,-0.833 7.343,-1.591 3.68,-0.758 7.374,-1.44 c 19.991,-3.615 40.203,-4.897 60.453,-6.063 z m -2.182,56.755 c -8.691,-0.124 -17.41,-0.586 -26.097,-0.518 6.539,5.87 13.156,11.683 20.707,16.247 -3.482,9.052 -6.404,18.01 -8.922,27.375 3.636,-2.67 19.628,-15.324 22.418,-16.068 l 1.018,0.374 c 7.241,5.155 14.446,10.594 22.062,15.184 -2.566,-9.233 -5.521,-18.197 -8.792,-27.201 7.362,-4.945 14.936,-9.91 20.927,-16.523 -8.634,0.563 -17.533,0.465 -26.091,1.549 -1.537,-5.339 -5.513,-21.161 -9.444,-24.203 -2.832,7.695 -6.257,15.705 -7.786,23.784 z"
       id="path43" />
    <path
       fill="#fefefe"
       d="m 402.549,237.4 c 3.36,4.95 5.075,10.873 6.982,16.491 l 18.128,0.187 c -5.133,3.518 -10.516,6.745 -15.778,10.074 q 3.103,9.284 6.075,18.611 c -4.806,-3.339 -9.487,-6.898 -14.213,-10.353 l -0.527,-0.241 c -4.417,-0.18 -12.023,7.238 -15.466,10.068 1.525,-5.913 3.26,-11.685 5.139,-17.494 -4.859,-3.83 -9.919,-7.421 -14.801,-11.231 q 9.284,-0.047 18.563,-0.325 c 1.73,-5.339 3.558,-10.682 5.898,-15.787 z"
       id="path44" />
    <path
       fill="#fefefe"
       d="m 621.191,237.366 c 3.741,3.71 5.258,11.595 6.793,16.558 l 17.713,0.004 q -7.082,5.465 -14.546,10.395 2.8,8.443 5.877,16.79 c -5.19,-2.816 -10.089,-5.929 -15.017,-9.17 -5.29,1.977 -10.084,6.328 -14.543,9.737 2.058,-5.653 3.424,-11.556 4.797,-17.403 -4.882,-3.887 -10.364,-7.093 -15.42,-10.77 q 9.259,-0.027 18.517,0.068 c 2.129,-5.304 3.903,-10.822 5.829,-16.209 z"
       id="path45" />
  </g>
</svg>
