<?xml version="1.0" encoding="utf-8" ?>
<svg xmlns="http://www.w3.org/2000/svg" xmlns:xlink="http://www.w3.org/1999/xlink" width="1024" height="1024">
	<g>
		<path fill="#073E62" d="M497.86 119.721C514.688 118.707 532.072 119.901 548.829 121.44C634.297 129.286 710.528 163.671 774.656 220.418Q778.199 223.61 781.664 226.888Q785.129 230.165 788.513 233.524Q791.898 236.884 795.201 240.325Q798.503 243.765 801.722 247.285Q804.94 250.804 808.073 254.4Q811.205 257.996 814.25 261.667Q817.295 265.337 820.25 269.081Q823.206 272.824 826.07 276.637Q828.934 280.45 831.705 284.332Q834.476 288.213 837.152 292.16Q839.829 296.108 842.409 300.118Q844.99 304.129 847.473 308.201Q849.956 312.273 852.339 316.403Q854.723 320.534 857.007 324.721Q859.29 328.908 861.471 333.149Q863.653 337.39 865.732 341.682Q867.81 345.975 869.784 350.316Q871.758 354.657 873.627 359.045Q875.496 363.433 877.258 367.864Q879.021 372.296 880.675 376.769Q882.33 381.242 883.876 385.753Q885.423 390.265 886.86 394.812Q888.296 399.36 889.623 403.941Q890.95 408.521 892.165 413.133Q893.381 417.745 894.485 422.384Q895.589 427.024 896.58 431.689Q897.571 436.354 898.45 441.041Q899.328 445.729 900.094 450.436Q900.859 455.143 901.51 459.868Q902.161 464.592 902.698 469.331Q903.235 474.07 903.657 478.82Q904.079 483.571 904.387 488.33Q904.682 493.183 904.857 498.042Q905.031 502.901 905.084 507.763Q905.138 512.625 905.07 517.487Q905.002 522.349 904.813 527.207Q904.624 532.066 904.314 536.918Q904.004 541.77 903.573 546.613Q903.142 551.457 902.59 556.287Q902.039 561.118 901.367 565.934Q900.696 570.749 899.904 575.547Q899.113 580.344 898.202 585.12Q897.292 589.896 896.262 594.648Q895.233 599.4 894.085 604.125Q892.938 608.85 891.672 613.545Q890.408 618.24 889.026 622.901Q887.644 627.563 886.147 632.189Q884.65 636.815 883.038 641.402Q881.426 645.99 879.7 650.535Q877.974 655.081 876.135 659.582Q874.297 664.083 872.346 668.537Q870.396 672.991 868.336 677.395Q866.275 681.799 864.105 686.15Q861.936 690.502 859.658 694.797Q857.381 699.093 854.997 703.331Q852.613 707.569 850.124 711.746Q847.636 715.923 845.044 720.036Q842.452 724.15 839.758 728.198Q837.064 732.246 834.271 736.225Q831.477 740.205 828.585 744.114Q825.693 748.022 822.704 751.858Q819.716 755.693 816.633 759.453Q813.549 763.212 810.374 766.894Q807.198 770.576 803.931 774.177Q801.436 776.933 798.89 779.641Q796.344 782.35 793.748 785.01Q791.152 787.67 788.506 790.281Q785.859 792.891 783.165 795.452Q780.47 798.012 777.728 800.522Q774.985 803.031 772.196 805.488Q769.407 807.946 766.572 810.35Q763.737 812.754 760.858 815.105Q757.978 817.456 755.055 819.752Q752.132 822.048 749.166 824.288Q746.2 826.529 743.192 828.714Q740.184 830.898 737.136 833.025Q734.088 835.153 731 837.223Q727.913 839.292 724.787 841.304Q721.66 843.315 718.497 845.267Q715.334 847.219 712.134 849.112Q708.935 851.004 705.7 852.836Q702.466 854.667 699.197 856.438Q695.929 858.208 692.628 859.917Q689.326 861.626 685.994 863.272Q682.661 864.919 679.298 866.502Q675.935 868.085 672.542 869.605Q669.15 871.125 665.73 872.581Q662.31 874.036 658.863 875.428Q655.415 876.819 651.943 878.145Q648.47 879.471 644.973 880.731Q641.476 881.992 637.956 883.186Q634.436 884.38 630.894 885.509Q627.352 886.637 623.79 887.698Q620.227 888.759 616.645 889.753Q613.064 890.747 609.464 891.673Q605.864 892.599 602.247 893.458C577.791 899.126 553.004 901.934 527.984 903.396C510.82 903.6 493.661 903.649 476.548 902.115Q472.663 901.774 468.786 901.355Q464.909 900.936 461.042 900.44Q457.174 899.944 453.316 899.371Q449.459 898.798 445.614 898.149Q441.769 897.499 437.938 896.772Q434.107 896.046 430.291 895.243Q426.475 894.44 422.675 893.561Q418.876 892.683 415.095 891.728Q411.314 890.774 407.553 889.744Q403.792 888.714 400.052 887.61Q396.312 886.505 392.595 885.326Q388.878 884.147 385.186 882.894Q381.493 881.641 377.826 880.315Q374.159 878.989 370.519 877.59Q366.879 876.19 363.268 874.719Q359.657 873.247 356.075 871.704Q352.494 870.16 348.945 868.546Q345.395 866.931 341.878 865.246Q338.362 863.561 334.879 861.806Q331.397 860.051 327.95 858.227Q324.504 856.403 321.094 854.511Q317.685 852.619 314.314 850.658Q310.942 848.698 307.611 846.671Q304.28 844.644 300.99 842.551Q297.699 840.458 294.452 838.3Q291.204 836.142 288 833.919Q284.796 831.696 281.637 829.41Q278.478 827.124 275.365 824.775Q272.252 822.426 269.187 820.016Q266.121 817.605 263.105 815.134Q260.088 812.663 257.121 810.132Q254.155 807.602 251.239 805.012Q247.669 801.87 244.176 798.641Q240.684 795.412 237.272 792.098Q233.86 788.785 230.53 785.388Q227.2 781.992 223.955 778.516Q220.709 775.039 217.549 771.484Q214.39 767.928 211.319 764.297Q208.247 760.665 205.266 756.959Q202.284 753.254 199.394 749.476Q196.505 745.698 193.708 741.851Q190.912 738.003 188.211 734.089Q185.51 730.174 182.905 726.194Q180.301 722.214 177.794 718.172Q175.288 714.129 172.882 710.027Q170.476 705.924 168.171 701.764Q165.865 697.603 163.663 693.388Q161.461 689.172 159.362 684.904Q157.264 680.636 155.27 676.317Q153.277 671.999 151.39 667.633Q149.504 663.267 147.724 658.856Q145.945 654.445 144.274 649.992Q142.604 645.539 141.043 641.046Q139.482 636.553 138.031 632.023Q136.581 627.494 135.242 622.93Q133.903 618.366 132.676 613.77Q131.449 609.175 130.336 604.551Q129.222 599.927 128.222 595.277Q127.222 590.627 126.336 585.954Q125.45 581.281 124.679 576.588Q123.908 571.894 123.252 567.184Q122.596 562.473 122.056 557.747Q121.516 553.022 121.091 548.285Q120.667 543.547 120.359 538.801Q120.037 533.929 119.836 529.051Q119.634 524.172 119.554 519.29Q119.473 514.408 119.514 509.526Q119.554 504.644 119.715 499.764Q119.877 494.884 120.158 490.01Q120.44 485.135 120.843 480.269Q121.245 475.403 121.768 470.549Q122.291 465.694 122.934 460.854Q123.577 456.014 124.339 451.192Q125.102 446.369 125.983 441.567Q126.865 436.764 127.865 431.985Q128.865 427.207 129.984 422.454Q131.102 417.701 132.337 412.977Q133.573 408.254 134.925 403.562Q136.277 398.87 137.745 394.214Q139.213 389.557 140.795 384.938Q142.378 380.319 144.074 375.741Q145.771 371.163 147.58 366.628Q149.389 362.093 151.31 357.604Q153.231 353.115 155.262 348.675Q157.294 344.235 159.435 339.847Q161.575 335.459 163.824 331.125Q166.073 326.791 168.428 322.514Q170.784 318.237 173.244 314.02Q175.704 309.803 178.268 305.648Q180.833 301.493 183.499 297.402Q186.165 293.312 188.931 289.289Q191.698 285.266 194.563 281.313Q197.429 277.359 200.391 273.478Q203.353 269.597 206.411 265.79Q209.468 261.983 212.619 258.254Q215.77 254.524 219.012 250.873Q221.407 248.184 223.851 245.54Q226.294 242.896 228.786 240.297Q231.278 237.698 233.817 235.145Q236.357 232.592 238.942 230.086Q241.528 227.581 244.159 225.123Q246.79 222.665 249.466 220.256Q252.142 217.846 254.861 215.487Q257.581 213.127 260.344 210.818Q263.106 208.508 265.91 206.25Q268.715 203.992 271.56 201.785Q274.405 199.579 277.291 197.425Q280.176 195.271 283.101 193.171Q286.025 191.071 288.988 189.024Q291.95 186.978 294.95 184.986Q297.949 182.994 300.985 181.058Q304.02 179.121 307.091 177.241Q310.162 175.361 313.266 173.537Q316.371 171.714 319.508 169.947Q322.646 168.181 325.815 166.473Q328.985 164.764 332.185 163.114Q335.385 161.464 338.616 159.873Q341.846 158.282 345.104 156.751Q348.363 155.219 351.649 153.748Q354.935 152.277 358.248 150.866Q361.561 149.455 364.899 148.106Q368.237 146.756 371.599 145.468Q374.962 144.179 378.347 142.953Q381.732 141.727 385.139 140.563Q388.547 139.399 391.975 138.298Q395.403 137.196 398.85 136.158Q402.298 135.12 405.764 134.146Q409.231 133.171 412.714 132.26C440.818 125.086 468.957 121.455 497.86 119.721ZM149.203 466.084C158.011 456.697 167.932 448.709 177.34 439.972C190.811 427.461 203.927 414.569 217.344 402C228.603 391.453 240.224 381.268 251.012 370.23C244.95 351.97 242.732 335.66 251.619 317.793Q252.262 316.523 252.966 315.286Q253.67 314.049 254.434 312.848Q255.197 311.646 256.018 310.484Q256.84 309.321 257.717 308.2Q258.594 307.079 259.524 306.002Q260.455 304.925 261.437 303.895Q262.419 302.864 263.45 301.883Q264.481 300.902 265.559 299.972Q266.637 299.043 267.759 298.166Q268.881 297.29 270.044 296.47Q271.207 295.65 272.409 294.887Q273.611 294.125 274.848 293.422Q276.086 292.719 277.357 292.077Q278.627 291.435 279.927 290.856Q281.228 290.277 282.555 289.762Q283.882 289.247 285.232 288.797Q286.681 288.34 288.151 287.954Q289.621 287.568 291.108 287.255Q292.595 286.942 294.096 286.703Q295.596 286.463 297.107 286.297Q298.618 286.131 300.135 286.04Q301.651 285.948 303.171 285.931Q304.691 285.914 306.209 285.972Q307.728 286.03 309.242 286.162Q310.755 286.294 312.261 286.5Q313.767 286.706 315.26 286.986Q316.754 287.266 318.232 287.619Q319.71 287.971 321.169 288.396Q322.628 288.821 324.065 289.317Q325.501 289.813 326.912 290.379Q328.322 290.945 329.703 291.579Q331.084 292.214 332.432 292.915Q334.86 294.191 337.152 295.697Q339.444 297.204 341.578 298.926Q343.713 300.648 345.67 302.57Q347.626 304.492 349.387 306.595C356.639 315.112 361.666 325.363 367.177 335.035C375.683 349.96 384.179 365.22 393.521 379.636C408.256 367.739 420.917 353.502 434.502 340.358Q471.99 304.573 509.022 268.317C511.729 270.918 514.401 273.578 517.235 276.04C533.227 290.547 548.442 305.866 564.07 320.759C585.649 341.323 607.55 361.623 628.814 382.509C636.161 368.861 644.02 355.529 651.591 342.009C658.829 329.083 665.141 313.63 675.482 302.886C681.992 296.121 690.694 291.077 699.65 288.363C715.156 283.665 732.55 284.286 746.969 292.039Q748.267 292.741 749.53 293.506Q750.792 294.271 752.015 295.097Q753.239 295.923 754.42 296.808Q755.602 297.692 756.739 298.634Q757.875 299.576 758.964 300.572Q760.054 301.568 761.093 302.616Q762.132 303.664 763.119 304.762Q764.106 305.86 765.037 307.005Q765.969 308.149 766.844 309.338Q767.718 310.528 768.533 311.758Q769.349 312.988 770.103 314.257Q770.857 315.526 771.548 316.831Q772.239 318.135 772.865 319.471Q773.492 320.808 774.052 322.174Q774.612 323.539 775.104 324.931Q775.597 326.322 776.021 327.736C780.671 343.203 778.127 358.296 772.327 373.058C797.72 396.806 824.089 419.599 849.881 442.929C858.902 451.089 868.187 459.03 876.875 467.545C873.209 446.111 868.45 424.358 861.725 403.677Q860.547 400.065 859.296 396.478Q858.046 392.89 856.724 389.328Q855.402 385.767 854.009 382.232Q852.617 378.697 851.154 375.191Q849.69 371.685 848.158 368.209Q846.625 364.732 845.023 361.287Q843.421 357.843 841.751 354.43Q840.081 351.018 838.342 347.64Q836.604 344.262 834.799 340.919Q832.994 337.576 831.122 334.27Q829.25 330.964 827.313 327.696Q825.375 324.428 823.373 321.199Q821.371 317.97 819.304 314.782Q817.238 311.594 815.108 308.448Q812.979 305.302 810.787 302.199Q808.595 299.096 806.341 296.037Q804.088 292.979 801.773 289.966Q799.459 286.953 797.085 283.987Q794.711 281.02 792.278 278.102Q789.846 275.184 787.355 272.315Q784.865 269.446 782.317 266.628Q779.77 263.809 777.167 261.042Q774.564 258.274 771.906 255.56Q769.248 252.845 766.536 250.184Q763.825 247.523 761.061 244.917Q758.297 242.31 755.481 239.76Q752.665 237.209 749.799 234.715Q746.933 232.221 744.018 229.785Q741.103 227.349 738.139 224.972Q735.176 222.594 732.166 220.277Q729.155 217.959 726.099 215.702Q723.043 213.445 719.943 211.249C676.185 180.276 626.819 161.53 574.195 152.147C551.761 148.147 528.677 145.802 505.875 146.752C485.625 147.918 465.413 149.2 445.422 152.815Q441.728 153.497 438.048 154.255Q434.368 155.013 430.705 155.846Q427.042 156.68 423.397 157.59Q419.752 158.499 416.126 159.483Q412.501 160.468 408.896 161.527Q405.292 162.586 401.71 163.72Q398.128 164.853 394.571 166.06Q391.013 167.267 387.481 168.548Q383.95 169.828 380.445 171.181Q376.94 172.535 373.464 173.96Q369.988 175.385 366.542 176.882Q363.097 178.379 359.683 179.946Q356.268 181.514 352.887 183.152Q349.507 184.79 346.16 186.497Q342.814 188.205 339.503 189.981Q336.193 191.757 332.92 193.601Q329.647 195.446 326.413 197.357Q323.178 199.269 319.984 201.247Q316.79 203.224 313.638 205.268Q310.486 207.311 307.376 209.42Q304.266 211.528 301.201 213.7Q298.136 215.872 295.116 218.107Q292.096 220.342 289.123 222.638Q286.15 224.935 283.225 227.293Q280.3 229.651 277.425 232.068Q274.549 234.486 271.724 236.962Q268.9 239.439 266.126 241.973Q263.353 244.508 260.633 247.099Q257.913 249.69 255.247 252.337Q252.581 254.984 249.97 257.685Q247.359 260.387 244.804 263.141Q242.25 265.896 239.753 268.703Q237.463 271.275 235.221 273.889Q232.979 276.503 230.787 279.159Q228.594 281.814 226.451 284.51Q224.308 287.205 222.215 289.94Q220.122 292.675 218.081 295.449Q216.04 298.222 214.05 301.033Q212.06 303.844 210.123 306.691Q208.186 309.539 206.303 312.422Q204.419 315.305 202.589 318.222Q200.759 321.139 198.984 324.09Q197.209 327.041 195.488 330.024Q193.768 333.008 192.104 336.022Q190.439 339.037 188.831 342.082Q187.223 345.128 185.672 348.202Q184.121 351.277 182.627 354.38Q181.133 357.482 179.697 360.613Q178.261 363.743 176.883 366.899Q175.506 370.055 174.187 373.236Q172.869 376.418 171.609 379.623Q170.35 382.828 169.15 386.056Q167.951 389.284 166.812 392.534Q165.672 395.784 164.593 399.054Q163.515 402.325 162.497 405.615Q161.479 408.905 160.523 412.213Q159.566 415.521 158.671 418.847Q157.777 422.172 156.944 425.514Q156.111 428.855 155.34 432.212Q154.569 435.568 153.861 438.938Q153.153 442.308 152.508 445.691Q151.862 449.074 151.28 452.468Q150.697 455.862 150.178 459.266Q149.659 462.671 149.203 466.084Z"/>
		<path fill="#FEFEFE" d="M133.918 497.931C134.128 479.266 136.55 460.562 139.999 442.234Q140.672 438.661 141.414 435.102Q142.156 431.543 142.965 427.998Q143.775 424.454 144.653 420.926Q145.531 417.397 146.477 413.887Q147.422 410.376 148.435 406.884Q149.447 403.392 150.527 399.921Q151.607 396.449 152.753 392.999Q153.899 389.548 155.111 386.121Q156.323 382.693 157.601 379.289Q158.879 375.885 160.222 372.507Q161.565 369.128 162.972 365.776Q164.38 362.424 165.852 359.099Q167.323 355.774 168.859 352.479Q170.394 349.183 171.992 345.918Q173.591 342.652 175.251 339.418Q176.912 336.184 178.635 332.982Q180.357 329.78 182.141 326.612Q183.925 323.444 185.769 320.311Q187.613 317.177 189.518 314.08Q191.422 310.983 193.385 307.923Q195.348 304.863 197.37 301.841Q199.392 298.819 201.471 295.837Q203.551 292.854 205.687 289.913Q207.823 286.971 210.016 284.07Q212.208 281.17 214.456 278.312Q216.703 275.455 219.006 272.641Q221.308 269.827 223.664 267.057Q226.02 264.288 228.428 261.565Q230.837 258.841 233.297 256.165Q235.758 253.488 238.269 250.859Q240.781 248.23 243.342 245.65Q245.903 243.07 248.514 240.539Q251.823 237.293 255.212 234.13Q258.601 230.967 262.068 227.889Q265.535 224.811 269.077 221.821Q272.619 218.83 276.234 215.929Q279.85 213.027 283.536 210.217Q287.223 207.406 290.978 204.688Q294.734 201.97 298.556 199.346Q302.377 196.722 306.263 194.195Q310.149 191.667 314.097 189.236Q318.044 186.806 322.051 184.475Q326.058 182.143 330.122 179.912Q334.185 177.681 338.303 175.552Q342.421 173.423 346.591 171.397Q350.76 169.371 354.979 167.449Q359.198 165.528 363.463 163.712Q367.728 161.895 372.037 160.186Q376.346 158.477 380.697 156.875Q385.047 155.273 389.436 153.78Q393.824 152.287 398.249 150.904Q402.673 149.521 407.131 148.248Q411.589 146.975 416.077 145.814Q420.564 144.652 425.08 143.603Q429.595 142.554 434.135 141.617Q438.675 140.68 443.237 139.857Q447.799 139.033 452.381 138.323Q456.962 137.614 461.559 137.018Q466.156 136.422 470.767 135.941Q475.378 135.461 479.999 135.094Q484.62 134.728 489.249 134.477Q493.878 134.226 498.512 134.091Q503.146 133.955 507.781 133.934Q512.417 133.914 517.052 134.009Q521.652 134.034 526.25 134.173Q530.849 134.311 535.442 134.563Q540.036 134.814 544.622 135.179Q549.207 135.544 553.783 136.021Q558.358 136.499 562.921 137.089Q567.483 137.68 572.029 138.382Q576.576 139.085 581.103 139.899Q585.631 140.713 590.137 141.639Q594.644 142.564 599.126 143.601Q603.608 144.637 608.063 145.783Q612.518 146.93 616.944 148.186Q621.369 149.442 625.763 150.806Q630.156 152.171 634.514 153.643Q638.873 155.115 643.193 156.695Q647.514 158.274 651.795 159.959Q656.075 161.645 660.313 163.435Q664.55 165.225 668.743 167.119Q672.935 169.013 677.079 171.01Q681.224 173.007 685.318 175.105Q689.411 177.204 693.453 179.402Q697.493 181.601 701.479 183.898Q705.465 186.196 709.392 188.591Q713.32 190.986 717.188 193.477Q721.055 195.968 724.86 198.553Q728.665 201.139 732.405 203.818Q736.145 206.496 739.818 209.266Q743.491 212.036 747.095 214.895Q750.698 217.755 754.231 220.702Q757.763 223.65 761.221 226.683Q764.679 229.717 768.062 232.835Q771.445 235.953 774.749 239.153Q778.054 242.353 781.279 245.634Q784.376 248.775 787.4 251.987Q790.424 255.199 793.373 258.479Q796.322 261.76 799.195 265.108Q802.068 268.455 804.863 271.868Q807.658 275.281 810.373 278.758Q813.089 282.234 815.723 285.773Q818.358 289.311 820.91 292.909Q823.463 296.507 825.931 300.163Q828.4 303.818 830.784 307.53Q833.168 311.242 835.466 315.008Q837.763 318.773 839.974 322.591Q842.184 326.409 844.306 330.276Q846.427 334.144 848.459 338.059Q850.491 341.975 852.432 345.936Q854.374 349.897 856.223 353.902Q858.073 357.907 859.829 361.953Q861.586 366 863.249 370.086Q864.912 374.172 866.48 378.295Q868.048 382.418 869.521 386.576Q870.994 390.734 872.371 394.925Q873.748 399.116 875.027 403.338Q876.307 407.56 877.489 411.81Q878.671 416.06 879.755 420.336Q880.839 424.612 881.824 428.912Q882.809 433.212 883.694 437.533Q884.58 441.855 885.366 446.196Q886.151 450.537 886.837 454.894Q887.523 459.252 888.108 463.624Q888.692 467.997 889.176 472.382Q889.66 476.766 890.043 481.161Q890.426 485.556 890.708 489.958Q890.989 494.36 891.169 498.768L812.095 427.272C796.321 413.054 780.312 399.128 764.909 384.503C744.072 413.575 722.533 442.292 702.304 471.783Q734.274 441.676 763.832 409.197C765.803 413.104 767.883 416.99 769.503 421.059L764.395 426.943C767.239 430.049 768.714 432.519 769.874 436.644C767.238 438.148 764.634 439.636 762.147 441.382C765.855 443.508 768.705 445.582 771.627 448.768Q766.619 452.846 761.694 457.023C765.894 459.199 770.163 461.284 774.101 463.915C763.582 480.06 745.168 496.101 732.181 511.075C752 500.293 770.19 483.613 787.759 469.416C793.312 464.004 799.708 459.546 805.479 454.367C798.533 445.061 791.238 436.275 783.528 427.59C777.266 420.535 770.573 413.671 765.037 406.025C793.161 428.523 819.883 453.319 846.538 477.528C861.001 490.665 879.373 505.664 891.815 520.358C887.587 625.264 845.5 719.116 768.075 790.489Q764.595 793.653 761.038 796.731Q757.482 799.809 753.85 802.798Q750.219 805.788 746.516 808.688Q742.812 811.587 739.038 814.395Q735.265 817.202 731.423 819.916Q727.582 822.63 723.675 825.249Q719.768 827.868 715.798 830.39Q711.828 832.912 707.797 835.336Q703.766 837.76 699.677 840.084Q695.587 842.408 691.442 844.631Q687.297 846.854 683.099 848.975Q678.901 851.095 674.651 853.112Q670.402 855.128 666.105 857.04Q661.807 858.952 657.464 860.758Q653.121 862.563 648.735 864.262Q644.348 865.96 639.922 867.55Q635.495 869.14 631.031 870.621Q626.567 872.102 622.067 873.473Q617.568 874.844 613.036 876.103Q608.505 877.363 603.943 878.512Q599.382 879.66 594.794 880.696Q590.206 881.731 585.594 882.654Q580.982 883.577 576.349 884.386Q571.715 885.195 567.063 885.891Q562.411 886.586 557.744 887.167Q553.076 887.747 548.396 888.213Q543.716 888.679 539.025 889.03Q534.335 889.381 529.637 889.616Q524.94 889.852 520.238 889.972Q515.536 890.092 510.832 890.096Q506.129 890.101 501.426 889.99Q496.724 889.879 492.026 889.652C396.694 885.693 300.436 841.143 235.878 770.866C187.113 717.78 151.384 651.446 138.962 580.04C135.38 559.45 134.469 539.032 132.976 518.26L203.181 452.589C217.584 439.058 231.664 423.773 247.538 412.008Q246.781 423.064 246.305 434.135C246.057 440.221 246.445 447.338 244.904 453.266C244.472 454.925 243.773 455.878 242.494 456.998C242.165 457.286 241.817 457.555 241.465 457.817C246.275 459.437 251.003 461.131 255.709 463.037C239.265 479.78 221.161 494.722 205.381 512.147Q234.689 493.057 261.919 471.105C268.934 465.557 276.386 460.142 282.883 453.987C272.738 439.67 258.555 421.951 251.018 406.636C265.591 418.991 277.921 434.166 291.727 447.417C301.104 456.417 311.886 463.663 321.552 472.316C315.49 462.639 308.828 453.306 302.43 443.848C296.669 435.332 291.357 426.465 284.555 418.715C274.524 407.286 262.845 397.413 252.281 386.489Q217.244 421.368 180.486 454.428C164.834 468.731 148.702 482.733 133.918 497.931ZM149.203 466.084C158.011 456.697 167.932 448.709 177.34 439.972C190.811 427.461 203.927 414.569 217.344 402C228.603 391.453 240.224 381.268 251.012 370.23C244.95 351.97 242.732 335.66 251.619 317.793Q252.262 316.523 252.966 315.286Q253.67 314.049 254.434 312.848Q255.197 311.646 256.018 310.484Q256.84 309.321 257.717 308.2Q258.594 307.079 259.524 306.002Q260.455 304.925 261.437 303.895Q262.419 302.864 263.45 301.883Q264.481 300.902 265.559 299.972Q266.637 299.043 267.759 298.166Q268.881 297.29 270.044 296.47Q271.207 295.65 272.409 294.887Q273.611 294.125 274.848 293.422Q276.086 292.719 277.357 292.077Q278.627 291.435 279.927 290.856Q281.228 290.277 282.555 289.762Q283.882 289.247 285.232 288.797Q286.681 288.34 288.151 287.954Q289.621 287.568 291.108 287.255Q292.595 286.942 294.096 286.703Q295.596 286.463 297.107 286.297Q298.618 286.131 300.135 286.04Q301.651 285.948 303.171 285.931Q304.691 285.914 306.209 285.972Q307.728 286.03 309.242 286.162Q310.755 286.294 312.261 286.5Q313.767 286.706 315.26 286.986Q316.754 287.266 318.232 287.619Q319.71 287.971 321.169 288.396Q322.628 288.821 324.065 289.317Q325.501 289.813 326.912 290.379Q328.322 290.945 329.703 291.579Q331.084 292.214 332.432 292.915Q334.86 294.191 337.152 295.697Q339.444 297.204 341.578 298.926Q343.713 300.648 345.67 302.57Q347.626 304.492 349.387 306.595C356.639 315.112 361.666 325.363 367.177 335.035C375.683 349.96 384.179 365.22 393.521 379.636C408.256 367.739 420.917 353.502 434.502 340.358Q471.99 304.573 509.022 268.317C511.729 270.918 514.401 273.578 517.235 276.04C533.227 290.547 548.442 305.866 564.07 320.759C585.649 341.323 607.55 361.623 628.814 382.509C636.161 368.861 644.02 355.529 651.591 342.009C658.829 329.083 665.141 313.63 675.482 302.886C681.992 296.121 690.694 291.077 699.65 288.363C715.156 283.665 732.55 284.286 746.969 292.039Q748.267 292.741 749.53 293.506Q750.792 294.271 752.015 295.097Q753.239 295.923 754.42 296.808Q755.602 297.692 756.739 298.634Q757.875 299.576 758.964 300.572Q760.054 301.568 761.093 302.616Q762.132 303.664 763.119 304.762Q764.106 305.86 765.037 307.005Q765.969 308.149 766.844 309.338Q767.718 310.528 768.533 311.758Q769.349 312.988 770.103 314.257Q770.857 315.526 771.548 316.831Q772.239 318.135 772.865 319.471Q773.492 320.808 774.052 322.174Q774.612 323.539 775.104 324.931Q775.597 326.322 776.021 327.736C780.671 343.203 778.127 358.296 772.327 373.058C797.72 396.806 824.089 419.599 849.881 442.929C858.902 451.089 868.187 459.03 876.875 467.545C873.209 446.111 868.45 424.358 861.725 403.677Q860.547 400.065 859.296 396.478Q858.046 392.89 856.724 389.328Q855.402 385.767 854.009 382.232Q852.617 378.697 851.154 375.191Q849.69 371.685 848.158 368.209Q846.625 364.732 845.023 361.287Q843.421 357.843 841.751 354.43Q840.081 351.018 838.342 347.64Q836.604 344.262 834.799 340.919Q832.994 337.576 831.122 334.27Q829.25 330.964 827.313 327.696Q825.375 324.428 823.373 321.199Q821.371 317.97 819.304 314.782Q817.238 311.594 815.108 308.448Q812.979 305.302 810.787 302.199Q808.595 299.096 806.341 296.037Q804.088 292.979 801.773 289.966Q799.459 286.953 797.085 283.987Q794.711 281.02 792.278 278.102Q789.846 275.184 787.355 272.315Q784.865 269.446 782.317 266.628Q779.77 263.809 777.167 261.042Q774.564 258.274 771.906 255.56Q769.248 252.845 766.536 250.184Q763.825 247.523 761.061 244.917Q758.297 242.31 755.481 239.76Q752.665 237.209 749.799 234.715Q746.933 232.221 744.018 229.785Q741.103 227.349 738.139 224.972Q735.176 222.594 732.166 220.277Q729.155 217.959 726.099 215.702Q723.043 213.445 719.943 211.249C676.185 180.276 626.819 161.53 574.195 152.147C551.761 148.147 528.677 145.802 505.875 146.752C485.625 147.918 465.413 149.2 445.422 152.815Q441.728 153.497 438.048 154.255Q434.368 155.013 430.705 155.846Q427.042 156.68 423.397 157.59Q419.752 158.499 416.126 159.483Q412.501 160.468 408.896 161.527Q405.292 162.586 401.71 163.72Q398.128 164.853 394.571 166.06Q391.013 167.267 387.481 168.548Q383.95 169.828 380.445 171.181Q376.94 172.535 373.464 173.96Q369.988 175.385 366.542 176.882Q363.097 178.379 359.683 179.946Q356.268 181.514 352.887 183.152Q349.507 184.79 346.16 186.497Q342.814 188.205 339.503 189.981Q336.193 191.757 332.92 193.601Q329.647 195.446 326.413 197.357Q323.178 199.269 319.984 201.247Q316.79 203.224 313.638 205.268Q310.486 207.311 307.376 209.42Q304.266 211.528 301.201 213.7Q298.136 215.872 295.116 218.107Q292.096 220.342 289.123 222.638Q286.15 224.935 283.225 227.293Q280.3 229.651 277.425 232.068Q274.549 234.486 271.724 236.962Q268.9 239.439 266.126 241.973Q263.353 244.508 260.633 247.099Q257.913 249.69 255.247 252.337Q252.581 254.984 249.97 257.685Q247.359 260.387 244.804 263.141Q242.25 265.896 239.753 268.703Q237.463 271.275 235.221 273.889Q232.979 276.503 230.787 279.159Q228.594 281.814 226.451 284.51Q224.308 287.205 222.215 289.94Q220.122 292.675 218.081 295.449Q216.04 298.222 214.05 301.033Q212.06 303.844 210.123 306.691Q208.186 309.539 206.303 312.422Q204.419 315.305 202.589 318.222Q200.759 321.139 198.984 324.09Q197.209 327.041 195.488 330.024Q193.768 333.008 192.104 336.022Q190.439 339.037 188.831 342.082Q187.223 345.128 185.672 348.202Q184.121 351.277 182.627 354.38Q181.133 357.482 179.697 360.613Q178.261 363.743 176.883 366.899Q175.506 370.055 174.187 373.236Q172.869 376.418 171.609 379.623Q170.35 382.828 169.15 386.056Q167.951 389.284 166.812 392.534Q165.672 395.784 164.593 399.054Q163.515 402.325 162.497 405.615Q161.479 408.905 160.523 412.213Q159.566 415.521 158.671 418.847Q157.777 422.172 156.944 425.514Q156.111 428.855 155.34 432.212Q154.569 435.568 153.861 438.938Q153.153 442.308 152.508 445.691Q151.862 449.074 151.28 452.468Q150.697 455.862 150.178 459.266Q149.659 462.671 149.203 466.084Z"/>
		<path fill="#DCDCDC" d="M787.759 469.416C793.312 464.004 799.708 459.546 805.479 454.367C820.386 471.09 837.38 485.172 854.162 499.912C862.455 507.195 870.409 514.854 878.568 522.284C877.403 539.325 877.206 557.77 873.159 574.39C862.58 557.56 851.25 540.878 838.541 525.584C827.53 512.335 815.412 500.021 803.709 487.391C798.276 481.528 793.273 475.175 787.759 469.416Z"/>
		<path fill="#073E62" d="M508.83 289.839Q570.833 347.749 631.485 407.071Q645.476 383.881 658.294 360.022C664.642 348.157 670.393 335.852 677.598 324.472C685.01 312.764 694.795 303.154 708.742 300.118Q709.865 299.872 710.999 299.683Q712.134 299.493 713.276 299.361Q714.418 299.228 715.565 299.152Q716.713 299.077 717.863 299.059Q719.012 299.04 720.162 299.079Q721.311 299.119 722.457 299.215Q723.603 299.311 724.742 299.465Q725.882 299.618 727.012 299.828Q728.143 300.038 729.262 300.304Q730.38 300.57 731.484 300.892Q732.588 301.213 733.675 301.589Q734.761 301.965 735.828 302.395Q736.895 302.825 737.938 303.308Q738.982 303.79 740 304.324Q741.019 304.858 742.009 305.442Q743 306.026 743.96 306.659C754.35 313.479 761.269 324.749 763.656 336.858C765.841 347.942 763.656 359.237 758.329 369.124C752.081 380.724 739.97 394.617 731.929 405.716Q706.941 440.251 682.887 475.443Q643.864 531.742 606.252 588.993C586.475 619.111 567.179 649.634 547.043 679.5C557.842 698.43 570.163 716.403 582.063 734.64L626.593 803.729C635.951 818.301 646.502 832.887 654.5 848.23C650.506 850.262 646.11 851.676 641.829 852.961C604.239 792.838 564.35 734.175 527.213 673.772C515.86 655.306 505.995 636.076 495.299 617.244C487.116 602.837 478.181 588.882 470.154 574.378C459.051 581.132 448.03 587.771 436.451 593.695Q495.917 681.487 552.339 771.265L586.204 823.894C594.828 837.048 603.924 849.838 611.315 863.753C606.59 865.433 601.621 866.372 596.704 867.287L592.348 860.807C574.786 833.553 557.829 805.839 540.713 778.299C530.981 762.641 522.028 746.221 510.398 731.86C498.824 749.575 488.588 768.305 477.589 786.398C461.081 813.553 443.953 840.42 427.947 867.87L412.197 863.993L502.496 719.516L484.484 691.957C473.326 707.604 463.728 724.451 453.731 740.853Q432.519 775.573 410.451 809.755C401.117 824.464 392.196 839.601 381.936 853.681C377.82 852.148 373.772 850.373 369.709 848.702C373.586 841.121 378.448 833.973 383.026 826.803L406.307 790.667Q441.481 735.404 476.094 679.789L426.044 602.428C414.996 585.047 404.394 567.374 393.114 550.141C385.633 538.713 377.67 527.59 370.026 516.268L322.161 445.133C312.687 431.121 302.967 417.06 292.42 403.836C283.676 392.874 273.41 382.916 266.35 370.708C259.617 359.069 256.922 345.262 260.468 332.125C263.561 320.668 271.301 310.345 281.687 304.517C292.063 298.694 304.619 297.577 315.996 300.882C325.144 303.54 332.962 308.631 339.295 315.709C347.253 324.604 351.797 336.04 357.626 346.335Q374.133 374.891 389.944 403.839L460.672 336.834C476.936 321.424 493.736 306.415 508.83 289.839Z"/>
		<path fill="#FEFEFE" d="M502.432 318.53C505.033 323.484 509.636 360.073 510.81 367.864C504.553 372.528 497.691 376.592 491.139 380.842C499.236 382.462 507.44 383.655 515.559 385.187L517.431 393.505C510.093 403.385 501.791 412.31 493.801 421.64C480.359 437.338 466.993 453.018 453.09 468.312C465.568 461.281 476.943 450.813 488.022 441.816C513.945 420.767 539.117 398.837 564.633 377.3C545.819 359.689 530.607 340.079 516.087 318.849C526.482 327.35 535.728 337.624 545.484 346.866C561.144 361.7 577.205 376.125 592.997 390.821C603.699 400.78 613.934 411.134 625.056 420.646L617.194 434.716L540.807 567.409C531.128 584.24 520.814 600.691 511.271 617.597Q473.831 553.776 438.136 488.961L414.726 447.193C409.251 437.404 403.529 427.67 398.906 417.44C408.403 409.527 417.132 400.234 426.043 391.647L475.398 344.055C484.211 335.519 492.673 325.969 502.432 318.53Z"/>
		<path fill="#DCDCDC" d="M570 388.985C575.507 392.611 580.257 397.938 584.967 402.547Q595.795 412.941 606.166 423.792C599.878 436.268 592.214 448.871 584.546 460.535C575.416 448.608 565.137 437.916 555.311 426.596C552.102 422.898 546.711 417.128 547.352 411.829C548.214 404.691 564.158 393.375 570 388.985Z"/>
		<path fill="#FEFEFE" d="M552.463 574.998Q568.85 585.238 585.689 594.716C570.95 619.389 553.893 642.592 539 667.207Q534.846 659.671 530.362 652.327L540.467 634.725C546.057 625.092 551.628 615.199 555.852 604.878C551.848 609.818 548.572 615.378 545.141 620.721C539.465 629.561 533.876 638.28 527.421 646.578C524.318 641.991 521.605 637.174 518.839 632.38Q534.951 603.279 552.463 574.998Z"/>
		<path fill="#FEFEFE" d="M598.085 493.865C600.944 496.369 603.886 498.147 607.234 499.907C605.912 502.968 604.09 505.804 602.397 508.67C606.366 511.345 610.35 513.782 614.523 516.123L616.934 511.124C615.349 510.151 613.178 509.052 612.069 507.518C611.387 506.574 611.382 506.461 611.588 505.387C612.134 505.137 612.198 505.066 612.883 504.987C615.949 504.637 618.989 507.286 621.26 508.997Q618.724 513.199 616.233 517.429C618.772 518.954 621.348 520.248 624.026 521.512L630.08 512.691L637.883 517.331C631.384 527.31 624.888 537.228 618.057 546.987C615.508 545.85 613.276 544.527 610.941 543.015C613.7 535.848 615.056 538.336 619.282 534.058C619.877 533.456 619.672 533.208 619.654 532.427C617.653 529.574 614.226 527.837 611.291 526.086L602.799 539.519L601.018 543.158C604.152 545.328 612.461 549.793 613.722 553.237L612.809 553.6C606.61 553.116 582.409 535.469 577.272 530.725C582.033 532.886 590.405 539.917 595.671 538.622C600.865 537.344 605.413 528.446 608.227 524.126C604.738 521.767 601.419 519.253 598.106 516.655C595.546 521.392 592.794 526.008 590.048 530.637C587.025 528.843 584.373 526.941 581.851 524.492Q582.356 523.504 582.898 522.535C584.586 519.497 586.487 519.805 589.427 518.833C591.063 518.292 591.661 516.769 592.438 515.356L587.847 511.814C591.334 505.869 594.5 499.768 598.085 493.865Z"/>
		<path fill="#FEFEFE" d="M700.456 335.418L701.004 336.056C699.187 344.858 669.267 389.227 662.582 400.051C652.736 415.994 643.459 432.346 633.317 448.098L632.833 447.581C635.915 439.293 640.971 430.85 645.221 423.106C655.14 405.029 665.878 387.356 676.198 369.5C681.172 360.892 687.276 347.816 693.109 340.375C694.845 338.159 698.032 336.786 700.456 335.418Z"/>
		<path fill="#FEFEFE" d="M295.954 338.266C296.172 338.382 296.401 338.479 296.607 338.614C298.687 339.971 300.305 342.892 301.614 344.968C308.223 355.442 314.172 366.442 320.258 377.226Q335.432 404.093 350.294 431.134C354.739 439.226 369.348 463.862 371.09 471.44C369.304 469.163 367.742 466.715 366.22 464.255C359.773 453.834 353.846 443.006 347.704 432.398L318.43 382.055L303.639 356.442C301.067 351.986 297.846 347.272 295.927 342.503C295.313 340.975 295.587 339.81 295.954 338.266Z"/>
		<path fill="#FEFEFE" d="M306.925 336.412C307.951 336.492 309.144 336.514 310.133 336.791C312.355 337.415 314.274 341.321 315.431 343.236C320.505 351.635 324.626 360.673 329.362 369.276C346.195 399.853 362.332 430.851 379.531 461.22C370.776 455.149 316.61 354.139 306.925 336.412Z"/>
		<path fill="#FEFEFE" d="M710.905 338.447L711.271 338.852C711.038 344.792 653.387 436.674 645.563 448.787L645.23 448.616C645.532 443.873 692.455 362.196 698.508 353.049C702.124 347.585 706.241 343.016 710.905 338.447Z"/>
		<path fill="#FEFEFE" d="M720.462 343L720.751 343.362C720.62 351.275 663.919 440.648 656.015 453.125L655.864 453.09L655.545 452.513C663.981 434.756 674.283 417.6 683.971 400.486L701.79 369.275C705.53 362.825 709.126 356.012 713.706 350.124C715.714 347.543 718.12 345.273 720.462 343Z"/>
		<path fill="#FEFEFE" d="M323.671 340.817C324.293 341.055 324.228 341.015 324.814 341.297C328.01 342.833 329.661 344.928 331.515 347.882C336.456 355.752 340.308 364.594 344.634 372.839L371.982 424.804C378.295 436.739 387.072 447.912 391.685 460.669C384.575 455.711 329.655 353.864 323.671 340.817Z"/>
		<path fill="#FEFEFE" d="M285.44 343.209C286.87 343.818 287.29 344.372 288.198 345.65C292.519 351.733 296.078 358.668 299.801 365.149Q310.548 383.913 321.066 402.806L340.114 437.279C344.11 444.582 348.528 451.958 351.737 459.638C351.541 459.478 351.327 459.336 351.147 459.157C346.281 454.327 337.456 437.043 333.458 430.307C317.714 403.78 300.309 377.605 287.185 349.667C286.176 347.52 285.676 345.569 285.44 343.209Z"/>
		<path fill="#FEFEFE" d="M734.416 340.461L734.8 341.36C728.104 358.36 717.562 373.823 708.165 389.409C696.607 408.579 685.278 427.882 673.034 446.628L672.696 446.538C672.582 444.608 674.576 441.372 675.493 439.632C679.449 432.125 684.284 425.05 688.38 417.59C699.47 397.394 710.12 376.938 722.27 357.347C725.957 351.404 730.028 345.897 734.416 340.461Z"/>
		<path fill="#FEFEFE" d="M408.642 507.97C412.313 507.911 415.871 508.585 419.433 509.389C418.044 516.978 413.997 523.349 411.768 530.657C408.804 530.46 406.026 530.057 403.12 529.442Q399.008 528.773 394.859 528.386C394.061 526.987 392.878 525.215 392.533 523.637C392.251 522.348 392.481 521.613 393.057 520.472C395.957 517.776 401.584 518.138 405.401 517.851L405.43 517.339L405.489 516.487C405.713 512.802 406.441 510.967 408.642 507.97Z"/>
		<path fill="#FEFEFE" d="M611.15 472.273C617.287 474.783 623.145 479.211 628.781 482.738Q640.346 489.872 651.992 496.874L648.183 502.26C633.941 495.55 620.854 486.388 607.391 478.272C608.533 476.214 609.876 474.252 611.15 472.273Z"/>
		<path fill="#FEFEFE" d="M572.783 537.248C585.51 543.733 597.743 552.033 610.032 559.366C608.69 561.316 607.655 563.535 606.544 565.626C595.393 560.984 579.905 549.943 569.411 543.333C570.469 541.276 571.657 539.269 572.783 537.248Z"/>
		<path fill="#FEFEFE" d="M336.318 343.812C336.487 343.88 336.664 343.932 336.825 344.016C342.312 346.869 393.674 439.291 398.779 452.158C393.402 448.284 343.565 357.933 336.318 343.812Z"/>
		<path fill="#FEFEFE" d="M426.146 498.325C427.02 498.436 427.758 498.526 428.575 498.898C432.891 500.864 436.492 510.957 438.459 515.304L427.703 521.193C425.388 522.254 423.067 523.893 420.867 525.205C419.37 519.849 419.41 514.562 420.415 509.119C421.204 504.85 422.427 500.881 426.146 498.325Z"/>
		<path fill="#FEFEFE" d="M413.419 472.909C415.27 473.778 415.788 476.028 416.478 477.8Q396.715 489.319 377.111 501.106C375.702 499.985 374.562 498.432 373.397 497.064C386.799 489.092 399.788 480.506 413.419 472.909Z"/>
		<path fill="#FEFEFE" d="M742.286 345.401L742.778 346.251C742.012 357.784 700.497 419.149 692.589 431.868C692.221 431.629 692.452 431.823 692.152 431.074C697.758 419.375 704.872 408.805 711.393 397.641C721.62 380.131 731.475 362.575 742.286 345.401Z"/>
		<path fill="#FEFEFE" d="M422.279 488.93C424.511 489.874 426 493.067 427.254 495.054C419.446 496.63 414.038 503.006 407.497 503.927C405.96 504.143 404.087 504.22 402.65 504.815C400.147 505.852 399.025 510.362 398.135 512.687C395.503 514.475 393.118 515.164 390.035 515.735C389.131 515.582 388.103 515.394 387.259 515.036C386.083 514.537 385.746 514.024 385.311 512.879C386.69 509.763 417.402 491.955 422.279 488.93Z"/>
		<path fill="#FEFEFE" d="M447.48 530.435C449.072 531.56 450.018 533.274 451.084 534.872L414.26 557.558C413.738 557.459 413.273 557.137 412.875 556.799C411.875 555.95 411.174 554.763 411.038 553.47C415.078 549.067 440.581 534.651 447.48 530.435Z"/>
		<path fill="#FEFEFE" d="M452.458 541.382C453.379 541.535 454.004 541.645 454.821 542.137C455.602 542.608 455.431 542.747 455.615 543.566C453.39 548.734 426.79 562.784 420.272 566.541C420.041 566.519 419.806 566.528 419.58 566.476C418.255 566.17 417.091 564.152 416.319 563.121C428.904 556.857 440.215 548.282 452.458 541.382Z"/>
		<path fill="#FEFEFE" d="M277.655 351.114C277.863 351.188 278.081 351.238 278.279 351.334C279.928 352.13 280.939 353.954 281.897 355.45C288.868 366.346 294.667 378.336 301.04 389.623C304.699 396.104 310.626 404.296 313.058 411.06C308.062 404.89 303.824 397.666 299.413 391.05C294.813 384.151 276.157 358.61 277.655 351.114Z"/>
		<path fill="#FEFEFE" d="M603.079 482.874C607.625 483.137 640.125 503.003 644.408 506.972L644.426 509.267C644.288 509.325 644.154 509.395 644.011 509.441C642.456 509.934 640.799 508.784 639.475 508.056C635.007 505.599 604.908 487.228 603.645 484.776C603.342 484.188 603.267 483.508 603.079 482.874Z"/>
		<path fill="#FEFEFE" d="M441.334 520.461C442.511 521.541 443.41 523.067 444.33 524.378C438.225 527.326 429.386 533.816 422.507 532.548C422.344 531.329 422.293 530.538 422.626 529.348C423.574 528.6 424.036 528.481 425.236 528.407C425.961 529.344 425.601 530.325 425.524 531.477L426.242 532.098L427.078 531.808Q427.381 530.569 427.752 529.349C428.853 525.806 437.939 522.183 441.334 520.461Z"/>
		<path fill="#FEFEFE" d="M413.761 536.484C415.593 536.468 417.399 536.257 418.942 537.36L418.726 538.401C416.285 540.938 412.41 542.726 409.363 544.524C408.407 545.139 407.907 545.369 406.767 545.425C405.721 544.787 405.41 544.4 404.896 543.292C405.829 540.027 410.89 538.082 413.761 536.484Z"/>
		<path fill="#FEFEFE" d="M396.122 529.969C399.505 529.969 405.696 529.71 408.383 531.915L408.447 532.838L407.155 534.019C405.018 535.183 402.804 536.158 400.588 537.158L396.122 529.969Z"/>
		<path fill="#FEFEFE" d="M511.479 179.723C515.41 182.765 519.386 198.587 520.923 203.926C529.481 202.842 538.38 202.94 547.014 202.377C541.023 208.99 533.449 213.955 526.087 218.9C529.358 227.904 532.313 236.868 534.879 246.101C527.263 241.511 520.058 236.072 512.817 230.917L511.799 230.543C509.009 231.287 493.017 243.941 489.381 246.611C491.899 237.246 494.821 228.288 498.303 219.236C490.752 214.672 484.135 208.859 477.596 202.989C486.283 202.921 495.002 203.383 503.693 203.507C505.222 195.428 508.647 187.418 511.479 179.723Z"/>
		<path fill="#073E62" d="M232.065 537.783C236.288 543.509 239.635 552.567 241.935 559.236L235.853 560.18C238.739 565.992 246.008 573.614 247.713 578.767C248.207 580.261 247.928 581.043 247.201 582.377C244.506 584.383 241.316 583.833 238.139 583.715C242.107 589.202 253.028 597.903 253.669 604.42C253.373 605.153 253.313 605.741 252.623 606.202C249.447 608.321 243.841 606.783 240.357 606.22C245.01 610.685 258.367 619.346 259.637 625.396C259.465 626.008 259.432 626.63 258.941 627.076C255.495 630.209 246.059 628.839 241.781 628.323C245.092 630.78 248.579 632.65 252.173 634.652C255.375 636.435 262.081 639.791 262.603 643.838C262.789 645.285 262.122 646.561 261.08 647.518C256.009 652.177 244.311 650.71 237.853 650.562L237.985 667.856Q267.587 673.191 297.49 676.434L297.399 669.013C294.439 668.931 291.446 668.904 288.495 668.657C284.381 668.313 279.027 667.415 276.262 664.147C275.946 663.224 275.825 662.725 276.019 661.738C277.194 655.753 289.094 650.748 293.929 647.995C289.274 648.401 283.675 649.043 279.442 646.711C279.018 646.106 278.56 645.761 278.604 644.978C278.844 640.642 290.13 632.665 293.712 629.505C291.691 629.601 288.59 630.107 286.786 629.052C285.721 628.429 284.973 627.585 284.789 626.325C284.057 621.311 294.385 611.343 297.465 607.641C294.988 607.578 292.288 607.754 289.913 606.999L289.552 606.299C291.068 600.06 296.496 593.513 299.961 588.163L293.974 586.716C296.788 580.509 299.747 574.324 303.147 568.415Q308.259 577.658 312.358 587.393C310.141 587.53 307.928 587.829 305.721 588.077C308.769 593.682 313.954 598.801 316.078 604.796C316.43 605.79 316.588 605.971 316.117 606.95C313.729 607.922 310.86 607.769 308.305 607.895C312.049 612.013 320.525 620.028 321.561 625.225C321.859 626.718 321.509 627.35 320.77 628.618C317.939 630.458 315.179 629.791 312.012 629.453C315.473 632.353 326.095 639.961 327.372 643.773C327.769 644.96 327.372 645.391 326.792 646.355C322.871 648.931 317.319 648.048 312.826 647.965C316.782 651.793 328.234 657.528 329.949 662.382C330.387 663.62 330.28 663.916 329.786 665.029C324.84 669.263 314.306 669.029 308.083 669.162L307.986 676.887C323.91 678.783 339.81 680.46 355.84 681.076L356.001 672.962C351.823 673.14 345.189 673.929 341.558 671.754C340.354 671.033 340.154 670.409 339.799 669.112C341.331 664.56 349.782 661.743 353.396 658.533C353.554 658.392 353.709 658.248 353.865 658.105C351.4 658.087 347.29 658.46 345.065 657.341C343.846 656.727 343.741 656.461 343.322 655.265C344.282 649.863 351.336 647.252 354.257 642.985C353.537 642.299 350.99 642.378 349.907 642.289C348.749 641.469 348.601 641.336 348.047 640.037C348.566 635.212 353.637 632.254 355.597 627.987L355.31 627.325C353.985 626.852 352.703 626.536 351.727 625.463C351.681 620.863 356.559 617.5 358.396 613.544C359.415 611.351 357.985 610.77 357.384 608.851C356.389 605.673 358.977 602.26 360.473 599.646C361.482 601.518 363.176 603.96 363.609 606.022C363.99 607.832 362.818 609.147 361.755 610.423C361.63 610.572 361.503 610.719 361.377 610.867C363.356 616.202 367.45 620.804 369.702 626.219L363.396 627.268C365.628 630.16 371.333 635.037 371.998 638.466C372.287 639.954 372.027 640.292 371.337 641.554C369.607 642.879 367.406 642.889 365.305 643.162C368.578 645.917 374.226 649.66 376.177 653.371C376.79 654.537 376.724 655.144 376.41 656.379C375.208 657.667 373.552 657.68 371.898 657.942L365.314 657.473C369.57 660.568 377.102 663.447 379.154 668.603C379.017 669.366 379.103 669.895 378.486 670.44C375.358 673.207 368.295 672.958 364.366 673.027L364.14 681.396C374.232 682.817 384.509 683.112 394.681 683.606Q426.811 685.429 458.977 684.456C453.492 694.255 447.048 703.593 441.022 713.073L408.78 763.917Q392.056 790.494 374.953 816.829C369.196 825.757 363.954 834.97 357.562 843.474Q356.138 842.869 354.73 842.228C277.082 806.657 203.095 731.264 173.187 650.815C190.679 656.839 208.448 661.398 226.524 665.309C226.746 660.411 226.722 655.495 226.77 650.592C223.013 650.629 219.243 650.706 215.487 650.629C211.86 650.554 205.288 649.561 202.909 646.424C202.135 645.403 201.752 644.495 202.014 643.188C203.03 638.133 213.872 634.372 218.036 632.024C219.844 631.004 221.509 629.669 223.154 628.408C218.519 628.83 211.521 629.634 207.265 627.504C206.108 626.924 205.788 626.413 205.342 625.243C206.139 620.042 220.426 610.06 224.882 606.361C221.934 606.76 218.867 607.154 215.904 606.701C213.872 606.39 212.828 605.902 211.63 604.222C211.207 599.242 222.617 589.329 225.888 584.631C224.18 584.531 221.656 584.566 220.169 583.654C218.957 582.911 218.253 582.007 218.013 580.601C217.093 575.211 226.138 564.308 229.186 559.735C227.123 559.539 224.706 559.529 223.162 558.068C224.75 551.316 229.087 544.066 232.065 537.783Z"/>
		<path fill="#073E62" d="M792.051 535.297C796.578 540.502 799.607 552.843 801.957 559.648L794.331 559.491C798.32 567.8 803.629 575.545 808.591 583.299C805.873 584.432 803.033 585.366 800.264 586.374C801.517 588.709 802.842 591.022 804.634 592.993C806.895 595.48 810.457 597.862 812.094 600.768C812.773 601.972 812.657 602.527 812.323 603.818C809.671 606.65 805.8 606.927 802.167 607.7C806.671 614.01 813.606 616.193 816.789 620.554C817.574 621.63 817.599 622.193 817.466 623.478C814.934 627.404 807.531 628.71 803.293 629.717C808.4 634.965 818.993 637.321 822.338 643.517C822.29 644.867 822.283 645.334 821.387 646.449C817.712 651.022 803.393 651.403 797.993 651.72L797.915 663.849C815.852 659.777 833.646 655.172 851.557 651.055C817.853 734.813 748.563 805.45 666.599 842.882L607.114 751.562C592.715 729.082 579.197 706.176 563.635 684.45C595.587 686.706 627.718 684.737 659.575 681.917L659.384 672.936C652.769 672.21 647.907 671.425 642.792 666.705C645.17 665.695 647.377 664.369 649.618 663.091C652.025 661.367 654.188 659.599 656.322 657.547C653.104 656.065 649.574 655.073 646.211 653.948C649.812 650.533 653.346 647.286 656.607 643.52C654.793 642.678 653.574 642.177 652.634 640.361C652.581 635.771 657.534 631.396 660.266 628.01L654.076 626.411C655.887 624.203 658.448 621.794 659.566 619.162C659.645 618.977 659.711 618.787 659.787 618.601C661.781 613.749 661.477 608.587 663.669 603.166C664.743 605.017 666.346 607.565 666.678 609.677C667.057 612.093 665.687 614.021 666.728 616.452C667.988 619.391 672.307 623.086 672.202 626.239C670.928 626.904 670.234 627.197 669.483 628.483C669.199 632.969 674.293 637.849 676.98 641.049C674.674 641.626 672.334 642.091 670.012 642.598C672.751 645.711 677.028 648.405 678.783 652.169C678.784 652.989 678.949 653.504 678.459 654.213C676.905 656.461 673.189 656.901 670.692 657.529C673.935 660.403 678.422 662.562 681.201 665.83C682.124 666.914 682.195 667.424 682.078 668.804C679.399 671.856 672.797 672.213 668.98 672.581L668.998 681.233C685.474 680.435 701.716 678.378 718.057 676.247C718.296 673.911 718.401 671.555 718.552 669.212C709.119 668.814 700.808 667.99 693.24 661.834C699.265 656.859 706.277 653.366 712.249 648.353C706.886 647.107 702.675 645.747 698.385 642.079C703.858 637.822 708.906 633.589 713.39 628.278Q711.247 628.075 709.112 627.798C707.256 627.55 706.048 627.303 704.839 625.728C704.83 621.685 711.004 617.282 713.24 613.694C714.481 611.702 715.138 609.553 715.791 607.324C714.035 607.105 711.166 607.298 709.822 606.167C709.888 602.964 718.447 590.128 720.44 585.765C718.36 585.587 716.104 585.647 714.26 584.591C714.118 583.062 715.009 582.053 715.744 580.738C719.213 574.535 721.538 569.653 723.475 562.768C725.586 571.22 728.814 577.624 733.854 584.689C731.508 585.364 729.048 585.757 726.655 586.239C729.928 593.117 734.646 599.147 737.885 606.042C735.331 606.889 732.945 607.232 730.286 607.53C734.475 613.702 738.748 619.839 742.622 626.215C739.079 627.507 735.64 628.075 731.927 628.647C735.751 632.375 741.93 635.875 744.662 640.407C745.512 641.816 745.462 642.755 745.033 644.287C742.026 647.671 736.177 647.75 731.937 648.315C738.44 653.584 746.248 656.231 751.829 662.712C748.823 664.572 745.898 666.178 742.431 667.047C739.042 667.896 732.92 667.592 730.118 669.336C729.111 669.963 728.486 670.89 728.183 672.022C728.423 672.572 728.466 672.992 729.015 673.314C734.357 676.455 776.926 667.511 785.528 665.737L785.521 652.085C778.977 651.501 769.291 651.277 763.796 647.239C762.546 646.321 762.192 645.48 761.991 643.988C765.049 639.215 775.659 635.238 780.94 629.275C778.829 628.924 776.704 628.487 774.618 628.012C772.111 627.442 769.899 626.703 768.489 624.429C767.906 619.418 775.434 615.461 778.553 612.381C780.077 610.877 781.277 608.985 782.478 607.22C780.136 606.795 777.335 606.52 775.163 605.547C773.741 604.911 772.786 604.091 772.255 602.606C772.482 598.801 778.006 595.008 780.364 592.048C781.962 590.041 783.179 587.764 784.4 585.516C781.372 584.771 778.395 583.844 775.409 582.95C781.049 575.82 785.211 568.174 789.118 560.012L782.29 559.724C785.826 551.702 788.708 543.403 792.051 535.297Z"/>
		<path fill="#073E62" d="M510.686 754.294C517.785 761.43 526.402 778.505 532.116 787.64Q558.273 828.669 583.566 870.236C560.244 874.009 537.319 876.839 513.663 877.067C489.045 876.825 465.281 874.773 440.997 870.75C444.508 861.774 450.99 854.205 455.879 845.959Q469.421 822.805 483.618 800.046C492.969 784.934 502.477 770.076 510.686 754.294Z"/>
		<path fill="#FEFEFE" d="M510.815 803.23C512.17 803.464 513.473 803.577 514.527 804.538C516.068 805.943 515.57 809.408 515.546 811.313C516.728 810.388 517.934 809.447 519.207 808.651C520.362 807.928 521.804 807.336 523.179 807.635C523.456 808.043 523.476 807.933 523.39 808.51C522.792 812.559 518.141 815.187 515.067 817.217C515.413 822.74 515.294 828.315 515.312 833.849Q522.39 829.932 529.322 825.763C529.607 823.512 529.845 821.218 530.303 818.996C530.754 816.802 531.389 815.266 533.342 814.003L534.255 814.363C535.613 816.847 535.354 819.607 535.031 822.295C536.384 821.752 537.81 821.096 539.22 820.726C540.42 820.411 541.491 820.349 542.608 820.958L542.809 821.927C541.428 824.675 539.143 825.808 536.613 827.317C537.029 827.488 537.447 827.657 537.856 827.845C540.274 828.954 543.966 830.618 544.963 833.255C544.699 833.43 544.452 833.633 544.172 833.781C540.973 835.466 534.121 831.728 531.267 830.319C527.052 833.663 522.443 836.088 517.69 838.551C522.844 841.237 527.869 844.164 532.919 847.038C535.956 845.284 539.15 843.307 542.8 843.602C544.006 843.699 544.04 843.605 544.846 844.574C544.799 844.739 544.774 844.913 544.704 845.07C543.686 847.368 539.728 848.721 537.567 849.741C539.341 850.788 542.139 852.081 543.221 853.879C543.823 854.879 543.735 855.303 543.427 856.311C539.781 858.014 538.643 854.22 535.448 854.903C535.39 856.762 535.337 858.655 535.058 860.496C534.811 862.128 534.362 862.925 533.039 863.881C532.795 863.689 532.522 863.528 532.306 863.305C530.035 860.96 530.137 854.339 529.891 851.196L515.117 842.883Q515.167 852.077 515.325 861.27C517.924 862.603 521.694 864.54 523.362 866.982C523.98 867.886 523.883 868.053 523.656 869.051L522.355 869.727C520.281 869.661 518.02 868.141 516.182 867.211L515.615 867.411L515.307 871.039C515.095 872.446 514.909 873.41 514.243 874.696L513.262 874.917C512.768 874.665 512.656 874.649 512.214 874.188C510.12 872.005 510.25 868.84 510.294 866.069C508.663 867.205 506.435 869.069 504.319 868.89C503.576 868.827 503.775 868.731 503.276 868.003C503.408 867.294 503.401 867.172 503.7 866.427C504.803 863.682 507.961 862.232 510.447 861.087C510.494 855.214 510.152 849.317 509.941 843.448L495.798 852.016Q495.674 853.512 495.487 855.002C495.142 857.677 494.404 862.212 492.225 863.892L491.551 863.637C489.539 860.884 489.875 858.103 489.939 854.857C489.045 855.28 488.15 855.712 487.238 856.096C485.756 856.719 484.735 857.054 483.174 856.417L482.813 855.475C483.758 852.621 485.961 851.611 488.364 850.168C486.988 849.355 485.515 848.561 484.228 847.613C483.142 846.812 482.281 846.043 482.051 844.661L482.794 844.025C486.762 843.813 489.556 845.246 493.112 846.802Q500.8 842.816 508.416 838.696L494.106 830.428C492.115 831.588 490.065 832.896 487.935 833.775C486.456 834.386 484.315 835.101 482.781 834.439L482.541 833.471C483.553 830.466 485.064 829.525 487.719 827.85C486.352 826.717 484.809 825.496 483.625 824.169C482.714 823.149 482 822.138 482.04 820.725L482.968 820.175C485.352 820.241 487.312 821.428 489.416 822.448C489.524 820.594 489.539 818.458 490.123 816.68C490.477 815.603 490.725 815.196 491.789 814.728C491.943 814.803 492.109 814.856 492.251 814.951C494.978 816.786 495.363 821.945 495.692 824.944Q502.989 829.44 510.5 833.568L510.499 817.804C507.557 815.61 503.64 812.669 502.396 809.099C502.064 808.146 502.097 808.556 502.562 807.567C505.201 807.139 508.394 809.913 510.463 811.34C510.496 808.637 510.681 805.93 510.815 803.23Z"/>
		<path fill="#073E62" d="M529.865 709.926C535.2 715.766 539.138 722.653 543.381 729.286L558.731 752.858Q581.272 787.332 603.28 822.149L619.569 847.725C621.316 850.466 623.467 852.955 625.181 855.713C625.905 856.877 626.645 857.707 626.309 859.059L624.862 859.613L614.164 862.93C596.769 831.858 580.192 800.338 562.632 769.337L543.148 735.449C538.505 727.358 533.076 718.692 529.865 709.926Z"/>
		<path fill="#073E62" d="M484.866 721.456C483.954 728.353 449.973 788.382 444.475 798.505C432.731 820.128 421.533 841.974 409.262 863.313C406.168 862.304 403.126 861.143 400.074 860.015C398.84 859.515 398.307 859.463 397.538 858.347C397.847 856.532 404.062 848.366 405.563 845.953Q430.24 805.957 455.38 766.249C464.933 751.195 474.082 735.661 484.866 721.456Z"/>
		<path fill="#65C7D3" d="M285.12 466.29C293.796 470.491 318.697 495.113 327.366 503.108L314.77 513.919C313.708 513.873 312.883 513.215 312.081 512.592C307.381 508.94 303.068 504.643 298.58 500.715L272.787 478.552Q278.867 472.334 285.12 466.29Z"/>
		<path fill="#FEFEFE" d="M296.962 485.576C303.454 488.669 311.857 496.61 316.56 502.092C316.812 503.616 316.114 504.061 315.267 505.308L314.032 505.41C310.014 503.562 298.16 493.695 296.541 489.648C295.906 488.062 296.49 487.098 296.962 485.576Z"/>
		<path fill="#FEFEFE" d="M285.148 474.495C288.152 476.89 291.339 479.054 294.482 481.261L290.876 485.42C287.617 482.957 284.317 480.652 280.88 478.445C282.253 477.08 283.72 475.801 285.148 474.495Z"/>
		<path fill="#073E62" d="M464.361 600.886C472.54 607.924 507.332 668.901 513.409 681.725C510.247 680.099 506.764 673.108 504.75 670.063C490.051 647.831 475.798 624.997 464.361 600.886Z"/>
	</g>
	<g>
		<path fill="#65C7D3" d="M505.875 146.752C528.677 145.802 551.761 148.147 574.195 152.147C626.819 161.53 676.185 180.276 719.943 211.249Q723.043 213.445 726.099 215.702Q729.155 217.959 732.166 220.277Q735.176 222.594 738.139 224.972Q741.103 227.349 744.018 229.785Q746.933 232.221 749.799 234.715Q752.665 237.209 755.481 239.76Q758.297 242.31 761.061 244.917Q763.825 247.523 766.536 250.184Q769.248 252.845 771.906 255.56Q774.564 258.274 777.167 261.042Q779.77 263.809 782.317 266.628Q784.865 269.446 787.355 272.315Q789.846 275.184 792.278 278.102Q794.711 281.02 797.085 283.987Q799.459 286.953 801.773 289.966Q804.088 292.979 806.341 296.037Q808.595 299.096 810.787 302.199Q812.979 305.302 815.108 308.448Q817.238 311.594 819.304 314.782Q821.371 317.97 823.373 321.199Q825.375 324.428 827.313 327.696Q829.25 330.964 831.122 334.27Q832.993 337.576 834.799 340.919Q836.604 344.262 838.342 347.64Q840.08 351.018 841.751 354.43Q843.421 357.843 845.023 361.287Q846.625 364.732 848.158 368.209Q849.69 371.685 851.153 375.191Q852.617 378.697 854.009 382.232Q855.402 385.767 856.724 389.328Q858.046 392.89 859.296 396.478Q860.547 400.065 861.725 403.677C868.45 424.358 873.209 446.111 876.875 467.545C868.187 459.03 858.902 451.089 849.881 442.929C824.089 419.599 797.72 396.806 772.327 373.058C778.127 358.296 780.671 343.203 776.021 327.736Q775.597 326.322 775.104 324.931Q774.612 323.539 774.052 322.174Q773.492 320.808 772.865 319.471Q772.239 318.135 771.548 316.831Q770.857 315.526 770.103 314.257Q769.349 312.988 768.533 311.758Q767.718 310.528 766.844 309.339Q765.969 308.149 765.037 307.005Q764.106 305.86 763.119 304.762Q762.132 303.664 761.093 302.616Q760.054 301.568 758.965 300.572Q757.875 299.576 756.739 298.634Q755.602 297.692 754.42 296.808Q753.239 295.923 752.015 295.097Q750.792 294.271 749.53 293.506Q748.267 292.741 746.969 292.039C732.55 284.286 715.156 283.665 699.65 288.363C690.694 291.077 681.992 296.121 675.482 302.886C665.141 313.63 658.829 329.083 651.591 342.009C644.02 355.529 636.161 368.861 628.814 382.509C607.55 361.623 585.649 341.323 564.07 320.759C548.442 305.866 533.227 290.547 517.235 276.04C514.401 273.578 511.729 270.918 509.022 268.317Q471.99 304.573 434.502 340.358C420.917 353.502 408.256 367.739 393.521 379.636C384.179 365.22 375.683 349.96 367.177 335.035C361.666 325.363 356.639 315.112 349.387 306.595Q347.626 304.492 345.67 302.57Q343.713 300.648 341.578 298.926Q339.444 297.204 337.152 295.697Q334.86 294.191 332.432 292.915Q331.084 292.214 329.703 291.579Q328.322 290.945 326.912 290.379Q325.501 289.813 324.065 289.317Q322.628 288.821 321.169 288.396Q319.71 287.971 318.232 287.619Q316.754 287.266 315.26 286.986Q313.767 286.706 312.261 286.5Q310.755 286.294 309.242 286.162Q307.728 286.03 306.209 285.972Q304.691 285.914 303.171 285.931Q301.651 285.948 300.135 286.04Q298.618 286.131 297.107 286.297Q295.596 286.463 294.096 286.703Q292.595 286.942 291.108 287.255Q289.621 287.568 288.151 287.954Q286.681 288.34 285.232 288.797Q283.882 289.247 282.555 289.762Q281.228 290.277 279.927 290.856Q278.627 291.435 277.357 292.077Q276.086 292.719 274.848 293.422Q273.611 294.125 272.409 294.887Q271.207 295.65 270.044 296.47Q268.881 297.29 267.759 298.166Q266.637 299.043 265.559 299.972Q264.481 300.902 263.45 301.883Q262.419 302.864 261.437 303.895Q260.455 304.925 259.524 306.002Q258.594 307.079 257.717 308.2Q256.84 309.321 256.018 310.484Q255.197 311.646 254.434 312.848Q253.67 314.049 252.966 315.286Q252.262 316.523 251.619 317.793C242.732 335.66 244.95 351.97 251.012 370.23C240.224 381.268 228.603 391.453 217.344 402C203.927 414.569 190.811 427.461 177.34 439.972C167.932 448.709 158.011 456.697 149.203 466.084Q149.659 462.671 150.178 459.266Q150.697 455.862 151.28 452.468Q151.862 449.074 152.508 445.691Q153.153 442.308 153.861 438.938Q154.569 435.568 155.34 432.211Q156.111 428.855 156.944 425.514Q157.777 422.172 158.671 418.847Q159.566 415.521 160.523 412.213Q161.479 408.905 162.497 405.615Q163.515 402.325 164.593 399.054Q165.672 395.784 166.812 392.534Q167.951 389.284 169.15 386.056Q170.35 382.828 171.609 379.623Q172.869 376.418 174.187 373.236Q175.506 370.055 176.883 366.899Q178.261 363.743 179.697 360.613Q181.133 357.482 182.627 354.38Q184.121 351.277 185.672 348.202Q187.223 345.128 188.831 342.082Q190.439 339.037 192.104 336.022Q193.768 333.008 195.488 330.024Q197.209 327.041 198.984 324.09Q200.759 321.139 202.589 318.222Q204.419 315.305 206.303 312.422Q208.186 309.539 210.123 306.691Q212.06 303.844 214.05 301.033Q216.04 298.222 218.081 295.449Q220.122 292.675 222.215 289.94Q224.308 287.205 226.451 284.51Q228.594 281.814 230.787 279.159Q232.979 276.503 235.221 273.889Q237.463 271.275 239.753 268.703Q242.25 265.896 244.804 263.141Q247.359 260.387 249.97 257.685Q252.581 254.984 255.247 252.337Q257.913 249.69 260.633 247.099Q263.353 244.508 266.126 241.973Q268.9 239.439 271.724 236.962Q274.549 234.486 277.425 232.068Q280.3 229.651 283.225 227.293Q286.15 224.935 289.123 222.638Q292.096 220.341 295.116 218.107Q298.136 215.872 301.201 213.7Q304.266 211.528 307.376 209.42Q310.486 207.311 313.638 205.268Q316.79 203.224 319.984 201.247Q323.178 199.269 326.413 197.357Q329.647 195.446 332.92 193.601Q336.193 191.757 339.503 189.981Q342.814 188.205 346.16 186.497Q349.507 184.79 352.888 183.152Q356.268 181.514 359.683 179.946Q363.097 178.379 366.542 176.882Q369.988 175.385 373.464 173.96Q376.94 172.535 380.445 171.181Q383.95 169.828 387.481 168.548Q391.013 167.267 394.571 166.06Q398.128 164.853 401.71 163.72Q405.292 162.586 408.896 161.527Q412.501 160.468 416.126 159.483Q419.752 158.499 423.397 157.59Q427.042 156.68 430.705 155.846Q434.368 155.013 438.048 154.255Q441.728 153.497 445.422 152.815C465.413 149.2 485.625 147.918 505.875 146.752ZM503.693 203.507C495.002 203.383 486.283 202.921 477.596 202.989C484.135 208.859 490.752 214.672 498.303 219.236C494.821 228.288 491.899 237.246 489.381 246.611C493.017 243.941 509.009 231.287 511.799 230.543L512.817 230.917C520.058 236.072 527.263 241.511 534.879 246.101C532.313 236.868 529.358 227.904 526.087 218.9C533.449 213.955 541.023 208.99 547.014 202.377C538.38 202.94 529.481 202.842 520.923 203.926C519.386 198.587 515.41 182.765 511.479 179.723C508.647 187.418 505.222 195.428 503.693 203.507Z"/>
		<path fill="#FEFEFE" d="M402.549 237.4C405.909 242.35 407.624 248.273 409.531 253.891L427.659 254.078C422.526 257.596 417.143 260.823 411.881 264.152Q414.984 273.436 417.956 282.763C413.15 279.424 408.469 275.865 403.743 272.41L403.216 272.169C398.799 271.989 391.193 279.407 387.75 282.237C389.275 276.324 391.01 270.552 392.889 264.743C388.03 260.913 382.97 257.322 378.088 253.512Q387.372 253.465 396.651 253.187C398.381 247.848 400.209 242.505 402.549 237.4Z"/>
		<path fill="#FEFEFE" d="M621.191 237.366C624.932 241.076 626.449 248.961 627.984 253.924L645.697 253.928Q638.615 259.393 631.151 264.323Q633.951 272.766 637.028 281.113C631.838 278.297 626.939 275.184 622.011 271.943C616.721 273.92 611.927 278.271 607.468 281.68C609.526 276.027 610.892 270.124 612.265 264.277C607.383 260.39 601.901 257.184 596.845 253.507Q606.104 253.48 615.362 253.575C617.491 248.271 619.265 242.753 621.191 237.366Z"/>
	</g>
</svg>
