<?xml version="1.0" encoding="utf-8" ?>
<svg xmlns="http://www.w3.org/2000/svg" xmlns:xlink="http://www.w3.org/1999/xlink" width="1024" height="1024">
	<g>
		<path fill="#083D60" d="M496.82 119.718C496.95 119.707 497.079 119.692 497.209 119.685C513.685 118.773 530.596 119.685 547.02 121.141Q550.921 121.47 554.814 121.878Q558.708 122.286 562.592 122.772Q566.476 123.259 570.35 123.824Q574.224 124.389 578.085 125.032Q581.947 125.675 585.795 126.396Q589.643 127.117 593.475 127.916Q597.307 128.714 601.123 129.591Q604.938 130.467 608.735 131.42Q612.532 132.373 616.309 133.402Q620.086 134.432 623.841 135.538Q627.596 136.643 631.329 137.825Q635.061 139.006 638.768 140.263Q642.476 141.52 646.157 142.851Q649.839 144.183 653.492 145.588Q657.146 146.994 660.77 148.473Q664.395 149.952 667.989 151.504Q671.583 153.056 675.144 154.681Q678.706 156.305 682.234 158.002Q685.763 159.698 689.256 161.465Q692.749 163.232 696.206 165.07Q699.662 166.907 703.081 168.814Q706.5 170.721 709.88 172.697Q713.259 174.672 716.598 176.716Q719.937 178.76 723.234 180.87Q726.531 182.981 729.785 185.158Q733.038 187.335 736.247 189.577Q739.456 191.82 742.619 194.126Q745.782 196.433 748.897 198.803Q752.013 201.173 755.08 203.606Q758.147 206.039 761.164 208.533Q764.182 211.027 767.148 213.582Q770.114 216.137 773.028 218.751Q776.655 221.976 780.201 225.29Q783.748 228.603 787.212 232.003Q790.675 235.402 794.055 238.886Q797.434 242.37 800.726 245.936Q804.018 249.502 807.222 253.148Q810.426 256.794 813.539 260.518Q816.652 264.241 819.672 268.04Q822.693 271.839 825.619 275.712Q828.545 279.584 831.374 283.527Q834.204 287.47 836.936 291.482Q839.668 295.493 842.3 299.571Q844.933 303.648 847.464 307.79Q849.995 311.931 852.424 316.133Q854.853 320.335 857.177 324.596Q859.502 328.856 861.72 333.173Q863.939 337.489 866.052 341.859Q868.164 346.229 870.167 350.649Q872.171 355.07 874.066 359.538Q875.96 364.007 877.744 368.52Q879.528 373.034 881.201 377.59Q882.873 382.146 884.433 386.742Q885.993 391.338 887.439 395.971Q888.885 400.604 890.217 405.272Q891.549 409.939 892.765 414.637Q893.982 419.336 895.082 424.063Q896.183 428.79 897.167 433.543Q898.15 438.295 899.017 443.071Q899.884 447.846 900.633 452.642Q901.381 457.437 902.012 462.249Q902.643 467.061 903.155 471.888Q903.667 476.714 904.06 481.552Q904.453 486.389 904.727 491.235C910.146 600.06 873.162 698.394 800.124 778.779C748.641 835.44 674.173 877.172 599.681 894.246Q582.272 898.062 564.601 900.375Q546.929 902.688 529.125 903.481C511.787 903.881 494.498 903.838 477.204 902.364Q471.145 901.829 465.104 901.108Q459.064 900.387 453.049 899.481Q447.034 898.576 441.049 897.486Q435.065 896.396 429.116 895.123Q423.168 893.849 417.262 892.394Q411.355 890.939 405.496 889.304Q399.637 887.668 393.831 885.853Q388.025 884.039 382.277 882.047Q376.53 880.055 370.846 877.888Q365.162 875.72 359.548 873.38Q353.933 871.039 348.393 868.527Q342.853 866.015 337.392 863.334Q331.932 860.653 326.556 857.806Q321.18 854.959 315.895 851.949Q310.609 848.938 305.418 845.767Q300.227 842.595 295.136 839.266C276.656 826.936 259.661 812.972 243.239 798.048C225.827 782.224 210.111 763.922 196.174 744.997Q194.041 742.155 191.961 739.274Q189.882 736.393 187.856 733.474Q185.83 730.556 183.858 727.599Q181.887 724.643 179.97 721.651Q178.054 718.659 176.193 715.632Q174.332 712.605 172.528 709.544Q170.724 706.483 168.977 703.389Q167.229 700.296 165.54 697.17Q163.85 694.044 162.219 690.888Q160.588 687.731 159.015 684.545Q157.443 681.359 155.929 678.144Q154.416 674.929 152.963 671.687Q151.509 668.444 150.116 665.176Q148.723 661.907 147.391 658.613Q146.059 655.319 144.788 652.001Q143.517 648.683 142.308 645.342Q141.098 642.001 139.951 638.638Q138.804 635.275 137.72 631.891Q136.635 628.508 135.613 625.104Q134.592 621.701 133.633 618.28Q132.675 614.858 131.78 611.42Q130.885 607.981 130.054 604.526Q129.223 601.072 128.456 597.602Q127.69 594.133 126.987 590.65Q126.285 587.167 125.647 583.671Q125.01 580.176 124.437 576.669Q123.864 573.162 123.356 569.646Q122.849 566.129 122.406 562.604Q121.964 559.078 121.587 555.545Q121.21 552.012 120.898 548.472Q120.587 544.933 120.341 541.388Q120.095 537.844 119.915 534.295Q119.647 529.421 119.5 524.542Q119.353 519.662 119.327 514.781Q119.301 509.9 119.396 505.019Q119.491 500.139 119.707 495.262Q119.923 490.385 120.259 485.515Q120.596 480.646 121.053 475.786Q121.51 470.926 122.087 466.078Q122.665 461.231 123.362 456.4Q124.059 451.569 124.876 446.756Q125.693 441.943 126.629 437.152Q127.565 432.362 128.619 427.595Q129.673 422.829 130.845 418.09Q132.017 413.352 133.306 408.643Q134.595 403.935 136 399.26Q137.406 394.586 138.926 389.947Q140.447 385.309 142.082 380.709Q143.717 376.11 145.466 371.552Q147.215 366.995 149.076 362.482Q150.937 357.969 152.909 353.504Q154.881 349.039 156.963 344.624Q159.046 340.208 161.237 335.846Q163.428 331.484 165.726 327.178Q168.024 322.871 170.429 318.623Q172.833 314.375 175.342 310.187Q177.851 306 180.463 301.876Q183.075 297.752 185.788 293.694Q188.501 289.637 191.314 285.647Q194.127 281.658 197.038 277.739Q199.949 273.821 202.956 269.975Q205.964 266.13 209.065 262.361Q212.167 258.591 215.361 254.9Q218.555 251.208 221.839 247.597Q225.113 243.997 228.475 240.48Q231.838 236.963 235.287 233.531Q238.735 230.098 242.268 226.753Q245.801 223.407 249.416 220.15Q253.031 216.893 256.726 213.727Q260.421 210.561 264.193 207.487Q267.965 204.414 271.812 201.435Q275.66 198.456 279.58 195.574Q283.5 192.691 287.491 189.907Q291.481 187.123 295.54 184.439Q299.598 181.755 303.722 179.172Q307.846 176.59 312.033 174.11Q316.22 171.631 320.467 169.257Q324.714 166.882 329.018 164.614Q333.323 162.345 337.683 160.185Q342.042 158.024 346.454 155.972Q350.866 153.92 355.328 151.979Q359.79 150.037 364.298 148.207Q368.807 146.377 373.359 144.659Q377.912 142.941 382.505 141.337Q387.099 139.733 391.731 138.244Q396.364 136.754 401.031 135.38Q405.699 134.006 410.4 132.749Q415.1 131.491 419.83 130.351Q424.561 129.21 429.318 128.188Q434.075 127.165 438.856 126.261Q443.637 125.357 448.439 124.571Q453.241 123.786 458.061 123.12Q462.881 122.455 467.716 121.909Q472.551 121.363 477.398 120.938Q482.245 120.512 487.101 120.207Q491.958 119.902 496.82 119.718Z"/>
		<path fill="#FEFEFE" d="M133.919 497.91C133.848 485.721 135.342 473.338 136.896 461.263Q137.404 457.51 137.987 453.768Q138.57 450.027 139.228 446.297Q139.885 442.568 140.618 438.852Q141.351 435.137 142.158 431.437Q142.965 427.737 143.846 424.054Q144.727 420.371 145.682 416.706Q146.637 413.042 147.665 409.397Q148.693 405.752 149.794 402.129Q150.896 398.505 152.069 394.905Q153.243 391.304 154.488 387.728Q155.734 384.152 157.051 380.601Q158.368 377.051 159.757 373.528Q161.145 370.004 162.603 366.509Q164.062 363.015 165.59 359.55Q167.119 356.085 168.717 352.651Q170.314 349.218 171.98 345.817Q173.647 342.417 175.381 339.05Q177.115 335.683 178.916 332.352Q180.718 329.021 182.586 325.727Q184.453 322.433 186.387 319.176Q188.321 315.92 190.319 312.704Q192.318 309.487 194.38 306.311Q196.443 303.135 198.569 300.001Q200.695 296.867 202.884 293.777Q205.072 290.686 207.322 287.64Q209.572 284.594 211.883 281.594Q214.194 278.594 216.564 275.64Q218.935 272.687 221.364 269.782Q223.793 266.877 226.28 264.021Q228.767 261.165 231.311 258.36Q233.855 255.554 236.455 252.801Q239.055 250.047 241.709 247.346C315.081 172.991 406.836 134.578 511.381 133.995Q516.012 133.95 520.642 134.02Q525.272 134.089 529.9 134.274Q534.527 134.459 539.148 134.758Q543.769 135.057 548.382 135.471Q552.994 135.885 557.595 136.413Q562.195 136.941 566.782 137.583Q571.368 138.225 575.937 138.981Q580.505 139.736 585.054 140.605Q589.603 141.473 594.129 142.454Q598.654 143.436 603.154 144.529Q607.655 145.622 612.126 146.826Q616.598 148.031 621.038 149.345Q625.478 150.66 629.885 152.085Q634.291 153.51 638.661 155.043Q643.03 156.576 647.36 158.218Q651.691 159.859 655.979 161.607Q660.267 163.356 664.511 165.21Q668.754 167.064 672.95 169.022Q677.147 170.981 681.293 173.043Q685.44 175.105 689.534 177.27Q693.627 179.434 697.667 181.699Q701.706 183.965 705.687 186.329Q709.669 188.694 713.591 191.157Q717.512 193.619 721.372 196.179Q725.231 198.738 729.026 201.392Q732.821 204.046 736.549 206.794Q740.277 209.541 743.935 212.38Q747.594 215.219 751.181 218.148Q754.768 221.077 758.281 224.094Q761.794 227.111 765.232 230.214Q768.669 233.317 772.028 236.505Q775.388 239.692 778.667 242.962Q781.482 245.752 784.238 248.601Q786.994 251.449 789.69 254.355Q792.386 257.26 795.021 260.221Q797.656 263.182 800.228 266.197Q802.801 269.213 805.31 272.281Q807.819 275.349 810.264 278.469Q812.708 281.589 815.087 284.76Q817.466 287.93 819.778 291.149Q822.091 294.368 824.335 297.635Q826.58 300.902 828.756 304.215Q830.932 307.528 833.038 310.885Q835.145 314.243 837.181 317.643Q839.217 321.044 841.181 324.486Q843.146 327.929 845.038 331.412Q846.931 334.894 848.75 338.416Q850.569 341.937 852.315 345.496Q854.06 349.054 855.731 352.648Q857.402 356.243 858.997 359.871Q860.593 363.499 862.112 367.16Q863.632 370.821 865.074 374.512Q866.517 378.204 867.883 381.925Q869.248 385.646 870.536 389.395Q871.823 393.143 873.033 396.918Q874.242 400.693 875.372 404.492Q876.502 408.291 877.552 412.113Q878.603 415.934 879.574 419.777Q880.544 423.62 881.435 427.482Q882.325 431.345 883.135 435.225Q883.944 439.105 884.673 443.001Q885.401 446.897 886.048 450.807Q886.695 454.718 887.26 458.641Q887.826 462.564 888.309 466.498C889.609 477.15 890.909 488.052 891.206 498.781L810.176 425.557C795.074 411.89 779.632 398.548 764.943 384.439L701.266 472.825C709.325 465.621 716.731 457.652 724.361 450C731.736 442.604 739.405 435.469 746.677 427.982C752.603 421.881 758.155 415.399 763.889 409.119C765.691 413.056 768.017 416.919 769.421 421C767.745 422.993 766.009 424.96 764.402 427.009C767.572 430.094 768.762 432.21 769.874 436.584C767.021 437.983 764.652 439.544 762.152 441.501C766.267 443.372 768.729 445.344 771.607 448.816C768.333 451.584 764.67 454.137 761.659 457.168C765.937 459.194 770.092 461.345 774.135 463.815C768.255 473.315 760.234 480.769 752.615 488.814Q741.961 500.243 731.439 511.794C751.54 499.993 769.549 483.656 787.872 469.327C793.335 464.039 799.908 459.579 805.609 454.479C797.496 442.943 787.501 432.032 778.172 421.458C773.703 416.393 768.835 411.517 764.993 405.955C771.527 410.964 777.459 416.626 783.746 421.926Q815.694 449.051 846.518 477.447C855.863 485.947 865.232 494.393 874.459 503.026C880.343 508.531 886.625 514.143 891.785 520.346C891.219 533.799 890.477 547.218 888.647 560.568Q888.083 564.68 887.431 568.78Q886.778 572.879 886.036 576.963Q885.295 581.047 884.465 585.114Q883.635 589.181 882.716 593.229Q881.798 597.277 880.792 601.304Q879.786 605.331 878.693 609.335Q877.6 613.339 876.42 617.319Q875.24 621.299 873.974 625.252Q872.708 629.205 871.357 633.129Q870.005 637.054 868.568 640.948Q867.132 644.843 865.611 648.705Q864.09 652.567 862.486 656.395Q860.882 660.224 859.195 664.016Q857.508 667.809 855.739 671.564Q853.97 675.318 852.12 679.034Q850.269 682.75 848.339 686.424Q846.409 690.099 844.399 693.731Q842.389 697.363 840.301 700.95Q838.213 704.537 836.047 708.078Q833.881 711.62 831.639 715.113Q829.397 718.606 827.08 722.05Q824.763 725.494 822.371 728.886Q819.98 732.279 817.515 735.619Q815.05 738.958 812.514 742.244Q809.977 745.53 807.37 748.759Q804.762 751.989 802.085 755.161Q799.408 758.333 796.663 761.447Q793.918 764.56 791.106 767.613Q788.293 770.666 785.416 773.657Q782.538 776.649 779.596 779.577Q776.654 782.505 773.648 785.368Q770.644 788.231 767.577 791.029Q764.102 794.174 760.55 797.232Q756.999 800.291 753.374 803.261Q749.749 806.232 746.053 809.113Q742.356 811.995 738.59 814.785Q734.824 817.575 730.991 820.272Q727.158 822.969 723.26 825.571Q719.363 828.174 715.402 830.68Q711.442 833.187 707.422 835.595Q703.401 838.004 699.323 840.314Q695.245 842.624 691.112 844.833Q686.978 847.043 682.792 849.15Q678.606 851.258 674.369 853.262Q670.133 855.267 665.849 857.167Q661.565 859.068 657.235 860.863Q652.906 862.658 648.534 864.347Q644.162 866.035 639.75 867.617Q635.338 869.198 630.888 870.671Q626.439 872.143 621.955 873.507Q617.471 874.871 612.955 876.124Q608.439 877.378 603.893 878.521Q599.348 879.663 594.776 880.695Q590.204 881.726 585.608 882.645Q581.013 883.564 576.396 884.37Q571.779 885.177 567.144 885.87Q562.508 886.564 557.858 887.143Q553.207 887.723 548.543 888.189Q543.88 888.655 539.206 889.006Q534.532 889.358 529.852 889.595Q525.171 889.833 520.486 889.955Q515.8 890.078 511.114 890.086Q506.427 890.094 501.741 889.988Q497.056 889.881 492.374 889.66C397.528 885.634 300.301 840.927 236.008 770.972C196.107 727.557 166.896 678.945 149.524 622.503C146.109 611.407 142.923 600.261 140.639 588.871C135.95 565.489 133.857 541.881 133.067 518.074L202.51 453.253C212.624 443.719 222.546 434.011 232.827 424.651C237.565 420.338 242.276 415.757 247.488 412.014C247.09 420.376 246.398 428.719 245.997 437.08C245.75 442.237 245.985 447.899 245.159 452.965C244.933 454.353 244.593 455.12 243.58 456.086C242.91 456.724 242.131 457.283 241.397 457.845C246.302 459.34 251.012 461.012 255.758 462.958C239.245 479.756 220.54 494.875 204.948 512.553C225.979 498.886 245.82 484.159 265.295 468.378C271.109 463.667 277.476 459.144 282.897 454.024L265.199 428.914C260.306 421.984 254.625 414.696 251.19 406.923C256.942 411.304 261.933 417.057 266.956 422.243C275.982 431.563 285.143 441.319 294.58 450.18C303.514 458.567 314.18 464.95 322.803 473.782L302.131 443.459C296.676 435.325 291.61 426.898 285.24 419.428C275.132 407.575 262.891 397.832 252.265 386.512C225.797 413.44 197.387 438.789 169.633 464.399C157.708 475.403 145.208 486.265 133.919 497.91Z"/>
		<path fill="#DBDDDD" d="M805.609 454.479C819.85 471.14 837.14 485.022 853.613 499.38C862.137 506.81 870.172 514.742 878.599 522.263C877.331 539.551 876.589 557.469 873.284 574.485C861.509 556.288 849.903 538.693 835.744 522.186C820.311 504.194 802.848 487.708 787.872 469.327C793.335 464.039 799.908 459.579 805.609 454.479Z"/>
		<path fill="#083D60" d="M508.807 289.815C510.405 290.503 621.013 395.831 631.545 406.893C641.901 390.008 651.675 372.361 661.021 354.885C666.845 343.995 672.173 332.458 679.067 322.199C686.807 310.681 696.365 302.484 710.296 299.777Q711.403 299.567 712.518 299.412Q713.634 299.257 714.756 299.158Q715.877 299.058 717.003 299.014Q718.128 298.97 719.254 298.982Q720.381 298.994 721.505 299.061Q722.629 299.129 723.749 299.251Q724.868 299.374 725.98 299.553Q727.092 299.731 728.194 299.964Q729.296 300.197 730.385 300.484Q731.474 300.771 732.547 301.112Q733.621 301.452 734.676 301.846Q735.732 302.239 736.766 302.684Q737.801 303.129 738.812 303.625Q739.823 304.121 740.809 304.666Q741.794 305.211 742.752 305.804Q743.709 306.397 744.636 307.037C754.868 314.078 761.712 325.581 763.876 337.758C765.795 348.556 763.476 360.006 758.235 369.559C754.884 375.668 750.353 381.009 746.155 386.539Q739.342 395.595 732.661 404.749Q709.503 436.508 687.36 468.981Q641.127 535.52 596.82 603.358L562.268 656.1C557.18 663.88 552.405 671.858 547.067 679.472C557.692 698.096 569.967 716.078 581.692 734.033L626.439 803.368L643.902 830.706C647.543 836.414 651.606 842.135 654.569 848.222C650.44 850.065 646.253 851.85 641.865 852.973C603.196 790.632 561.504 730.129 523.357 667.45C512.863 650.208 503.831 632.177 493.805 614.683C486.052 601.155 477.504 588.086 470.168 574.324C459.082 581.027 448.079 587.987 436.483 593.783C444.98 605.863 452.855 618.414 461.074 630.688Q494.047 679.975 526.356 729.7C533.978 741.555 541.106 753.727 548.738 765.584L586.009 823.569C594.623 836.738 604.122 849.706 611.372 863.695C606.645 865.339 601.625 866.381 596.712 867.296L592.647 861.225C585.765 850.858 579.377 840.13 572.775 829.581L538.47 774.788C529.698 760.709 520.766 744.649 510.408 731.802C499.094 749.962 488.574 768.667 477.343 786.899L447.781 835.221C441.132 846.077 434.24 856.8 428.004 867.904Q420.109 865.909 412.189 864.018C423.456 845.501 435.23 827.348 446.729 808.977L502.479 719.445C496.404 710.332 490.569 701.061 484.463 691.968C472.336 709.239 461.624 728.156 450.578 746.148C435.065 771.414 419.104 796.493 403.069 821.432C396.144 832.202 389.541 843.452 381.989 853.778L369.652 848.695C372.773 842.467 376.875 836.519 380.583 830.605Q393.101 810.919 405.845 791.378Q441.244 735.817 476.026 679.867C461.425 656.041 445.601 632.891 430.474 609.388C417.996 590.001 406.158 570.178 393.582 550.846C386.31 539.666 378.437 528.839 370.994 517.764L320.204 442.283C311.343 429.329 302.414 416.36 292.633 404.081C283.656 392.809 272.611 382.158 265.646 369.508C259.153 357.714 256.859 343.919 260.743 330.857Q261.067 329.782 261.444 328.725Q261.821 327.667 262.25 326.629Q262.678 325.592 263.157 324.576Q263.637 323.561 264.165 322.57Q264.694 321.58 265.27 320.617Q265.847 319.654 266.471 318.72Q267.094 317.786 267.763 316.884Q268.431 315.983 269.144 315.115Q269.856 314.247 270.61 313.415Q271.365 312.584 272.159 311.79Q272.953 310.997 273.785 310.243Q274.618 309.49 275.486 308.778Q276.355 308.067 277.257 307.399Q278.16 306.731 279.094 306.109Q280.028 305.486 280.992 304.91Q281.956 304.335 282.947 303.807C293.264 298.283 305.955 297.586 317.059 301.079C325.906 303.863 333.997 309.382 340.077 316.353C347.234 324.559 351.545 335.696 356.907 345.185C367.928 364.692 379.513 384.001 389.901 403.85Q429.185 367.164 467.94 329.921C481.556 316.818 496.263 303.933 508.807 289.815Z"/>
		<path fill="#FEFEFE" d="M502.414 318.433C503.766 320.064 510.036 362.58 510.881 367.919C504.427 372.413 497.681 376.552 491.14 380.932C499.257 382.38 507.343 383.845 515.5 385.063L517.419 393.393C510.094 404.056 500.909 413.289 492.486 423.073C479.27 438.424 466.22 454.339 452.31 469.049C463.458 462.265 473.538 453.361 483.724 445.232C511.266 423.251 537.745 399.833 564.758 377.198C547.701 362.464 528.44 337.848 516.28 318.918C526.849 328.473 536.885 338.806 547.285 348.58L594.024 391.692C604.321 401.327 614.23 411.686 625.072 420.685L617.557 433.947L535.264 576.997C527.467 590.659 518.726 603.816 511.249 617.649Q474.563 555.066 439.565 491.524L413.576 445.146C408.567 436.081 403.284 427.048 398.893 417.664C406.24 411.164 413.128 404.01 420.248 397.248L474.24 345.275C483.488 336.338 492.544 326.65 502.414 318.433Z"/>
		<path fill="#DBDDDD" d="M569.96 388.927C574.263 391.447 578.391 396.376 582.028 399.867C590.209 407.722 598.551 415.469 606.25 423.803Q596.089 442.176 585.031 460.024L584.24 460.183C574.746 447.028 562.778 435.476 552.318 423.052C549.52 419.729 546.69 416.37 547.238 411.707C547.999 405.223 564.906 393.068 569.96 388.927Z"/>
		<path fill="#FEFEFE" d="M552.451 575.014C563.302 581.945 574.551 588.336 585.713 594.752C570.941 619.383 553.242 642.38 539.028 667.291C536.415 662.166 533.333 657.243 530.418 652.284Q536.325 642.288 541.964 632.139C544.448 627.718 555.348 608.198 555.998 604.486C552.817 608.152 550.322 612.675 547.681 616.744C541.188 626.75 534.904 637.408 527.375 646.651C524.237 642.094 521.596 637.104 518.809 632.323C529.407 612.961 540.99 593.882 552.451 575.014Z"/>
		<path fill="#FEFEFE" d="M598.105 493.842C600.929 496.793 603.731 498.176 607.393 499.826C605.973 502.856 604.065 505.786 602.385 508.685C606.275 511.497 610.382 513.847 614.557 516.197L616.857 510.999C615.206 509.955 612.776 508.75 611.631 507.151C610.95 506.2 610.725 506.042 610.97 504.867C611.116 504.813 611.256 504.74 611.407 504.705C614.88 503.893 618.657 507.106 621.272 508.963L616.153 517.374C618.742 519.009 621.215 520.397 624.041 521.586L630.086 512.642L637.831 517.366C631.369 527.383 625.01 537.483 617.894 547.054C616.034 545.836 613.725 545.043 612.024 543.71C611.344 543.177 611.502 542.916 611.39 542.119C612.073 540.15 613.552 537.265 615.215 535.927C616.068 535.24 617.465 535.734 618.532 535.859C619.74 534.965 619.892 534.979 620.277 533.55C619.254 530.32 614.107 527.846 611.32 526.052L602.933 539.205L601.035 543.136C605.258 546.392 609.855 549.161 614.131 552.351L614.087 553.04C613.367 553.691 613.572 553.785 612.746 553.755C610.035 553.657 588.125 539.469 584.514 536.863C581.83 534.925 579.426 532.811 577.056 530.505L577.855 530.86C581.968 532.647 591.214 539.863 595.131 539.248C599.605 538.546 605.673 527.803 608.254 524.134C604.771 521.763 601.374 519.357 598.073 516.739C595.695 521.468 592.704 526.023 590.035 530.609L587.292 528.878C585.169 527.552 583.562 526.464 581.966 524.508C582.719 523.085 583.629 520.795 584.815 519.693C586.073 518.525 587.903 519.181 589.417 519.401C590.95 518.65 591.6 516.761 592.339 515.291L587.903 511.864C590.911 505.682 594.501 499.693 598.105 493.842Z"/>
		<path fill="#FEFEFE" d="M700.992 334.971L701.361 335.352C699.825 342.518 667.886 391.385 661.166 402.313C651.69 417.724 642.572 433.334 633.008 448.7L632.767 448.616L632.519 448.016C642.035 427.424 653.799 407.822 665.322 388.314C671.283 378.221 676.937 367.957 682.946 357.889C685.825 353.066 689.969 343.882 693.272 339.963C694.789 338.163 698.37 336.995 700.401 335.43L700.992 334.971Z"/>
		<path fill="#FEFEFE" d="M296.228 338.223C296.376 338.326 296.533 338.418 296.674 338.532C298.981 340.392 300.831 343.674 302.371 346.17C310.413 359.194 371.202 467.315 371.81 472.511C366.66 465.901 362.743 458.152 358.51 450.933L334.241 409.184C324.141 391.941 314.039 374.749 304.259 357.32C301.915 353.142 297.044 345.906 295.695 341.693C295.222 340.214 295.702 339.577 296.228 338.223Z"/>
		<path fill="#FEFEFE" d="M306.955 336.584C307.979 336.582 309.051 336.533 310.055 336.75C311.487 337.058 311.97 337.773 312.755 338.939C318.172 346.98 322.123 356.402 326.9 364.88Q343.419 394.333 359.227 424.173C366.177 437.115 372.928 450.114 380.468 462.73C374.7 459.146 330.729 380.188 323.218 366.607C317.711 356.648 312.718 346.4 306.955 336.584Z"/>
		<path fill="#FEFEFE" d="M711.421 337.996L711.665 338.284C711.062 343.453 652.567 438.311 644.991 449.605L644.845 449.576L644.62 448.947Q663.513 412.393 684.623 377.073C690.105 367.707 695.121 357.286 701.547 348.573C704.45 344.636 707.852 341.322 711.421 337.996Z"/>
		<path fill="#FEFEFE" d="M721.192 342.504C721.853 347.924 662.463 443.45 654.729 454.977C654.733 454.799 654.705 454.617 654.739 454.441C655.633 449.797 705.528 361.892 712.595 351.339C714.756 348.112 718.368 345.207 721.192 342.504Z"/>
		<path fill="#FEFEFE" d="M323.544 340.791C323.831 340.899 324.122 340.994 324.403 341.115C326.254 341.917 328.517 343.334 329.686 345.011C334.339 351.686 338.169 360.681 342.039 367.967L371.393 423.691C378.065 436.285 386.894 448.49 392.264 461.652C388.868 458.621 386.013 452.551 383.578 448.668C371.811 429.905 361.082 410.617 350.335 391.262C341.115 374.659 331.669 357.954 323.544 340.791Z"/>
		<path fill="#FEFEFE" d="M285.856 342.834C286.13 343.029 286.457 343.241 286.705 343.48C290.491 347.134 352.667 458.974 352.758 461.516C345.511 451.948 338.241 438.119 331.812 427.467C317.641 403.99 302.189 379.246 289.842 354.92C288.15 351.586 284.687 346.398 285.856 342.834Z"/>
		<path fill="#FEFEFE" d="M734.896 340.031L735.209 340.555C727.678 358.908 716.623 375.263 706.437 392.171C695.293 410.67 684.533 429.3 672.58 447.31L672.208 447.059C673.895 441.253 683.371 426.545 686.923 420.184C698.83 398.857 710.007 376.841 722.964 356.14C726.528 350.446 730.402 345.03 734.896 340.031Z"/>
		<path fill="#FEFEFE" d="M408.702 508.023C412.433 507.848 415.718 508.426 419.279 509.423C418.703 517.5 413.529 522.927 411.793 530.712C408.914 530.602 406.206 530.083 403.386 529.532C400.541 529.004 397.748 528.466 394.852 528.314C394.057 526.903 393.158 525.455 392.512 523.971C391.956 522.693 392.007 521.805 392.487 520.498C395.007 517.961 401.952 518.319 405.507 517.842C405.377 513.541 405.779 511.288 408.702 508.023Z"/>
		<path fill="#FEFEFE" d="M611.174 472.234C616.964 474.764 622.638 479.108 628.054 482.435C636.008 487.321 644.192 491.824 652.036 496.888C650.803 498.722 649.469 500.492 648.169 502.28C636.315 496.867 619.244 485.342 607.429 478.232C608.531 476.124 609.844 474.201 611.174 472.234Z"/>
		<path fill="#FEFEFE" d="M336.007 343.286C338.285 344.4 339.798 346.942 341.184 348.985C345.894 355.929 349.865 363.36 354.036 370.632L371.77 401.646Q381.03 418.042 389.896 434.655C393.147 440.719 396.772 446.793 399.314 453.182C396.001 450.119 390.188 438.781 387.543 434.389C369.515 404.457 351.942 374.404 336.007 343.286Z"/>
		<path fill="#FEFEFE" d="M572.744 537.337C578.011 539.611 582.776 543.018 587.66 546L609.914 559.344L606.421 565.652C593.798 559.131 581.601 550.8 569.445 543.391C570.356 541.284 571.594 539.321 572.744 537.337Z"/>
		<path fill="#FEFEFE" d="M426.615 498.511C427.478 498.524 428.084 498.603 428.913 498.78C433.196 502.774 435.88 510.073 438.485 515.278Q433.667 518.002 428.764 520.572C426.229 521.723 423.908 523.405 421.572 524.913C420.599 524.374 420.863 524.735 420.493 523.684C418.455 517.901 420.354 506.695 422.976 501.282C423.851 499.477 424.834 499.113 426.615 498.511Z"/>
		<path fill="#FEFEFE" d="M413.306 472.938L414.013 472.959C415.282 474.171 415.814 476.199 416.439 477.823L377.022 501.052C375.641 500.143 374.496 498.312 373.448 497.022C386.93 489.282 399.546 480.275 413.306 472.938Z"/>
		<path fill="#FEFEFE" d="M447.562 530.407C449.079 531.25 450.026 533.455 450.939 534.936Q432.672 546.411 414.237 557.615L413.606 557.508C412.127 556.516 411.45 554.824 410.639 553.292C422.686 545.339 435.294 538.03 447.562 530.407Z"/>
		<path fill="#FEFEFE" d="M742.53 344.856C742.606 345.127 742.71 345.392 742.757 345.67C743.063 347.458 742.232 349.865 741.537 351.477C737.827 360.079 732.42 368.27 727.588 376.296C716.053 395.457 703.619 414.15 691.713 433.094C691.682 432.385 691.732 431.824 692.032 431.169C697.352 419.562 705.133 408.203 711.665 397.217C718.411 385.871 724.576 374.186 731.346 362.867C734.974 356.8 739.053 351.015 742.53 344.856Z"/>
		<path fill="#FEFEFE" d="M422.286 488.919L423.018 489.13C424.845 490.89 425.916 492.925 427.126 495.116C418.566 496.372 416.511 500.708 409.556 503.613C407.557 504.448 405.094 504.063 403.026 504.616C399.414 505.582 400.064 509.764 398.164 512.308C396.425 514.635 393.43 515.216 390.738 515.508C389.808 515.492 388.684 515.592 387.783 515.313C386.429 514.894 385.758 514.229 385.026 513.091C385.153 512.658 385.145 512.159 385.408 511.792C385.444 511.744 418.369 491.467 422.286 488.919Z"/>
		<path fill="#FEFEFE" d="M452.654 541.339L453.725 541.41C454.832 542.241 455.368 542.718 456.026 543.983C455.127 546.881 424.824 563.846 420.258 566.544L419.6 566.797C418.17 565.971 417.374 564.385 416.461 563.025C429.069 556.948 440.197 547.826 452.654 541.339Z"/>
		<path fill="#FEFEFE" d="M603.843 482.615C608.095 483.519 638.535 503.084 644.556 506.726C644.728 507.964 643.9 508.748 643.261 509.791C640.967 509.929 607.898 488.328 603.292 484.781L603.843 482.615Z"/>
		<path fill="#FEFEFE" d="M278.304 351.151C278.891 351.493 279.368 351.806 279.803 352.357C283.419 356.932 287.751 366.03 290.827 371.41C295.54 379.653 299.985 388.048 304.705 396.283C307.521 401.195 310.702 405.917 313.399 410.891L312.97 411.181C306.638 401.527 278.583 361.276 277.297 353.647C277.076 352.333 277.524 352.144 278.304 351.151Z"/>
		<path fill="#FEFEFE" d="M441.283 520.49C442.467 521.334 443.459 523.122 444.32 524.328C438.902 526.817 433.641 530.18 428.082 532.258C426.077 533.008 424.962 533.327 422.988 532.414C422.187 531.205 422.287 530.923 422.3 529.447C423.452 528.677 424.007 528.236 425.444 528.208L425.876 529.034C425.618 530.104 425.398 531.06 425.343 532.165C426.617 532.354 426.648 532.106 427.733 531.521C427.451 530.409 427.294 529.704 427.519 528.571C431.456 525.13 436.651 522.876 441.283 520.49Z"/>
		<path fill="#FEFEFE" d="M413.749 536.412C415.725 536.818 417.987 536.179 419.69 537.306C418.887 539.237 413.038 542.177 411.081 543.458C409.776 544.331 408.592 545.112 407.116 545.664C405.444 544.986 405.063 543.835 404.088 542.35L413.749 536.412Z"/>
		<path fill="#FEFEFE" d="M396.101 529.861C399.365 530.147 406.55 529.961 408.903 532.142C408.497 533.44 407.581 533.661 406.466 534.364C404.616 535.446 402.642 536.288 400.694 537.179C399.077 534.812 397.621 532.295 396.101 529.861Z"/>
		<path fill="#66C7D5" d="M504.772 146.726C527.079 145.654 550.112 148.007 572.082 151.778C622.603 160.451 670.584 177.523 713.173 206.525Q716.41 208.711 719.601 210.963Q722.792 213.215 725.936 215.532Q729.081 217.849 732.177 220.23Q735.273 222.611 738.319 225.056Q741.365 227.5 744.361 230.006Q747.356 232.513 750.299 235.08Q753.243 237.648 756.133 240.275Q759.023 242.903 761.858 245.589Q764.693 248.275 767.473 251.019Q770.252 253.763 772.975 256.564Q775.697 259.365 778.361 262.221Q781.026 265.076 783.631 267.987Q786.236 270.897 788.781 273.86Q791.325 276.823 793.809 279.838Q796.292 282.852 798.713 285.917Q801.133 288.983 803.491 292.097Q805.848 295.211 808.141 298.373Q810.433 301.535 812.66 304.744Q814.888 307.952 817.048 311.206Q819.209 314.459 821.303 317.757Q823.396 321.054 825.421 324.394Q827.447 327.734 829.403 331.114Q831.359 334.495 833.245 337.915Q835.132 341.335 836.947 344.793Q838.763 348.251 840.507 351.746Q842.251 355.241 843.923 358.771Q845.595 362.301 847.194 365.864Q848.793 369.428 850.318 373.023Q851.843 376.619 853.294 380.245Q854.746 383.871 856.122 387.526Q857.498 391.182 858.799 394.864Q860.1 398.547 861.325 402.256C868.261 423.528 872.8 445.657 876.998 467.614C867.582 458.553 857.658 449.969 847.958 441.212Q828.418 423.396 808.675 405.804C796.475 395.038 783.956 384.423 772.314 373.059C778.373 358.786 780.672 343.091 776.121 327.998Q775.696 326.558 775.201 325.141Q774.705 323.724 774.14 322.334Q773.575 320.943 772.941 319.582Q772.308 318.221 771.607 316.893Q770.907 315.566 770.142 314.274Q769.376 312.983 768.548 311.731Q767.72 310.479 766.83 309.27Q765.941 308.061 764.992 306.898Q764.044 305.734 763.039 304.619Q762.034 303.504 760.975 302.44Q759.916 301.376 758.805 300.366Q757.694 299.356 756.535 298.403Q755.376 297.449 754.171 296.554Q752.966 295.659 751.717 294.825Q750.469 293.991 749.181 293.22Q747.893 292.449 746.569 291.743C732.077 284.17 714.157 283.68 698.751 288.648C690.1 291.438 681.278 296.777 674.995 303.376C666.816 311.968 658.491 329.972 652.321 340.874C644.493 354.703 636.16 368.388 628.881 382.508L556.305 313.325C543.814 301.325 531.583 288.867 518.657 277.341Q513.725 272.951 509.016 268.324Q472.272 304.354 435.041 339.88C421.394 353.09 408.321 367.805 393.528 379.696Q380.03 357.626 367.18 335.173C361.697 325.627 356.941 315.432 349.806 306.971Q347.849 304.63 345.659 302.505Q343.468 300.381 341.069 298.496Q338.669 296.612 336.086 294.987Q333.502 293.363 330.764 292.017Q329.405 291.361 328.016 290.772Q326.626 290.183 325.21 289.663Q323.794 289.143 322.354 288.692Q320.913 288.241 319.453 287.862Q317.993 287.482 316.515 287.174Q315.038 286.866 313.548 286.631Q312.057 286.395 310.557 286.233Q309.057 286.07 307.551 285.981Q306.044 285.893 304.535 285.877Q303.026 285.862 301.519 285.92Q300.011 285.979 298.508 286.111Q297.004 286.243 295.509 286.448Q294.014 286.653 292.531 286.931Q291.048 287.209 289.58 287.559Q288.113 287.909 286.664 288.33Q285.215 288.752 283.788 289.243C269.66 294.266 257.239 305.64 250.945 319.231C242.732 336.969 244.65 352.383 251.089 370.143C241.489 380.344 230.515 389.701 220.288 399.287C205.363 413.276 190.728 427.565 175.735 441.476C167.012 449.57 157.093 457.22 149.192 466.064C150.965 454.771 152.627 443.428 155.207 432.285Q156.534 426.535 158.043 420.831Q159.552 415.126 161.241 409.472Q162.93 403.818 164.797 398.22Q166.665 392.623 168.709 387.087Q170.752 381.552 172.971 376.084Q175.189 370.616 177.58 365.221Q179.971 359.826 182.532 354.51Q185.092 349.194 187.82 343.961Q190.548 338.729 193.441 333.586Q196.333 328.442 199.387 323.393Q202.441 318.344 205.654 313.395Q208.867 308.445 212.235 303.6Q215.603 298.755 219.123 294.019Q222.643 289.283 226.311 284.661Q229.98 280.039 233.793 275.535Q237.606 271.032 241.56 266.652Q244.008 263.941 246.51 261.28Q249.012 258.619 251.567 256.009Q254.122 253.399 256.729 250.841Q259.335 248.282 261.993 245.777Q264.651 243.271 267.358 240.82Q270.065 238.368 272.821 235.971Q275.577 233.574 278.381 231.233Q281.185 228.892 284.035 226.608Q286.885 224.324 289.78 222.097Q292.675 219.87 295.615 217.702Q298.554 215.534 301.536 213.426Q304.519 211.317 307.543 209.269Q310.567 207.22 313.631 205.233Q316.696 203.246 319.8 201.321Q322.904 199.395 326.045 197.533Q329.187 195.67 332.366 193.871Q335.544 192.072 338.759 190.337Q341.973 188.602 345.221 186.932Q348.469 185.262 351.75 183.657Q355.032 182.053 358.344 180.514Q361.657 178.976 365 177.504Q368.343 176.033 371.715 174.628Q375.086 173.224 378.486 171.888Q381.885 170.552 385.31 169.284Q388.736 168.016 392.186 166.818Q395.636 165.619 399.11 164.49Q402.583 163.361 406.079 162.301Q409.574 161.242 413.09 160.253Q416.606 159.265 420.141 158.346Q423.677 157.428 427.23 156.581Q430.783 155.735 434.352 154.959Q437.921 154.184 441.505 153.48C462.349 149.467 483.608 147.867 504.772 146.726Z"/>
		<path fill="#FEFEFE" d="M511.616 179.344C514.603 182.579 519.482 199.023 520.949 203.895C529.651 202.971 538.436 203.262 547.156 202.414C541.258 208.829 533.204 214.072 526.025 218.998C529.411 227.802 532.607 236.915 534.831 246.083C527.248 241.654 520.107 235.8 512.789 230.884L511.964 230.394C511.042 230.551 511.208 230.398 510.588 230.855C507.979 232.78 505.558 234.96 502.922 236.859C498.408 240.112 493.758 243.053 489.426 246.565C491.711 237.169 494.605 228.179 498.335 219.256C491.051 214.968 483.718 208.725 477.575 202.913Q490.591 203.003 503.595 203.561C505.395 195.389 508.812 187.239 511.616 179.344Z"/>
		<path fill="#FEFEFE" d="M402.42 237.337C404.78 239.483 408.24 250.38 409.634 253.913C415.636 253.927 421.624 253.939 427.621 254.226Q419.622 259.02 411.85 264.173Q415.107 273.315 417.863 282.62C413.034 279.562 408.558 275.706 403.818 272.46L402.772 271.951C398.995 272.592 391.169 279.515 387.845 282.046C388.999 276.178 391.117 270.388 392.891 264.678C388.015 260.839 382.818 257.522 378.07 253.491Q387.323 253.146 396.582 253.255C398.173 247.863 400.361 242.566 402.42 237.337Z"/>
		<path fill="#FEFEFE" d="M621.243 237.246C623.659 239.076 626.839 250.539 628 253.851Q636.878 253.759 645.755 253.912Q638.648 259.375 631.217 264.388Q633.697 272.978 637.174 281.215C631.827 278.497 626.909 275.491 622.096 271.904C619.072 272.466 610.56 279.501 607.519 281.469C609.645 275.887 610.964 270.048 612.243 264.228C607.406 260.309 601.799 257.41 596.864 253.578C603.047 253.361 609.231 253.504 615.415 253.591Q618.28 245.401 621.243 237.246Z"/>
		<path fill="#083D60" d="M232.177 537.314C233.809 541.184 242.275 556.548 241.543 559.13C240.116 560.13 238.118 559.873 236.38 559.959L236.085 560.555C239.092 567.2 244.176 572.558 247.906 578.728C248.659 579.974 248.694 580.892 248.298 582.249C245.648 584.453 241.36 583.775 238.106 583.757C242.638 589.801 249.748 595.499 253.134 602.141C253.879 603.603 254.059 604.632 253.607 606.196C250.784 608.347 243.983 606.749 240.562 606.361C244.324 610.375 258.455 620.019 259.361 624.059C259.609 625.163 259.528 625.98 258.703 626.823C255.19 630.415 246.473 628.757 242.081 628.358C246.92 632.545 252.39 634.431 257.663 637.796C259.496 638.965 262.578 641.564 262.717 643.975C262.795 645.33 262.41 646.248 261.461 647.196C256.708 651.943 244.241 650.628 237.845 650.615L238.007 667.817C257.739 671.06 277.564 674.528 297.49 676.336L297.333 669.102C292.027 668.851 281.031 669.332 277.484 665.001C276.399 663.678 275.953 662.186 276.323 660.484C277.389 655.57 289.178 651.372 293.729 647.956C289.784 648.188 283.256 649.133 279.822 646.999C278.644 646.266 278.529 646.034 278.238 644.778C279.517 640.76 289.973 633.494 293.589 629.522C291.4 629.598 287.504 630.172 285.704 628.688C285.096 628.186 284.654 627.51 284.534 626.734C283.871 622.443 294.483 611.499 297.437 607.759C295.251 607.663 292.706 607.777 290.6 607.186C289.603 606.906 289.947 607.167 289.466 606.298C290.943 600.2 296.533 594.27 299.533 588.698L299.85 588.102L293.893 586.697C296.854 580.568 299.671 574.272 303.083 568.383C306.642 574.328 309.565 581.017 312.468 587.321L305.698 587.979C307.732 591.8 310.47 595.305 312.883 598.896C314.339 601.063 316.897 604.415 316.378 607.062C313.961 608.023 310.984 607.798 308.404 607.885C311.427 611.465 321.514 622.007 322.002 625.81C322.193 627.297 321.964 627.605 321.202 628.798C318.186 630.595 315.349 629.805 312.053 629.326C315.403 632.769 326.72 640.193 327.553 644.502C327.813 645.847 327.609 646.088 326.894 647.142C322.63 649.414 318.108 647.363 313.587 648.065L313.684 648.796C316.952 652.168 321.46 654.204 325.249 656.93C327.538 658.576 329.269 660.36 329.718 663.203C329.542 663.979 329.405 664.595 328.817 665.184C324.532 669.465 313.83 669.086 308.133 669.273L308.006 676.896C323.772 678.86 339.924 680.573 355.797 681.128C355.94 678.443 355.916 675.728 355.96 673.038C351.792 673.103 346.418 673.736 342.515 672.233C341.034 671.663 340.377 671.016 339.693 669.612C340.119 665.34 346.902 663.398 350.045 661.25C351.404 660.321 352.601 659.098 353.782 657.955C351.289 657.977 347.033 658.49 344.838 657.228C343.549 656.487 343.476 656.318 343.134 654.969C344.628 650.407 351.252 646.572 354.506 642.947L354.977 642.417C353.523 642.487 351.504 642.767 350.094 642.402C348.751 642.055 348.449 641.527 347.808 640.437C347.965 636.896 351.441 633.888 353.495 631.204C354.295 630.159 355.852 628.477 355.693 627.212C354.217 626.922 352.977 626.706 351.673 625.9C350.962 621.485 358.395 615.951 359.324 611.229C359.366 611.014 359.395 610.797 359.43 610.58C357.992 610.348 357.738 610.413 356.717 609.409C356.199 606.211 359.029 602.307 360.515 599.581C361.848 602.38 363.904 605.461 363.958 608.593C363.03 610 362.358 609.973 360.798 610.514C363.012 614.67 368.967 621.842 369.336 626.175C367.778 627.038 365.429 627.007 363.65 627.219C363.726 627.343 363.801 627.467 363.879 627.589L364.271 628.199C366.334 631.467 371.185 635.373 372.272 638.768C372.731 640.201 372.584 640.43 371.942 641.679C370.066 642.972 367.556 642.81 365.342 642.956C367.853 645.772 376.898 651.911 377.226 655.416C377.291 656.101 376.854 656.355 376.454 656.847C373.078 658.314 369.115 657.895 365.545 657.544C369.062 660.77 377.152 663.596 379.008 667.737C379.541 668.926 379.171 669.357 378.622 670.38C374.705 673.317 368.976 673.005 364.308 672.989L364.178 681.448C373.717 682.661 383.588 682.96 393.192 683.487C415.208 684.694 437.061 685.233 459.096 684.384C454.728 692.297 449.272 699.982 444.469 707.668L406.033 768.212Q389.718 794.271 372.907 820.012C367.917 827.742 363.316 836.347 357.578 843.521Q355.76 842.76 353.98 841.916C333.581 832.365 313.137 820.418 295.046 806.978C245.621 770.259 194.194 709.206 173.124 650.732C190.512 656.975 208.511 661.389 226.549 665.29C226.818 660.424 226.712 655.515 226.73 650.642C222.693 650.661 218.622 650.756 214.59 650.584C210.591 650.413 205.708 649.427 202.988 646.212C202.189 645.268 201.715 644.08 201.964 642.828C202.889 638.186 212.257 635.417 215.988 633.358C218.497 631.973 220.739 630.253 222.999 628.503C217.62 628.861 210.376 629.904 205.77 626.502C205.449 625.87 205.069 625.447 205.155 624.711C205.594 620.993 220.9 610.071 224.692 606.468C221.338 606.725 215.737 607.785 212.771 605.733C212.097 605.267 211.595 604.66 211.486 603.848C210.924 599.651 218.697 593.645 221.344 590.609C223.014 588.694 224.491 586.596 225.971 584.532C223.989 584.384 221.517 584.403 219.684 583.613C218.543 583.122 217.727 581.997 217.476 580.802C216.74 577.293 226.951 563.671 229.039 559.717C226.906 559.515 224.488 559.497 222.807 558.025L223.523 557.241L222.937 557.505Q227.466 547.368 232.177 537.314Z"/>
		<path fill="#083D60" d="M791.967 535.198C794.504 536.691 800.322 555.318 802.135 559.713C799.511 559.705 796.879 559.564 794.256 559.473C798.455 567.954 803.612 575.328 808.626 583.282C805.889 584.575 803.25 585.436 800.334 586.229C803.805 594.591 812.068 599.016 813.33 602.302C813.63 603.083 813.282 603.374 812.974 604.081C809.744 606.491 805.877 606.827 802.009 607.517C803.433 609.546 805.012 611.548 806.887 613.18C809.558 615.505 815.349 618.006 817.054 620.931C817.798 622.208 817.663 622.503 817.351 623.861C814.477 627.406 807.649 628.811 803.331 629.564C804.882 631.184 806.405 632.685 808.287 633.928C811.892 636.31 820.405 639.071 822.161 643.014C822.617 644.039 822.523 645.058 821.867 645.969C818.536 650.592 803.456 651.348 798.03 651.801L797.876 663.755Q824.975 658.2 851.645 650.856Q851.289 651.777 850.914 652.69C821.609 724.369 766.265 786.112 699.761 825.332C689.112 831.611 678.001 838.078 666.579 842.829L605.332 748.697C592.131 728.029 578.069 703.934 563.653 684.448C594.86 686.619 628.545 684.592 659.637 681.845C659.613 678.836 659.436 675.831 659.288 672.826C652.637 672.589 647.646 671.656 642.717 666.795C647.871 664.434 652.171 661.752 656.172 657.723C654.053 655.823 649.076 655.289 646.247 653.833C650.045 650.558 653.49 647.301 656.667 643.404C654.957 642.731 653.136 642.282 652.162 640.62C651.744 637.662 658.018 631.475 660.145 627.903C659.115 627.728 658.052 627.577 657.044 627.303C656.003 627.02 655.089 626.801 654.565 625.823C656.615 623.153 660.925 619.127 661.241 615.686C661.358 614.411 660.644 613.195 660.813 611.923C661.182 609.139 662.842 605.885 663.746 603.14C664.86 605.522 667.671 610.139 667.254 612.719C666.423 613.098 666.32 613.135 665.775 613.928C666.656 618.987 671.039 621.705 672.738 626.249L672.234 626.964C671.025 626.993 669.94 626.938 668.832 627.497C668.373 631.311 674.515 637.898 676.908 641.005C674.56 641.789 672.486 642.251 670.017 642.519C672.54 645.689 675.58 647.801 678.245 650.718C679.224 651.788 679.392 652.381 679.318 653.788C677.357 656.294 673.836 656.738 670.906 657.504C673.847 660.881 681.344 664.863 682.467 666.697C682.878 667.367 682.602 667.719 682.442 668.424C679.062 671.954 673.567 672.192 668.986 672.536L669.022 681.239Q693.672 680.004 718.046 676.128C718.282 673.829 718.383 671.511 718.53 669.204C709.575 668.908 700.196 668.057 693.283 661.832C698.927 656.448 706.52 653.599 712.365 648.229C706.586 647.16 702.736 646.23 698.368 641.984C704.087 637.806 708.926 633.674 713.482 628.225Q711.509 628.138 709.55 627.884C707.253 627.577 705.14 627.389 703.638 625.436C703.631 623.897 708.25 620.34 709.579 618.763C711.756 616.178 715.693 610.875 715.39 607.484C713.912 606.468 712.576 607.294 710.871 606.891C710.171 606.726 710.144 606.396 709.771 605.841C709.786 605.203 709.678 604.55 709.817 603.927C710.118 602.584 713.376 598.813 714.243 597.474C716.67 593.728 718.628 589.813 720.445 585.744C718.3 585.535 715.592 585.596 713.719 584.486C714.439 581.594 717.539 578.42 718.966 575.652C721.143 571.426 722.362 566.85 723.475 562.255C725.299 571.2 728.328 577.443 733.95 584.619C731.467 585.402 729.229 585.841 726.652 586.146C729.615 593.308 735.56 600.172 737.694 605.638C736.039 607.48 732.577 607.252 730.225 607.381C732.149 610.506 741.866 624.233 742.338 625.734C740.423 627.989 734.734 628.081 731.933 628.472C735.064 632.096 744.142 638.575 745.612 640.858C746.374 642.04 746.264 642.578 745.933 643.885C742.811 646.988 736.367 648.001 732.098 648.269C732.509 648.637 732.925 648.988 733.345 649.345C737.923 653.231 748.983 657.484 751.466 662.404C751.317 662.645 751.22 662.927 751.02 663.128C750.245 663.901 748.527 664.635 747.541 665.182C740.683 668.992 737.977 667.689 731.162 668.665C730.548 668.753 729.758 668.948 729.421 669.525C728.677 670.799 728.853 672.823 729.217 674.186C734.42 675.539 776.704 667.652 785.534 665.727L785.519 652.007C782.204 651.82 778.881 651.643 775.591 651.177C770.997 650.525 764.875 649.145 761.982 645.276C761.821 643.96 761.774 643.726 762.624 642.599C765.487 638.804 775.453 636.686 780.438 629.74C780.559 629.572 780.676 629.402 780.794 629.232C777.924 628.807 775.318 628.271 772.586 627.231C770.308 626.365 768.725 625.78 767.698 623.48C768.104 619.666 775.213 615.947 777.915 613.244C779.739 611.419 781.116 609.202 782.507 607.044Q781.057 606.844 779.612 606.614C776.756 606.156 773.424 605.777 771.608 603.269C771.638 602.123 771.642 601.695 772.34 600.719C773.47 599.139 775.2 597.803 776.589 596.441C780.004 593.096 782.236 589.738 784.433 585.509C781.372 584.771 778.388 583.941 775.391 582.973C781.097 576.13 785.363 568.015 789.124 559.969L782.243 559.757C785.879 551.707 788.641 543.365 791.967 535.198Z"/>
		<path fill="#083D60" d="M510.784 754.279C514.173 756.998 526.705 778.94 529.81 783.888Q557.205 826.795 583.675 870.278C560.277 874.342 537.157 877.083 513.375 877.11Q495.131 877.208 476.958 875.602Q458.785 873.995 440.842 870.698C443.889 862.981 450.111 855.551 454.333 848.334Q470.295 821.463 486.739 794.885C494.935 781.667 503.742 768.128 510.784 754.279Z"/>
		<path fill="#FEFEFE" d="M510.782 803.378C512.576 803.497 513.486 803.518 514.954 804.597C515.97 806.566 515.509 809.344 515.428 811.52C517.087 810.32 519.254 808.075 521.176 807.499C522.057 807.235 522.326 807.644 523.073 808.051C523.439 808.707 523.765 808.912 523.564 809.7C522.872 812.398 517.403 815.583 515.128 817.254C515.362 822.798 515.225 828.419 515.247 833.971C519.846 831.172 524.644 828.755 529.211 825.882C529.933 822.688 529.989 816.636 532.5 814.471C533.894 814.512 533.93 814.75 534.994 815.689C535.738 817.886 535.167 820.355 534.907 822.621C537.352 821.475 540.15 819.728 542.911 820.397L543.39 821.187C542.346 824.435 539.311 825.711 536.572 827.343C539.051 828.487 542.465 829.548 544.035 831.858C544.144 833.214 544.17 833.261 543.437 834.398C540.56 835.194 534.034 831.575 531.165 830.359C527.259 833.826 522.401 836.128 517.795 838.514C522.917 841.258 527.946 844.214 533.004 847.076C536.226 845.187 540.189 842.689 544.07 843.185C545.057 843.311 544.663 843.167 545.376 844.055C545.33 844.221 545.307 844.395 545.24 844.553C544.186 847.022 539.825 848.622 537.545 849.779C539.276 850.784 541.985 851.995 543.112 853.682C543.875 854.824 543.906 855.165 543.556 856.373C543.378 856.454 543.208 856.553 543.023 856.614C540.47 857.457 537.321 855.228 535.124 854.068C535.283 856.207 535.721 858.842 535.042 860.905C534.6 862.246 534.268 863.361 533 864.016C532.894 863.93 532.777 863.858 532.682 863.76C530.198 861.197 530.226 854.609 529.975 851.276Q522.621 846.89 515.09 842.815L515.274 861.193C518.074 862.875 522.679 864.934 524.053 868.06C523.703 869.163 523.66 869.162 522.7 869.821C520.434 869.912 517.909 867.976 516.026 866.837L515.428 867.195C515.458 868.677 515.515 870.217 515.333 871.691C515.147 873.194 514.555 874.256 513.351 875.19L512.277 874.858C509.84 871.847 510.251 869.436 510.339 865.767Q509.075 866.773 507.777 867.734C506.324 868.8 505.235 869.428 503.355 869.137L502.786 868.249C502.839 868.016 502.877 867.78 502.947 867.551C504.025 864.002 507.313 862.595 510.38 861.111Q510.42 852.298 509.951 843.498L495.598 852.081C495.414 855.639 495.246 860.147 492.915 863.026C492.285 863.805 492.614 863.54 491.464 863.687C489.408 861.436 489.927 857.549 489.996 854.712C487.665 855.916 485.491 857.376 482.788 856.876L482.282 856.03C483.303 852.707 485.592 851.842 488.393 850.219Q486.47 849.043 484.579 847.816C482.991 846.771 481.849 845.903 481.45 843.979L482.321 843.505C486.372 843.564 489.41 845.167 492.986 846.873C498.163 844.24 503.387 841.683 508.36 838.675L493.995 830.389C491.621 831.758 489.035 833.511 486.455 834.433C485.129 834.907 484.168 834.797 482.884 834.243C482.54 833.603 482.21 833.37 482.403 832.614C482.987 830.328 485.87 829.081 487.743 827.956C485.357 825.38 482.263 824.068 481.36 820.366L482.05 819.754C484.755 819.864 486.999 821.329 489.37 822.523C489.541 820.95 489.635 819.364 489.873 817.799C490.105 816.275 490.564 815.26 491.788 814.338L492.789 814.711C495.046 817.901 495.234 821.081 495.715 824.857Q502.893 829.595 510.503 833.603L510.455 817.799C507.71 815.491 502.143 811.511 501.668 808.02L502.298 807.361C505.174 807.267 508.177 809.839 510.438 811.411C510.431 808.705 510.531 806.075 510.782 803.378Z"/>
		<path fill="#083D60" d="M529.137 709.325C532.895 711.732 542.179 727.639 545.088 732.049Q568.933 767.993 592.047 804.411C600.1 817.218 608.145 829.952 616.452 842.599C620.013 848.019 623.258 853.573 627.218 858.723C626.144 859.658 625.001 859.655 623.629 859.937Q618.958 861.543 614.213 862.916C610.922 857.511 608.174 851.65 605.154 846.08Q593.907 825.251 582.44 804.541L556.817 759.192C547.348 742.75 537.533 726.352 529.137 709.325Z"/>
		<path fill="#083D60" d="M485.055 720.983L485.184 721.442C483.837 726.778 479.56 733.204 477 738.179Q461.287 768.245 444.787 797.886C432.898 819.611 421.991 841.995 409.317 863.27C406.109 862.355 403.035 861.201 399.925 860L396.929 858.711C404.153 849.127 410.091 838.341 416.486 828.186C432.253 803.15 447.726 777.905 463.795 753.06C470.693 742.394 477.291 731.018 485.055 720.983Z"/>
		<path fill="#66C7D5" d="M285.136 466.273C289.2 467.103 321.297 497.918 327.409 503.03Q320.952 508.342 314.762 513.962C314.726 513.965 314.69 513.973 314.653 513.972C313.414 513.932 312.522 513.016 311.602 512.278C307.193 508.737 303.157 504.655 298.908 500.914Q285.969 489.607 272.802 478.565C276.678 474.271 280.999 470.316 285.136 466.273Z"/>
		<path fill="#FEFEFE" d="M297.201 485.672C302.185 488.077 313.27 498.44 317.309 502.743L315.064 505.227L314.295 505.668C311.627 505.115 298.275 492.543 296.077 489.659C295.767 488.242 296.627 486.934 297.201 485.672Z"/>
		<path fill="#FEFEFE" d="M285.024 474.404C288.09 476.825 291.145 479.134 294.431 481.25L290.915 485.463C287.669 482.973 284.408 480.58 280.999 478.317L285.024 474.404Z"/>
		<path fill="#083D60" d="M463.594 599.789C469.254 603.66 509.676 672.742 514.21 683.172C510.979 680.501 508.154 675.029 505.751 671.478Q493.986 654.305 483.435 636.361Q472.883 618.418 463.594 599.789Z"/>
	</g>
	<g>
		<path fill="#FEFEFE" d="M0 0L1024 0L1024 1024L0 1024L0 0ZM529.125 903.481Q546.929 902.688 564.601 900.375Q582.272 898.062 599.681 894.246C674.173 877.172 748.641 835.44 800.124 778.779C873.162 698.394 910.146 600.06 904.727 491.235Q904.453 486.389 904.06 481.552Q903.667 476.714 903.155 471.888Q902.643 467.061 902.012 462.249Q901.381 457.437 900.633 452.642Q899.884 447.846 899.017 443.071Q898.15 438.295 897.167 433.543Q896.183 428.79 895.082 424.063Q893.982 419.336 892.765 414.637Q891.549 409.939 890.217 405.272Q888.885 400.604 887.439 395.971Q885.993 391.338 884.433 386.742Q882.873 382.146 881.201 377.59Q879.528 373.034 877.744 368.52Q875.96 364.007 874.066 359.538Q872.171 355.07 870.167 350.649Q868.164 346.229 866.052 341.859Q863.939 337.489 861.721 333.173Q859.502 328.856 857.177 324.596Q854.853 320.335 852.424 316.133Q849.995 311.931 847.464 307.79Q844.933 303.648 842.3 299.571Q839.668 295.493 836.936 291.482Q834.204 287.47 831.374 283.527Q828.545 279.584 825.619 275.712Q822.693 271.839 819.672 268.04Q816.652 264.241 813.539 260.518Q810.426 256.794 807.222 253.148Q804.018 249.502 800.726 245.936Q797.434 242.37 794.055 238.886Q790.675 235.402 787.212 232.003Q783.748 228.603 780.201 225.29Q776.655 221.976 773.028 218.751Q770.114 216.137 767.148 213.582Q764.182 211.027 761.164 208.533Q758.147 206.039 755.08 203.606Q752.013 201.173 748.897 198.803Q745.782 196.433 742.619 194.126Q739.456 191.82 736.247 189.577Q733.038 187.335 729.784 185.158Q726.531 182.981 723.234 180.87Q719.937 178.76 716.598 176.716Q713.259 174.672 709.88 172.697Q706.5 170.721 703.081 168.814Q699.662 166.907 696.206 165.07Q692.749 163.232 689.256 161.465Q685.763 159.698 682.234 158.002Q678.706 156.305 675.144 154.681Q671.583 153.056 667.989 151.504Q664.395 149.952 660.77 148.473Q657.146 146.994 653.492 145.588Q649.839 144.183 646.157 142.851Q642.476 141.52 638.768 140.263Q635.061 139.006 631.329 137.825Q627.596 136.643 623.841 135.538Q620.086 134.432 616.309 133.402Q612.532 132.373 608.735 131.42Q604.938 130.467 601.123 129.591Q597.307 128.714 593.475 127.916Q589.643 127.117 585.795 126.396Q581.947 125.675 578.086 125.032Q574.224 124.389 570.35 123.824Q566.476 123.259 562.592 122.772Q558.708 122.286 554.814 121.878Q550.921 121.47 547.02 121.141C530.596 119.685 513.685 118.773 497.209 119.685C497.079 119.692 496.95 119.707 496.82 119.718Q491.958 119.902 487.102 120.207Q482.245 120.512 477.398 120.938Q472.551 121.363 467.716 121.909Q462.881 122.455 458.061 123.12Q453.241 123.786 448.439 124.571Q443.637 125.357 438.856 126.261Q434.075 127.165 429.318 128.188Q424.561 129.21 419.83 130.351Q415.1 131.491 410.4 132.749Q405.699 134.006 401.031 135.38Q396.364 136.754 391.731 138.244Q387.099 139.733 382.505 141.337Q377.912 142.941 373.359 144.659Q368.807 146.377 364.298 148.207Q359.79 150.037 355.328 151.979Q350.866 153.92 346.454 155.972Q342.042 158.024 337.683 160.185Q333.323 162.345 329.018 164.614Q324.714 166.882 320.467 169.257Q316.22 171.631 312.033 174.11Q307.846 176.59 303.722 179.172Q299.598 181.755 295.54 184.439Q291.481 187.123 287.491 189.907Q283.5 192.691 279.58 195.574Q275.66 198.456 271.813 201.435Q267.965 204.414 264.193 207.487Q260.421 210.561 256.726 213.727Q253.031 216.893 249.416 220.15Q245.801 223.407 242.268 226.753Q238.735 230.098 235.287 233.531Q231.838 236.963 228.476 240.48Q225.113 243.997 221.839 247.597Q218.555 251.208 215.361 254.9Q212.167 258.591 209.065 262.361Q205.964 266.13 202.956 269.975Q199.949 273.821 197.038 277.739Q194.127 281.658 191.314 285.647Q188.501 289.637 185.788 293.694Q183.075 297.752 180.463 301.876Q177.851 306 175.342 310.187Q172.833 314.375 170.429 318.623Q168.024 322.871 165.726 327.178Q163.428 331.484 161.237 335.846Q159.046 340.208 156.963 344.624Q154.881 349.039 152.909 353.504Q150.937 357.969 149.076 362.482Q147.215 366.995 145.466 371.552Q143.717 376.11 142.082 380.709Q140.447 385.309 138.926 389.947Q137.406 394.586 136 399.26Q134.595 403.935 133.306 408.643Q132.017 413.352 130.845 418.09Q129.673 422.829 128.619 427.595Q127.565 432.362 126.629 437.152Q125.693 441.943 124.876 446.756Q124.059 451.569 123.362 456.4Q122.665 461.231 122.087 466.078Q121.51 470.926 121.053 475.786Q120.596 480.646 120.259 485.515Q119.923 490.385 119.707 495.262Q119.491 500.139 119.396 505.019Q119.301 509.9 119.327 514.781Q119.353 519.662 119.5 524.542Q119.647 529.421 119.915 534.295Q120.095 537.844 120.341 541.388Q120.587 544.933 120.898 548.472Q121.21 552.012 121.587 555.545Q121.964 559.078 122.406 562.604Q122.849 566.129 123.356 569.646Q123.864 573.163 124.437 576.669Q125.01 580.176 125.647 583.671Q126.285 587.167 126.987 590.65Q127.69 594.133 128.456 597.602Q129.223 601.072 130.054 604.526Q130.885 607.981 131.78 611.42Q132.675 614.858 133.633 618.28Q134.592 621.701 135.613 625.104Q136.635 628.508 137.72 631.891Q138.804 635.275 139.951 638.638Q141.098 642.001 142.308 645.342Q143.517 648.683 144.788 652.001Q146.059 655.319 147.391 658.613Q148.723 661.907 150.116 665.176Q151.509 668.444 152.963 671.687Q154.416 674.929 155.929 678.144Q157.443 681.359 159.015 684.545Q160.588 687.731 162.219 690.888Q163.85 694.044 165.54 697.17Q167.229 700.296 168.977 703.389Q170.724 706.483 172.528 709.544Q174.332 712.605 176.193 715.632Q178.054 718.659 179.97 721.651Q181.887 724.644 183.858 727.599Q185.83 730.555 187.856 733.474Q189.882 736.393 191.961 739.274Q194.041 742.155 196.174 744.997C210.111 763.922 225.827 782.224 243.239 798.048C259.661 812.972 276.656 826.936 295.136 839.266Q300.227 842.595 305.418 845.767Q310.609 848.938 315.895 851.949Q321.18 854.959 326.556 857.806Q331.932 860.653 337.392 863.334Q342.853 866.015 348.393 868.527Q353.933 871.039 359.547 873.38Q365.162 875.72 370.846 877.887Q376.53 880.055 382.277 882.047Q388.025 884.039 393.831 885.853Q399.637 887.668 405.496 889.304Q411.355 890.939 417.262 892.394Q423.168 893.849 429.116 895.122Q435.065 896.396 441.049 897.486Q447.034 898.575 453.049 899.481Q459.064 900.387 465.104 901.108Q471.145 901.829 477.204 902.364C494.498 903.838 511.787 903.881 529.125 903.481Z"/>
	</g>
</svg>
